<svg width="20" height="20" viewBox="0 0 20 20" fill="none" xmlns="http://www.w3.org/2000/svg">
<g clip-path="url(#clip0_17_4967)">
<path d="M13.7524 0C12.686 0.0737604 11.4395 0.756356 10.7132 1.64523C10.0506 2.45159 9.50552 3.64926 9.71805 4.81318C10.8832 4.84943 12.0871 4.15058 12.7847 3.24671C13.4373 2.40534 13.9311 1.21517 13.7524 0Z" fill="#282828"/>
<path d="M17.9647 6.70994C16.9408 5.42601 15.5019 4.68091 14.143 4.68091C12.3489 4.68091 11.5901 5.53978 10.3437 5.53978C9.05849 5.53978 8.0821 4.68341 6.53063 4.68341C5.00667 4.68341 3.38394 5.61479 2.35504 7.20751C0.90859 9.45033 1.15612 13.6672 3.5002 17.2589C4.33907 18.5441 5.45923 19.9893 6.92444 20.0018C8.22837 20.0143 8.59592 19.1654 10.3624 19.1567C12.1289 19.1467 12.464 20.0131 13.7654 19.9993C15.2319 19.9881 16.4133 18.3866 17.2521 17.1014C17.8535 16.18 18.0773 15.7162 18.5436 14.6761C15.1518 13.3846 14.608 8.56145 17.9647 6.70994Z" fill="#282828"/>
</g>
<defs>
<clipPath id="clip0_17_4967">
<rect width="20.0029" height="20.0029" fill="white" transform="translate(0.000244141)"/>
</clipPath>
</defs>
</svg>
