<svg width="110" height="59" viewBox="0 0 110 59" fill="none" xmlns="http://www.w3.org/2000/svg">
<rect width="109.861" height="58.0164" rx="19.7503" fill="#1877F2"/>
<path fill-rule="evenodd" clip-rule="evenodd" d="M69.7343 28.2563C69.7172 25.4722 68.9086 22.7512 67.404 20.4145C65.8994 18.0778 63.7617 16.2231 61.2432 15.0694C58.7248 13.9157 55.9308 13.5111 53.1912 13.9034C50.4516 14.2957 47.8808 15.4686 45.7824 17.2835C43.6839 19.0984 42.1454 21.4796 41.3486 24.1458C40.5517 26.812 40.5298 29.652 41.2854 32.3304C42.041 35.0088 43.5425 37.4137 45.6127 39.2612C47.683 41.1086 50.2354 42.3215 52.9686 42.7566V32.5005H49.2855V28.2563H52.9686V25.0224C52.9686 21.3448 55.1339 19.3084 58.446 19.3084C59.5338 19.3237 60.619 19.4196 61.6928 19.5953V23.2073H59.8622C59.5495 23.1666 59.2317 23.1971 58.9324 23.2967C58.6331 23.3962 58.3598 23.5622 58.1328 23.7824C57.9059 24.0026 57.7311 24.2713 57.6213 24.5686C57.5115 24.866 57.4696 25.1844 57.4987 25.5002V28.2539H61.5176L60.876 32.4981H57.4926V42.7578C60.9143 42.2015 64.0267 40.4357 66.2705 37.7777C68.5143 35.1197 69.7425 31.7437 69.7343 28.2563Z" fill="white"/>
</svg>
