<svg width="19" height="18" viewBox="0 0 19 18" fill="none" xmlns="http://www.w3.org/2000/svg">
<path d="M9.5 1.6875C8.05373 1.6875 6.63993 2.11637 5.4374 2.91988C4.23486 3.72339 3.2976 4.86544 2.74413 6.20163C2.19067 7.53781 2.04586 9.00811 2.32801 10.4266C2.61017 11.8451 3.30661 13.148 4.32928 14.1707C5.35196 15.1934 6.65492 15.8898 8.07341 16.172C9.49189 16.4541 10.9622 16.3093 12.2984 15.7559C13.6346 15.2024 14.7766 14.2651 15.5801 13.0626C16.3836 11.8601 16.8125 10.4463 16.8125 9C16.8105 7.06123 16.0394 5.20246 14.6685 3.83154C13.2975 2.46063 11.4388 1.68955 9.5 1.6875ZM10.0625 15.1615V10.6875H11.75C11.8992 10.6875 12.0423 10.6282 12.1478 10.5227C12.2532 10.4173 12.3125 10.2742 12.3125 10.125C12.3125 9.97582 12.2532 9.83274 12.1478 9.72725C12.0423 9.62176 11.8992 9.5625 11.75 9.5625H10.0625V7.875C10.0625 7.57663 10.181 7.29048 10.392 7.0795C10.603 6.86853 10.8891 6.75 11.1875 6.75H12.3125C12.4617 6.75 12.6048 6.69074 12.7103 6.58525C12.8157 6.47976 12.875 6.33668 12.875 6.1875C12.875 6.03832 12.8157 5.89524 12.7103 5.78975C12.6048 5.68426 12.4617 5.625 12.3125 5.625H11.1875C10.5908 5.625 10.0185 5.86205 9.59651 6.28401C9.17456 6.70597 8.9375 7.27826 8.9375 7.875V9.5625H7.25C7.10082 9.5625 6.95775 9.62176 6.85226 9.72725C6.74677 9.83274 6.6875 9.97582 6.6875 10.125C6.6875 10.2742 6.74677 10.4173 6.85226 10.5227C6.95775 10.6282 7.10082 10.6875 7.25 10.6875H8.9375V15.1615C7.35181 15.0167 5.88296 14.2662 4.83648 13.0661C3.79 11.866 3.24646 10.3087 3.31891 8.71806C3.39136 7.12743 4.07423 5.62595 5.22548 4.52595C6.37672 3.42595 7.90772 2.81211 9.5 2.81211C11.0923 2.81211 12.6233 3.42595 13.7745 4.52595C14.9258 5.62595 15.6086 7.12743 15.6811 8.71806C15.7535 10.3087 15.21 11.866 14.1635 13.0661C13.117 14.2662 11.6482 15.0167 10.0625 15.1615Z" fill="white"/>
</svg>
