<svg width="124" height="59" viewBox="0 0 124 59" fill="none" xmlns="http://www.w3.org/2000/svg">
<rect width="123.439" height="58.0164" rx="19.7503" fill="#C4C4C4"/>
<path d="M61.4062 42.5781C69.4144 42.5781 75.9062 36.0863 75.9062 28.0781C75.9062 20.07 69.4144 13.5781 61.4062 13.5781C53.3981 13.5781 46.9062 20.07 46.9062 28.0781C46.9062 36.0863 53.3981 42.5781 61.4062 42.5781Z" fill="white"/>
<path d="M54.6766 30.6048L53.8308 33.7465L50.7568 33.8117C49.8266 32.0797 49.3324 30.1471 49.3168 28.1811C49.3012 26.2151 49.7648 24.2749 50.6674 22.5283L53.4042 23.0298L54.6029 25.751C54.0636 27.3285 54.0875 29.0441 54.6706 30.606L54.6766 30.6048Z" fill="#FBBB00"/>
<path d="M73.277 25.8245C73.6865 27.9789 73.5019 30.2042 72.743 32.2618C71.9841 34.3193 70.6796 36.1316 68.9693 37.5042L65.5219 37.3278L65.0386 34.2816C66.4621 33.4471 67.5558 32.149 68.1368 30.6046H61.6758V25.8245H73.2818H73.277Z" fill="#518EF8"/>
<path d="M68.9701 37.5062C67.5876 38.6167 65.9776 39.4092 64.2544 39.8277C62.5312 40.2461 60.7371 40.2802 58.9992 39.9274C57.2614 39.5746 55.6225 38.8437 54.1989 37.7864C52.7753 36.7292 51.6018 35.3716 50.7617 33.8099L54.6779 30.6042C55.0456 31.5842 55.6229 32.4721 56.3694 33.2057C57.116 33.9394 58.0139 34.5011 59.0002 34.8515C59.9865 35.202 61.0375 35.3327 62.0796 35.2346C63.1217 35.1365 64.1298 34.8119 65.0333 34.2836L68.9701 37.5062Z" fill="#28B446"/>
<path d="M69.1198 18.7795L65.2048 21.984C64.2877 21.413 63.2537 21.0561 62.1797 20.9399C61.1057 20.8237 60.0193 20.9511 59.0013 21.3127C57.9833 21.6742 57.06 22.2607 56.2999 23.0284C55.5399 23.7961 54.9627 24.7252 54.6113 25.7468L50.6758 22.5254C51.5058 20.9221 52.6845 19.5253 54.1252 18.4374C55.566 17.3496 57.2322 16.5984 59.0015 16.2391C60.7707 15.8797 62.5979 15.9214 64.3489 16.3611C66.0999 16.8007 67.7301 17.6271 69.1198 18.7795Z" fill="#F14336"/>
</svg>
