<svg width="420" height="420" viewBox="0 0 420 420" fill="none" xmlns="http://www.w3.org/2000/svg">
<path d="M266.86 59.178C266.86 59.178 319.066 34.6584 344.19 71.4672C369.315 108.276 308.18 156.358 371.297 193.082C415.868 219.013 393.07 289.178 345.879 280.165C292.186 269.917 328.692 234.158 210.135 255.41C151.427 265.936 108.041 118.6 266.86 59.178Z" fill="#DBDCED"/>
<path d="M265.272 37.884C265.272 37.884 279.636 30.1392 286.23 37.7748C292.824 45.4188 275.067 55.0872 266.297 52.1136C257.528 49.14 259.644 40.0176 265.281 37.884H265.272Z" fill="#DBDCED"/>
<path d="M243.667 56.532C241.441 52.5252 243.491 47.5356 247.75 46.2C251.101 45.1416 255.142 44.982 257.511 48.8124C262.097 56.2212 252.966 58.9344 248.304 59.3712C246.322 59.556 244.365 57.7836 243.676 56.5404L243.667 56.532Z" fill="#DBDCED"/>
<path d="M376.47 191.176C376.47 191.176 364.736 183.775 366.424 175.09C368.104 166.404 382.535 175.274 384.669 183.145C386.794 191.016 380.309 194.166 376.479 191.184L376.47 191.176Z" fill="#DBDCED"/>
<path d="M389.608 203.977C392.481 206.136 396.294 204.498 397.504 200.735C398.453 197.77 398.773 194.158 396.043 191.873C390.751 187.454 385.937 192.965 387.08 199.391C387.39 201.146 388.726 203.305 389.616 203.977H389.608Z" fill="#DBDCED"/>
<path d="M212.26 395.741C314.596 395.741 397.556 392.018 397.556 387.425C397.556 382.832 314.596 379.109 212.26 379.109C109.925 379.109 26.9648 382.832 26.9648 387.425C26.9648 392.018 109.925 395.741 212.26 395.741Z" fill="#BCBFD8"/>
<path d="M147.078 316.462C151.253 313.076 155.696 312.337 154.428 316.873C153.277 320.981 145.986 320.317 143.365 322.82C145.331 325.702 147.565 328.642 150.11 331.624C150.354 331.909 150.598 332.186 150.833 332.455C152.152 332.388 153.613 331.968 155.1 330.893C159.938 327.407 165.65 324.307 167.658 327.684C169.657 331.027 165.474 333.774 158.233 339.578C158.552 339.83 158.863 340.066 159.182 340.292C172.354 345.946 182.215 341.065 190.498 331.145C189.061 329.809 187.423 328.381 185.81 327.172C181.283 323.753 148.649 283.063 141.542 272.076C141.542 272.076 181.736 319.015 189.758 326.399C190.43 327.02 191.06 327.592 191.64 328.129C192.455 328.885 193.194 329.557 193.849 330.162L194.664 329.927C193.639 327.902 193.774 326.424 193.79 326.239C194.16 325.08 194.975 323.854 196.529 322.636C202.384 318.058 207.508 317.192 208.02 309.666C207.953 305.701 206.886 301.736 205.097 297.923C204.996 298.032 204.887 298.141 204.769 298.25C197.957 304.769 194.656 308.633 191.581 306.197C188.498 303.761 192.312 298.511 196.411 294.16C198.419 292.026 198.772 289.724 198.612 287.935C196.327 285.205 193.757 282.66 191.06 280.392C187.7 282.097 187.65 290.304 183.164 290.942C178.502 291.606 179.813 287.297 183.719 283.601C186.424 281.039 186.155 277.998 185.735 276.385C182.551 274.243 179.334 272.538 176.31 271.37C176.31 271.631 176.318 271.891 176.344 272.16C176.999 278.746 171.27 285.415 167.666 283.298C164.054 281.182 167.96 274.924 168.826 271.866C169.12 270.833 169.229 269.875 169.212 268.993C164.281 267.406 159.796 266.095 155.764 265.104C156.419 269.119 159.283 273.185 157.922 275.906C155.923 279.93 151.421 277.813 151.555 271.286C151.622 267.977 150.312 265.86 149.01 264.575C148.304 263.878 147.397 263.432 146.414 263.323C145.222 263.18 144.088 263.088 143.021 263.054C137.897 262.886 132.697 266.876 131.53 271.874C131.16 273.445 130.824 275.26 130.58 277.292C130.58 277.292 131.79 282.71 138.275 283.433C144.76 284.155 146.272 288.893 142.021 290.354C138.812 291.455 134.654 287.162 130.27 286.49C130.471 290.665 131.152 295.336 132.588 300.392C133.722 300.72 135.049 300.846 136.586 300.619C139.736 300.157 146.448 297.108 148.078 300.964C149.707 304.819 142.349 309.624 135.906 308.112C135.688 308.062 135.469 308.02 135.259 307.994C136.553 311.119 138.157 314.345 140.106 317.671C141.744 318.226 144.44 318.578 147.07 316.445L147.078 316.462ZM164.491 313.597C167.893 313.488 164.063 322.283 161.148 320.107C160.476 319.612 160.216 318.738 160.4 317.923C160.762 316.394 161.786 313.681 164.491 313.589V313.597ZM152.882 306.34C153.084 306.163 153.37 306.113 153.638 306.054C154.52 305.878 156.772 305.584 158.116 306.768C159.737 308.204 149.556 309.271 152.882 306.34ZM180.317 302.602C180.317 302.602 183.282 295.688 185.256 297.394C187.23 299.099 180.132 308.734 180.317 302.602ZM168.935 292.555C169.17 291.329 169.834 288.859 171.446 288.288C173.605 287.515 174.638 290.464 173.311 292.127C172.186 293.538 170.48 295.504 169.363 294.244C168.96 293.79 168.826 293.152 168.943 292.555H168.935Z" fill="#DBDCED"/>
<path d="M190.498 331.153L193.85 330.17C193.195 329.566 192.464 328.885 191.641 328.138C191.053 327.6 190.431 327.029 189.759 326.407C181.729 319.024 141.543 272.084 141.543 272.084C148.649 283.08 181.283 323.77 185.811 327.18C187.424 328.398 189.053 329.826 190.498 331.153Z" fill="#ACB3D1"/>
<path d="M156.53 291.455C149.255 290.8 143.93 292.874 143.93 292.874C152.22 291.698 159.05 294.748 159.05 294.748L156.53 291.463V291.455Z" fill="#ACB3D1"/>
<path d="M156.854 290.85C156.762 283.55 159.231 278.393 159.231 278.393C157.425 286.574 159.937 293.614 159.937 293.614L156.854 290.842V290.85Z" fill="#ACB3D1"/>
<path d="M169.539 305.474C171.941 298.578 176.024 294.58 176.024 294.58C171.53 301.652 171.496 309.128 171.496 309.128L169.539 305.474Z" fill="#ACB3D1"/>
<path d="M181.324 317.738C182.668 310.565 186.104 305.995 186.104 305.995C182.719 313.656 183.802 321.056 183.802 321.056L181.324 317.738Z" fill="#ACB3D1"/>
<path d="M168.859 306.818C161.753 308.507 157.359 312.161 157.359 312.161C164.852 308.414 172.295 309.137 172.295 309.137L168.859 306.818Z" fill="#ACB3D1"/>
<path d="M179.855 319.78C172.581 320.384 167.684 323.341 167.684 323.341C175.647 320.754 182.904 322.585 182.904 322.585L179.855 319.78Z" fill="#ACB3D1"/>
<path d="M386.185 138.23C387.94 134.736 389.335 131.351 390.435 128.108C390.225 128.15 390.007 128.209 389.788 128.276C383.371 130.242 375.592 125.874 376.978 121.859C378.364 117.844 385.361 120.481 388.587 120.733C390.158 120.859 391.485 120.641 392.619 120.229C393.736 115.013 394.106 110.242 394.03 106C389.629 106.974 385.714 111.602 382.396 110.704C377.995 109.511 379.204 104.614 385.723 103.446C392.233 102.278 393.098 96.7093 393.098 96.7093C392.711 94.6597 392.249 92.8453 391.771 91.2829C390.25 86.3017 384.723 82.6141 379.54 83.1349C378.465 83.2441 377.323 83.4121 376.13 83.6389C375.147 83.8237 374.248 84.3361 373.585 85.0837C372.35 86.4781 371.174 88.7125 371.459 92.0557C372.031 98.6497 367.621 101.102 365.327 97.1629C363.773 94.4917 366.394 90.1909 366.789 86.0749C362.774 87.3433 358.322 88.9813 353.441 90.9133C353.483 91.8037 353.66 92.7697 354.029 93.7945C355.113 96.8353 359.489 102.9 355.978 105.294C352.467 107.68 346.226 101.321 346.436 94.6093C346.444 94.3321 346.436 94.0633 346.419 93.8113C343.437 95.1889 340.295 97.1461 337.213 99.5233C336.902 101.195 336.835 104.286 339.741 106.697C343.941 110.174 345.562 114.45 340.799 114.089C336.213 113.744 335.608 105.445 332.089 103.95C329.51 106.428 327.082 109.175 324.957 112.09C324.915 113.912 325.427 116.214 327.611 118.238C332.047 122.363 336.263 127.42 333.315 130.091C330.358 132.77 326.763 129.074 319.421 122.934C319.295 122.833 319.186 122.724 319.069 122.623C317.515 126.605 316.7 130.696 316.901 134.711C317.935 142.296 323.176 142.825 329.417 147.059C331.072 148.184 331.988 149.377 332.441 150.528C332.475 150.704 332.71 152.2 331.811 154.316L332.651 154.501C333.273 153.846 333.97 153.107 334.751 152.292C335.306 151.704 335.902 151.082 336.541 150.41C344.168 142.388 381.682 92.1565 381.682 92.1565C375.231 103.765 344.949 147.16 340.589 150.923C339.044 152.258 337.481 153.821 336.121 155.266L368.435 162.406C368.738 162.154 369.04 161.885 369.343 161.616C361.623 156.232 357.205 153.737 359.002 150.217C360.817 146.664 366.797 149.411 371.938 152.62C373.509 153.602 375.021 153.93 376.365 153.913C376.592 153.619 376.819 153.325 377.037 153.014C379.406 149.822 381.472 146.698 383.27 143.648C380.447 141.296 373.114 142.456 371.669 138.373C370.082 133.862 374.635 134.316 379.078 137.458C381.884 139.44 384.597 138.902 386.21 138.23H386.185ZM365.655 139.843C365.907 140.65 365.689 141.548 365.05 142.103C362.245 144.497 357.776 135.853 361.228 135.736C363.975 135.643 365.193 138.323 365.663 139.843H365.655ZM367.217 128.394C368.494 127.1 370.796 127.252 371.703 127.369C371.972 127.403 372.266 127.436 372.484 127.604C376.054 130.351 365.672 129.956 367.217 128.394ZM339.103 120.733C340.984 118.877 344.453 125.672 344.453 125.672C345.05 131.863 337.221 122.59 339.103 120.733ZM354.987 116.474C353.937 117.827 352.081 115.954 350.846 114.601C349.393 113.005 350.233 109.948 352.475 110.586C354.139 111.056 354.979 113.509 355.306 114.736C355.466 115.332 355.373 115.987 354.995 116.474H354.987Z" fill="#DBDCED"/>
<path d="M336.086 155.266L332.625 154.501C333.247 153.846 333.944 153.107 334.725 152.292C335.279 151.704 335.876 151.082 336.514 150.41C344.141 142.388 381.656 92.1565 381.656 92.1565C375.205 103.765 344.923 147.16 340.563 150.923C339.017 152.258 337.455 153.821 336.094 155.266H336.086Z" fill="#ACB3D1"/>
<path d="M367.796 112.787C375.113 111.636 380.648 113.367 380.648 113.367C372.173 112.737 365.461 116.281 365.461 116.281L367.796 112.778V112.787Z" fill="#ACB3D1"/>
<path d="M367.419 112.199C367.024 104.799 364.168 99.7501 364.168 99.7501C366.554 107.907 364.479 115.206 364.479 115.206L367.41 112.199H367.419Z" fill="#ACB3D1"/>
<path d="M355.565 127.865C352.667 121.044 348.266 117.272 348.266 117.272C353.289 124.127 353.835 131.695 353.835 131.695L355.565 127.865Z" fill="#ACB3D1"/>
<path d="M344.468 141.07C342.62 133.896 338.832 129.503 338.832 129.503C342.772 137.029 342.184 144.598 342.184 144.598L344.468 141.07Z" fill="#ACB3D1"/>
<path d="M356.349 129.167C363.657 130.393 368.353 133.795 368.353 133.795C360.516 130.511 353.031 131.746 353.031 131.746L356.358 129.167H356.349Z" fill="#ACB3D1"/>
<path d="M346.089 143.044C353.498 143.17 358.647 145.833 358.647 145.833C350.407 143.749 343.191 146.093 343.191 146.093L346.089 143.044Z" fill="#ACB3D1"/>
<path d="M376.212 337.991C371.298 333.354 356.052 340.486 347.073 350.641L356.279 333.732C358.908 332.086 363.402 329.91 370.089 328.659C380.488 326.718 391.215 322.804 386.292 318.159C381.681 313.807 367.963 319.83 358.866 328.986L370.693 307.272C372.407 306.34 374.952 305.273 378.463 304.618C385.015 303.391 391.777 300.922 388.678 297.999C385.99 295.462 378.371 298.528 372.709 303.576L376.54 296.537C378.094 294.563 380.311 291.74 383.487 289.346C390.837 283.802 396.775 277.192 392.063 275.361C387.351 273.529 377.346 285.088 374.272 296.47L372.298 300.09C374.683 291.833 373.264 281.156 369.097 280.132C364.956 279.115 366.552 286.129 369.081 292.303C371.004 296.999 371.189 300.51 371.097 302.299L361.781 319.402C365.527 306.314 363.259 289.472 356.665 287.851C350.097 286.238 352.625 297.369 356.632 307.163C359.656 314.555 359.967 320.107 359.841 322.972L348.669 343.485C352.113 330.515 349.811 314.278 343.343 312.682C336.774 311.069 338.706 319.251 343.175 330.313C346.216 337.831 346.56 344.207 346.468 347.525L341.151 357.286L342.923 358.252L345.073 354.304C347.442 352.641 352.247 349.936 360.009 348.482C370.408 346.542 381.135 342.628 376.212 337.982V337.991Z" fill="#DBDCED"/>
<path d="M360.816 319.881C360.732 319.839 360.69 319.746 360.698 319.654C362.538 306.046 357.523 295.101 357.473 294.991C357.422 294.874 357.473 294.739 357.582 294.689C357.691 294.639 357.826 294.689 357.884 294.798C357.935 294.907 363.008 305.962 361.152 319.713C361.135 319.839 361.018 319.923 360.9 319.906C360.875 319.906 360.85 319.889 360.824 319.881H360.816Z" fill="#ACB3D1"/>
<path d="M377.849 291.799C377.849 291.799 377.841 291.799 377.833 291.791C377.732 291.724 377.698 291.581 377.765 291.48C383.805 282.156 390.357 277.788 390.424 277.746C390.525 277.679 390.668 277.704 390.735 277.813C390.802 277.914 390.777 278.057 390.668 278.124C390.601 278.166 384.124 282.484 378.135 291.724C378.068 291.824 377.942 291.858 377.841 291.799H377.849Z" fill="#ACB3D1"/>
<path d="M373.305 304.87C373.305 304.87 373.255 304.836 373.238 304.811C373.162 304.71 373.171 304.567 373.271 304.492C377.933 300.695 385.897 299.057 385.981 299.04C386.107 299.015 386.224 299.099 386.249 299.217C386.275 299.343 386.191 299.46 386.073 299.485C385.997 299.502 378.143 301.115 373.565 304.845C373.49 304.903 373.389 304.912 373.313 304.87H373.305Z" fill="#ACB3D1"/>
<path d="M359.058 331.019C359.058 331.019 359.016 330.994 358.999 330.977C358.915 330.885 358.915 330.742 359.008 330.658C368.063 322.073 380.226 320.813 380.344 320.796C380.47 320.788 380.579 320.872 380.587 320.998C380.596 321.124 380.512 321.233 380.386 321.241C380.268 321.25 368.256 322.51 359.319 330.977C359.243 331.044 359.142 331.061 359.058 331.011V331.019Z" fill="#ACB3D1"/>
<path d="M347.442 351.523C347.442 351.523 347.391 351.49 347.375 351.464C347.299 351.364 347.307 351.221 347.408 351.145C357.051 343.308 370.743 340.343 370.878 340.318C371.004 340.292 371.121 340.368 371.147 340.494C371.172 340.62 371.096 340.738 370.97 340.763C370.836 340.788 357.245 343.736 347.685 351.498C347.61 351.557 347.509 351.565 347.433 351.523H347.442Z" fill="#ACB3D1"/>
<path d="M347.718 343.921C347.642 343.879 347.592 343.787 347.6 343.695C349.389 329.717 344.601 318.805 344.551 318.696C344.5 318.579 344.551 318.444 344.668 318.394C344.786 318.343 344.92 318.394 344.971 318.511C345.021 318.621 349.86 329.633 348.054 343.745C348.037 343.871 347.928 343.955 347.802 343.938C347.776 343.938 347.743 343.921 347.726 343.913L347.718 343.921Z" fill="#ACB3D1"/>
<path d="M371.817 298.419C371.733 298.377 371.691 298.284 371.699 298.192C372.665 291.018 369.263 284.685 369.23 284.617C369.171 284.508 369.213 284.374 369.322 284.307C369.431 284.248 369.566 284.29 369.633 284.399C369.667 284.466 373.144 290.926 372.153 298.251C372.136 298.377 372.019 298.461 371.901 298.444C371.876 298.444 371.851 298.435 371.825 298.419H371.817Z" fill="#ACB3D1"/>
<path d="M148.52 117.373H37.5312V228.362H148.52V117.373Z" fill="#DBDCED"/>
<path d="M54.6756 117.373L37.5312 134.518V117.928L38.0856 117.373H54.6756Z" fill="#F4F2FF"/>
<path d="M148.524 128.663V142.531L62.6926 228.362H48.8242L148.524 128.663Z" fill="#F4F2FF"/>
<path d="M120.884 117.373L37.5312 200.727V166.287L86.4528 117.373H120.884Z" fill="#F4F2FF"/>
<path d="M148.522 179.399V217.224L137.392 228.363H99.5586L148.522 179.399Z" fill="#F4F2FF"/>
<path d="M148.529 138.978H37.5312V142.699H148.529V138.978Z" fill="#A6ABC9"/>
<path d="M150.387 230.336H35.668V115.626H150.387V230.345V230.336ZM39.3892 226.615H146.666V119.339H39.3892V226.615Z" fill="#BCBFD8"/>
<path d="M355.32 81.6061H341.98V360.587H355.32V81.6061Z" fill="#30599E"/>
<path d="M351.273 77.7505H181.156V360.587H351.273V77.7505Z" fill="#540BCB"/>
<path d="M321.261 341.3H209.171C208.558 341.3 208.062 340.805 208.062 340.192V320.3C208.062 319.687 208.558 319.192 209.171 319.192H321.261C321.874 319.192 322.37 319.687 322.37 320.3V340.192C322.37 340.805 321.874 341.3 321.261 341.3ZM210.288 339.074H320.152V321.401H210.288V339.074Z" fill="#30599E"/>
<path d="M195.863 97.4569H336.563C337.882 97.4569 338.948 98.5237 338.948 99.8425V256.335C338.948 257.653 337.873 258.729 336.554 258.729H195.863C194.544 258.729 193.469 257.653 193.469 256.335V99.8425C193.469 98.5237 194.536 97.4569 195.854 97.4569H195.863Z" fill="#DBDCED"/>
<path d="M252.902 97.4569L193.48 156.879V139.171L235.195 97.4569H252.902Z" fill="#F4F2FF"/>
<path d="M338.96 123.623V138.424L218.656 258.72H203.863L338.96 123.623Z" fill="#F4F2FF"/>
<path d="M323.571 97.4569L193.48 227.548V190.798L286.821 97.4569H323.571Z" fill="#F4F2FF"/>
<g style="mix-blend-mode:multiply">
<path d="M341.647 113.644C341.647 117.944 339.908 121.834 337.086 124.648C334.272 127.462 330.383 129.209 326.082 129.209C317.598 129.209 310.701 122.422 310.525 113.98C310.433 118.146 308.711 121.901 305.972 124.648C303.158 127.462 299.269 129.209 294.968 129.209C286.619 129.209 278.907 122.623 278.479 114.366C278.294 118.373 276.597 121.993 273.935 124.648C271.121 127.462 267.231 129.209 262.931 129.209C254.472 129.209 247.592 122.455 247.374 114.047C247.265 118.188 245.551 121.918 242.821 124.648C240.007 127.462 236.118 129.209 231.817 129.209C223.493 129.209 216.697 122.674 216.277 114.45C216.075 118.432 214.379 122.01 211.741 124.648C208.927 127.462 205.038 129.209 200.737 129.209C192.144 129.209 185.172 122.237 185.172 113.644V103.295L185.222 103.245L216.243 102.984H216.294L247.365 102.724H247.374L278.655 102.463H278.865L310.517 102.203L341.639 101.943V113.644H341.647Z" fill="#BCBFD8"/>
</g>
<path d="M338.96 130.032H193.48V133.317H338.96V130.032Z" fill="#540BCB"/>
<path d="M338.959 177.778V218.157L298.387 258.72H258.008L338.959 177.778Z" fill="#F4F2FF"/>
<g style="mix-blend-mode:multiply">
<path d="M302.896 168.504H231.269C230.072 168.504 229.102 169.474 229.102 170.671V209.303C229.102 210.5 230.072 211.47 231.269 211.47H302.896C304.092 211.47 305.063 210.5 305.063 209.303V170.671C305.063 169.474 304.092 168.504 302.896 168.504Z" fill="#BCBFD8"/>
</g>
<path d="M301.157 166.908H229.53C228.334 166.908 227.363 167.878 227.363 169.075V207.707C227.363 208.904 228.334 209.874 229.53 209.874H301.157C302.354 209.874 303.324 208.904 303.324 207.707V169.075C303.324 167.878 302.354 166.908 301.157 166.908Z" fill="#540BCB"/>
<path d="M232.159 170.554H298.527C299.165 170.554 299.678 171.075 299.678 171.705V185.665H231.008V171.705C231.008 171.066 231.529 170.554 232.159 170.554Z" fill="#FC7160"/>
<path d="M231.008 185.665H299.678V205.842C299.678 206.48 299.157 206.993 298.527 206.993H232.159C231.52 206.993 231.008 206.472 231.008 205.842V185.665Z" fill="white"/>
<path d="M235.207 196.846C235.207 192.696 238.475 189.68 242.943 189.68C247.412 189.68 250.68 192.696 250.68 196.846C250.68 200.995 247.412 204.019 242.943 204.019C238.475 204.019 235.207 201.004 235.207 196.846ZM246.018 196.846C246.018 194.712 244.649 193.418 242.943 193.418C241.238 193.418 239.869 194.712 239.869 196.846C239.869 198.979 241.238 200.273 242.943 200.273C244.649 200.273 246.018 198.979 246.018 196.846Z" fill="#540BCB"/>
<path d="M265.211 195.157C265.211 198.332 262.784 200.332 258.962 200.332H256.979V203.7H252.359V189.991H258.962C262.784 189.991 265.211 191.99 265.211 195.166V195.157ZM260.549 195.157C260.549 194.158 259.945 193.553 258.668 193.553H256.979V196.762H258.668C259.945 196.762 260.549 196.157 260.549 195.157Z" fill="#540BCB"/>
<path d="M278.121 200.214V203.7H266.723V189.991H277.869V193.477H271.267V195.082H277.063V198.408H271.267V200.214H278.121Z" fill="#540BCB"/>
<path d="M293.417 189.983V203.692H289.621L284.413 197.459V203.692H279.91V189.983H283.707L288.915 196.216V189.983H293.417Z" fill="#540BCB"/>
<path d="M241.66 177.853V180.063H239.602V177.828L237.301 173.973H239.468L240.711 176.081L241.963 173.973H243.945L241.644 177.853H241.66Z" fill="white"/>
<path d="M249.288 178.509V180.063H244.223V173.964H249.179V175.518H246.247V176.232H248.826V177.711H246.247V178.509H249.296H249.288Z" fill="white"/>
<path d="M249.691 179.575L250.355 178.08C250.926 178.416 251.699 178.635 252.363 178.635C252.942 178.635 253.152 178.509 253.152 178.307C253.152 177.543 249.784 178.156 249.784 175.888C249.784 174.754 250.733 173.83 252.623 173.83C253.438 173.83 254.286 174.006 254.925 174.359L254.303 175.846C253.698 175.543 253.135 175.392 252.606 175.392C252.001 175.392 251.817 175.569 251.817 175.779C251.817 176.509 255.185 175.896 255.185 178.147C255.185 179.265 254.236 180.205 252.346 180.205C251.329 180.205 250.296 179.953 249.691 179.575Z" fill="white"/>
<path d="M255.497 173.964H257.849L257.454 177.727H255.883L255.488 173.964H255.497ZM255.522 179.105C255.522 178.525 255.992 178.08 256.673 178.08C257.353 178.08 257.823 178.525 257.823 179.105C257.823 179.685 257.353 180.147 256.673 180.147C255.992 180.147 255.522 179.676 255.522 179.105Z" fill="white"/>
<path d="M271.061 173.964L269.112 180.063H266.912L265.929 176.803L264.896 180.063H262.695L260.746 173.964H262.863L263.921 177.433L265.047 173.964H266.937L267.995 177.475L269.121 173.964H271.07H271.061Z" fill="white"/>
<path d="M276.581 178.509V180.063H271.516V173.964H276.472V175.518H273.54V176.232H276.119V177.711H273.54V178.509H276.589H276.581Z" fill="white"/>
<path d="M279.352 174.628C279.352 174.905 279.318 175.115 279.016 175.77L278.403 177.064H277.185L277.621 175.594C277.277 175.426 277.059 175.09 277.059 174.628C277.059 173.947 277.546 173.51 278.209 173.51C278.873 173.51 279.36 173.947 279.36 174.628H279.352Z" fill="white"/>
<path d="M282.636 178.525H282.081V180.054H280.023V173.956H282.955C284.652 173.956 285.735 174.846 285.735 176.257C285.735 177.139 285.315 177.794 284.585 178.172L285.861 180.054H283.669L282.636 178.525ZM282.829 175.543H282.081V176.971H282.829C283.392 176.971 283.661 176.702 283.661 176.257C283.661 175.812 283.392 175.543 282.829 175.543Z" fill="white"/>
<path d="M291.573 178.509V180.063H286.508V173.964H291.464V175.518H288.532V176.232H291.111V177.711H288.532V178.509H291.581H291.573Z" fill="white"/>
<path d="M301.341 168.479C301.215 168.479 301.089 168.445 300.988 168.361L265.28 142.817L229.571 168.361C229.294 168.554 228.908 168.496 228.715 168.218C228.521 167.941 228.58 167.555 228.857 167.362L264.919 141.557C265.129 141.406 265.423 141.406 265.633 141.557L301.694 167.362C301.971 167.563 302.03 167.941 301.837 168.218C301.719 168.386 301.526 168.479 301.333 168.479H301.341Z" fill="#540BCB"/>
<path d="M265.283 145.421C267.083 145.421 268.542 143.962 268.542 142.162C268.542 140.362 267.083 138.902 265.283 138.902C263.483 138.902 262.023 140.362 262.023 142.162C262.023 143.962 263.483 145.421 265.283 145.421Z" fill="#EB9525"/>
<g style="mix-blend-mode:multiply">
<path d="M338.959 189.79V247.12H317.833C317.178 247.12 316.641 246.59 316.641 245.927V190.974C316.641 190.319 317.17 189.781 317.833 189.781H338.959V189.79Z" fill="#BCBFD8"/>
</g>
<path d="M338.228 354.438H194.21C193.597 354.438 193.102 353.943 193.102 353.329V273.479C193.102 272.866 193.597 272.37 194.21 272.37H338.228C338.842 272.37 339.337 272.866 339.337 273.479V353.329C339.337 353.943 338.842 354.438 338.228 354.438ZM195.319 352.212H337.111V274.588H195.319V352.212Z" fill="#30599E"/>
<path d="M341.99 188.832H322.107C320.799 188.832 319.738 189.893 319.738 191.201V240.097C319.738 241.405 320.799 242.466 322.107 242.466H341.99C343.298 242.466 344.359 241.405 344.359 240.097V191.201C344.359 189.893 343.298 188.832 341.99 188.832Z" fill="#CA6B25"/>
<path d="M341.461 241.156V189.42C341.461 187.875 340.209 186.623 338.664 186.623H317.941C316.396 186.623 315.144 187.875 315.144 189.42V241.156C315.144 242.7 316.396 243.953 317.941 243.953H338.664C340.209 243.953 341.461 242.7 341.461 241.156Z" fill="#EB9525"/>
<path d="M336.674 240.341H319.942C319.295 240.341 318.766 239.812 318.766 239.165V191.411C318.766 190.764 319.295 190.235 319.942 190.235H336.674C337.321 190.235 337.85 190.764 337.85 191.411V239.165C337.85 239.812 337.321 240.341 336.674 240.341ZM319.942 191.092C319.765 191.092 319.622 191.234 319.622 191.411V239.165C319.622 239.341 319.765 239.484 319.942 239.484H336.674C336.851 239.484 336.994 239.341 336.994 239.165V191.411C336.994 191.234 336.851 191.092 336.674 191.092H319.942Z" fill="#CA6B25"/>
<path d="M185.145 96.2221L185.095 96.2725V106.621C185.103 110.922 183.364 114.811 180.542 117.625C177.728 120.439 173.839 122.186 169.538 122.186C161.533 122.186 154.939 116.138 154.073 108.368C154.006 107.797 153.973 107.218 153.973 106.63V96.4825L191.966 58.4893C193.083 57.3721 194.595 56.7505 196.174 56.7505H223.97L185.137 96.2221H185.145Z" fill="#FC7160"/>
<path d="M185.095 96.2724V106.621C185.103 110.922 183.364 114.811 180.542 117.625C177.728 120.439 173.839 122.186 169.538 122.186C161.533 122.186 154.939 116.138 154.073 108.368L153.973 96.4824L185.137 96.222L185.086 96.2724H185.095Z" fill="#DB473C"/>
<path d="M286.22 56.7505L247.345 95.6257V106.638C247.345 110.939 245.606 114.828 242.784 117.642C239.97 120.456 236.081 122.203 231.78 122.203C223.187 122.203 216.215 115.24 216.215 106.638V95.9785L255.073 56.7589H286.204L286.22 56.7505Z" fill="#FC7160"/>
<path d="M247.353 95.7097V106.63C247.353 110.931 245.614 114.82 242.792 117.634C239.978 120.448 236.089 122.195 231.788 122.195C223.195 122.195 216.223 115.231 216.223 106.63V95.9701L247.345 95.7181L247.353 95.7097Z" fill="#DB473C"/>
<path d="M310.524 95.1889V106.63C310.532 110.93 308.793 114.82 305.971 117.634C303.157 120.448 299.268 122.195 294.967 122.195C286.374 122.195 278.461 115.231 278.461 106.63L278.528 95.6173L278.696 95.4493L317.336 56.7421H349.407L310.524 95.1805V95.1889Z" fill="#FC7160"/>
<path d="M310.532 106.63C310.532 110.93 308.793 114.82 305.971 117.634C303.157 120.448 299.268 122.195 294.967 122.195C286.374 122.195 278.461 115.231 278.461 106.63L278.528 95.6172L278.696 95.4492L310.524 95.1888V106.63H310.532Z" fill="#DB473C"/>
<path d="M341.646 94.9285V106.63C341.646 110.93 339.907 114.82 337.085 117.634C334.271 120.448 330.382 122.195 326.081 122.195C317.488 122.195 310.516 115.231 310.516 106.63V95.1889L349.265 56.8849C349.786 56.9857 350.29 57.1369 350.768 57.3469C353.07 58.3465 354.784 60.4549 355.204 63.0001C355.271 63.3949 355.304 63.8065 355.304 64.2265V81.5053L341.638 94.9285H341.646Z" fill="white"/>
<path d="M341.646 106.63C341.646 110.93 339.907 114.82 337.085 117.634C334.271 120.448 330.382 122.195 326.081 122.195C317.488 122.195 310.516 115.231 310.516 106.63V95.1889L341.638 94.9369V106.63H341.646Z" fill="#BCBFD8"/>
<path d="M255.092 56.7505L216.216 95.9701V106.63C216.216 110.93 214.478 114.82 211.655 117.634C208.841 120.448 204.952 122.195 200.651 122.195C192.058 122.195 185.086 115.231 185.086 106.63V96.2809L185.136 96.2305L223.97 56.7589H255.083L255.092 56.7505Z" fill="white"/>
<path d="M216.216 95.9617V106.621C216.216 110.922 214.478 114.811 211.655 117.625C208.841 120.439 204.952 122.186 200.651 122.186C192.058 122.186 185.086 115.223 185.086 106.621V96.2725L185.136 96.2221L216.208 95.9701L216.216 95.9617Z" fill="#BCBFD8"/>
<path d="M317.338 56.7505L278.462 95.6257V106.638C278.462 110.939 276.724 114.828 273.901 117.642C271.087 120.456 267.198 122.203 262.897 122.203C254.304 122.203 247.332 115.24 247.332 106.638V95.6257L286.216 56.7505H317.329H317.338Z" fill="white"/>
<path d="M278.63 95.4493L278.462 95.6173V106.63C278.462 110.931 276.724 114.82 273.901 117.634C271.087 120.448 267.198 122.195 262.897 122.195C254.304 122.195 247.332 115.231 247.332 106.63V95.7097L278.622 95.4493H278.63Z" fill="#BCBFD8"/>
<path d="M172.539 360.595H364.101C366.226 360.595 367.956 362.317 367.956 364.451V378.042C367.956 378.848 367.301 379.504 366.495 379.504H170.153C169.347 379.504 168.691 378.848 168.691 378.042V364.451C168.691 362.326 170.413 360.604 172.539 360.604V360.595Z" fill="#4676BC"/>
<path d="M166.566 360.595H358.128C360.253 360.595 361.984 362.317 361.984 364.451V378.042C361.984 378.848 361.328 379.504 360.522 379.504H164.18C163.374 379.504 162.719 378.848 162.719 378.042V364.451C162.719 362.326 164.441 360.604 166.566 360.604V360.595Z" fill="#30599E"/>
<path d="M160.364 372.229H376.278C378.193 372.229 379.756 373.783 379.756 375.707V388.702H156.887V375.707C156.887 373.792 158.449 372.229 160.364 372.229Z" fill="#5993D8"/>
<path d="M154.419 372.229H370.324C372.239 372.229 373.802 373.792 373.802 375.707V388.702H150.941V375.707C150.941 373.792 152.504 372.229 154.419 372.229Z" fill="#4676BC"/>
<path d="M45.6882 361.813C45.6882 361.813 36.675 363.812 38.019 357.521C39.3546 351.229 39.2622 348.911 35.5998 346.055C31.9374 343.199 28.2498 341.788 31.0554 337.26C33.861 332.733 28.5354 329.213 25.7886 326.777C23.0418 324.341 26.1414 322.501 26.8722 317.898C27.603 313.295 22.647 313.984 22.2606 308.188C21.8742 302.392 27.7626 295.613 22.6974 287.625C22.6974 287.625 29.5014 291.153 31.7358 297.352C33.9702 303.551 32.1642 308.339 36.1878 310.691C40.203 313.043 42.723 317.125 41.3538 321.3C39.9846 325.483 41.925 327.701 45.2262 330.75C48.519 333.799 47.6454 335.009 47.2338 338.739C46.8222 342.468 47.6454 341.586 51.417 346.685C55.1886 351.784 55.2894 360.133 45.6966 361.797L45.6882 361.813Z" fill="#143793"/>
<path d="M46.9737 361.536C46.9737 361.536 46.9401 361.477 46.9317 361.435L28.8969 306.701C28.8213 306.466 28.9473 306.214 29.1825 306.138C29.1825 306.138 29.1825 306.138 29.1909 306.138C29.4261 306.062 29.6697 306.197 29.7537 306.424L47.7885 361.158C47.8053 361.2 47.8137 361.25 47.8137 361.292L46.9821 361.536H46.9737Z" fill="#540BCB"/>
<path d="M61.949 361.704C61.949 361.704 70.9118 363.686 69.5846 357.437C68.249 351.179 68.3498 348.877 71.9954 346.03C75.641 343.19 79.3034 341.779 76.5146 337.285C73.7258 332.783 79.0178 329.288 81.7562 326.861C84.4946 324.442 81.4034 322.61 80.681 318.032C79.9586 313.454 84.881 314.143 85.2674 308.372C85.6538 302.602 79.7906 295.865 84.8306 287.918C84.8306 287.918 78.0602 291.43 75.8426 297.595C73.6166 303.761 75.4142 308.524 71.4158 310.867C67.4174 313.211 64.9142 317.26 66.275 321.426C67.6358 325.584 65.7038 327.793 62.4278 330.826C59.1518 333.858 60.0254 335.068 60.4286 338.772C60.8402 342.485 60.017 341.603 56.2622 346.676C52.5074 351.742 52.415 360.049 61.9574 361.712L61.949 361.704Z" fill="#143793"/>
<path d="M59.8477 361.183C59.8477 361.141 59.8477 361.091 59.8729 361.049L77.8069 306.608C77.8825 306.373 78.1345 306.247 78.3613 306.323C78.3613 306.323 78.3613 306.323 78.3697 306.323C78.6049 306.398 78.7309 306.65 78.6553 306.886L60.7213 361.334C60.7213 361.334 60.6961 361.402 60.6793 361.427L59.8561 361.183H59.8477Z" fill="#540BCB"/>
<path d="M51.995 360.562C51.995 360.562 41.6798 359.705 45.1994 353.413C48.719 347.122 49.3826 344.61 46.409 340.326C43.4354 336.05 39.9578 333.312 44.4602 329.398C48.971 325.483 44.435 319.948 42.3014 316.428C40.1678 312.908 44.099 311.968 46.409 307.28C48.719 302.593 43.1834 301.686 44.6954 295.344C46.2074 289.002 54.767 283.702 51.995 273.47C51.995 273.47 58.1102 279.51 58.4462 286.894C58.7822 294.277 55.2626 298.805 58.7822 302.66C62.3018 306.516 63.6458 311.716 60.7982 315.748C57.9506 319.771 59.2862 322.795 61.8062 327.155C64.3262 331.514 62.9822 332.522 61.3022 336.378C59.6222 340.234 60.7982 339.562 63.1502 346.273C65.5022 352.985 62.831 361.956 52.0034 360.562H51.995Z" fill="#536BCD"/>
<path d="M53.4555 360.696C53.4555 360.696 53.4387 360.62 53.4387 360.578L52.3047 295.966C52.3047 295.688 52.5231 295.462 52.8003 295.453H52.8087C53.0859 295.453 53.3043 295.672 53.3127 295.949L54.4467 360.562C54.4467 360.612 54.4467 360.662 54.4299 360.713L53.4639 360.696H53.4555Z" fill="#143793"/>
<path d="M82.0257 358.378L81.2781 360.36L80.8077 361.612L79.4553 365.207L78.9849 366.458L77.5905 370.154L77.1201 371.406L71.1561 387.248C60.1185 388.878 49.2489 388.937 38.5641 387.248L32.6001 371.406L32.1297 370.154L30.7353 366.458L30.2649 365.207L28.9125 361.612L28.4421 360.36L27.6945 358.378C27.1821 357.017 28.1817 355.572 29.6349 355.572H80.0853C81.5385 355.572 82.5381 357.017 82.0257 358.378Z" fill="#EB9525"/>
<path d="M81.278 360.36L80.8076 361.62H28.904L28.4336 360.36H81.278Z" fill="#CA6B25"/>
<path d="M79.4566 365.215L78.9778 366.467H30.7366L30.2578 365.215H79.4566Z" fill="#CA6B25"/>
<path d="M77.5903 370.155L77.1199 371.415H32.5915L32.1211 370.155H77.5903Z" fill="#CA6B25"/>
<path d="M129.102 139.289L129.404 139.725L129.732 140.196L130.404 141.145C130.858 141.775 131.32 142.413 131.782 143.043C132.714 144.303 133.655 145.555 134.612 146.798C136.528 149.276 138.485 151.704 140.501 154.022C142.508 156.332 144.583 158.558 146.666 160.482C147.7 161.439 148.75 162.321 149.699 162.993C150.169 163.329 150.623 163.615 150.967 163.808C151.144 163.909 151.286 163.976 151.387 164.027C151.48 164.069 151.522 164.094 151.463 164.094H151.286C151.236 164.094 151.194 164.094 151.127 164.102H151.001C150.883 164.119 150.757 164.136 150.648 164.153C150.211 164.22 149.909 164.321 149.716 164.405C149.514 164.489 149.405 164.556 149.346 164.598C149.22 164.69 149.287 164.673 149.38 164.615C149.489 164.547 149.64 164.421 149.816 164.262C150.169 163.943 150.581 163.506 151.001 163.019C151.421 162.531 151.849 161.994 152.278 161.423C153.134 160.289 153.983 159.054 154.814 157.777C155.646 156.5 156.452 155.181 157.25 153.837C158.846 151.149 160.375 148.377 161.862 145.563C162.601 144.161 163.332 142.741 164.054 141.321L165.121 139.188L166.154 137.071L166.205 136.97C167.532 134.24 170.825 133.098 173.563 134.433C176.167 135.702 177.318 138.776 176.26 141.431L175.781 142.615L175.31 143.774L174.353 146.076C173.706 147.605 173.051 149.133 172.37 150.654C171.018 153.695 169.607 156.727 168.086 159.751C167.322 161.263 166.532 162.775 165.692 164.287C164.852 165.799 163.962 167.319 162.962 168.857C162.458 169.629 161.929 170.402 161.35 171.183C160.762 171.973 160.123 172.771 159.334 173.619C158.939 174.039 158.502 174.476 157.981 174.93C157.452 175.383 156.856 175.854 156.024 176.349C155.604 176.593 155.134 176.837 154.554 177.072C153.974 177.299 153.277 177.517 152.446 177.635C152.244 177.668 152.009 177.685 151.79 177.702H151.656L151.555 177.719H151.354C151.219 177.727 151.085 177.735 150.967 177.727C150.841 177.727 150.707 177.727 150.589 177.727C150.094 177.71 149.632 177.66 149.203 177.593C147.49 177.315 146.213 176.828 145.087 176.333C143.97 175.829 143.012 175.291 142.114 174.753C140.341 173.661 138.821 172.527 137.384 171.368C134.528 169.05 132.008 166.656 129.589 164.211C127.17 161.767 124.877 159.272 122.642 156.735C121.525 155.467 120.425 154.19 119.341 152.897C118.795 152.25 118.258 151.603 117.72 150.948L116.914 149.957L116.51 149.453L116.082 148.915C113.302 145.412 113.89 140.313 117.401 137.533C120.904 134.753 126.002 135.341 128.783 138.852C128.892 138.986 128.993 139.121 129.085 139.255L129.119 139.297L129.102 139.289Z" fill="#FFA785"/>
<path d="M171.296 143.69C171.296 143.69 177.226 144.572 180.006 142.094C183.123 139.314 179.998 130.948 178.234 129.091C176.025 126.773 171.926 129.889 171.926 129.889C171.926 129.889 170.38 124.093 168.868 124.555C166.902 125.152 169.313 129.746 166.449 133.938C165.81 134.879 165.81 136.122 165.962 137.248C166.256 139.381 167.364 142.598 171.296 143.682V143.69Z" fill="#FFA785"/>
<path d="M174.195 139.44C174.195 139.322 174.246 139.205 174.355 139.138C174.464 139.07 176.976 137.39 179.076 137.256C179.269 137.239 179.437 137.39 179.454 137.584C179.462 137.777 179.319 137.945 179.126 137.962C177.211 138.088 174.775 139.709 174.75 139.726C174.59 139.835 174.372 139.793 174.263 139.633C174.221 139.574 174.204 139.516 174.204 139.448L174.195 139.44Z" fill="#E0774F"/>
<path d="M172.641 136.601C172.641 136.492 172.683 136.382 172.775 136.315C172.867 136.248 175.018 134.576 178.05 134.467C178.243 134.467 178.411 134.61 178.42 134.803C178.42 134.996 178.277 135.164 178.084 135.173C175.287 135.282 173.245 136.861 173.22 136.87C173.069 136.987 172.842 136.962 172.725 136.811C172.674 136.752 172.649 136.676 172.649 136.601H172.641Z" fill="#E0774F"/>
<path d="M172 133.333C172 133.224 172.042 133.123 172.134 133.048C172.21 132.989 174.075 131.51 176.922 131.393C177.116 131.393 177.284 131.536 177.292 131.729C177.3 131.93 177.149 132.09 176.956 132.098C174.344 132.207 172.596 133.585 172.58 133.593C172.428 133.711 172.202 133.694 172.084 133.535C172.034 133.476 172.008 133.4 172.008 133.325L172 133.333Z" fill="#E0774F"/>
<path d="M168.867 139.079C168.867 138.928 168.951 138.785 169.102 138.734C171.396 137.911 172.202 135.45 172.21 135.425C172.269 135.24 172.471 135.139 172.656 135.198C172.84 135.257 172.941 135.45 172.891 135.643C172.857 135.761 171.984 138.466 169.346 139.406C169.161 139.474 168.96 139.373 168.892 139.196C168.876 139.163 168.876 139.121 168.876 139.087L168.867 139.079Z" fill="#E0774F"/>
<path d="M171.969 133.854C171.944 132.922 172.036 131.947 172.313 130.956C172.364 130.771 172.557 130.662 172.75 130.712C172.935 130.763 173.044 130.956 172.994 131.149C171.498 136.483 175.757 141.515 175.799 141.565C175.925 141.716 175.908 141.935 175.766 142.061C175.614 142.187 175.396 142.17 175.27 142.027C175.119 141.851 172.103 138.298 171.969 133.854Z" fill="#E0774F"/>
<path d="M149.235 169.235C149.059 169.235 148.891 169.109 148.857 168.924C148.236 166.068 149.739 163.464 149.806 163.355C149.916 163.17 150.151 163.103 150.344 163.212C150.529 163.321 150.596 163.556 150.487 163.75C150.487 163.75 149.076 166.211 149.63 168.764C149.672 168.974 149.538 169.184 149.328 169.226C149.302 169.226 149.269 169.235 149.244 169.235H149.235Z" fill="#E0774F"/>
<path d="M147.741 167.009C147.741 167.009 147.657 167.009 147.615 166.992C147.413 166.925 147.304 166.698 147.371 166.496C147.397 166.429 147.926 164.9 149.665 163.691C149.841 163.565 150.085 163.607 150.211 163.792C150.337 163.968 150.286 164.212 150.11 164.338C148.581 165.404 148.119 166.74 148.111 166.757C148.052 166.916 147.901 167.026 147.741 167.026V167.009Z" fill="#E0774F"/>
<path d="M124.979 136.172C124.979 136.172 127.801 136.508 131.489 140.162C135.176 143.816 141.72 153.535 141.72 153.535C141.72 153.535 139.914 161.902 133.505 171.814C133.505 171.814 124.5 160.028 123.727 154.619C122.954 149.209 124.97 136.172 124.97 136.172H124.979Z" fill="#536BCD"/>
<path d="M152.471 161.196C145.844 161.574 140.157 165.934 136.31 173.813C133.429 179.701 132.505 185.422 132.463 185.665C132.37 186.245 132.765 186.782 133.345 186.875C133.924 186.967 134.462 186.572 134.554 185.993C134.563 185.934 135.478 180.306 138.233 174.695C141.341 168.353 145.642 164.59 150.573 163.548C151.245 162.767 151.841 162.011 152.471 161.196Z" fill="#540BCB"/>
<path d="M174.312 185.59C174.254 185.338 172.859 179.323 169.558 173.284C168.088 170.604 166.232 168.202 164.493 166.396C164.098 167.009 163.787 167.622 163.367 168.218C169.491 174.88 172.204 185.9 172.246 186.06C172.355 186.547 172.792 186.883 173.279 186.883C173.355 186.883 173.439 186.875 173.514 186.858C174.086 186.732 174.438 186.161 174.312 185.59Z" fill="#540BCB"/>
<path d="M183.493 185.077H123.29C122.543 185.077 121.938 185.683 121.938 186.43V187.303C121.938 188.05 122.543 188.656 123.29 188.656H183.493C184.24 188.656 184.845 188.05 184.845 187.303V186.43C184.845 185.683 184.24 185.077 183.493 185.077Z" fill="#FC7160"/>
<path d="M127.371 188.647L127.421 189.554L128.698 212.579C128.824 214.838 130.689 216.602 132.949 216.602H173.84C176.099 216.602 177.964 214.838 178.09 212.579L179.249 191.545L179.409 188.647H127.371ZM133.957 213.637C133.957 213.637 133.889 213.637 133.856 213.637C132.806 213.637 131.924 212.814 131.873 211.747L131.025 194.586C130.975 193.485 131.815 192.553 132.915 192.503C134.015 192.444 134.939 193.292 134.998 194.393L135.847 211.554C135.897 212.654 135.057 213.587 133.957 213.637ZM143.818 213.637H143.768C142.693 213.637 141.811 212.78 141.785 211.697L141.357 194.535C141.332 193.435 142.197 192.528 143.297 192.503H143.348C144.423 192.503 145.305 193.359 145.33 194.443L145.759 211.604C145.784 212.705 144.919 213.612 143.818 213.637ZM155.671 211.646C155.671 212.747 154.78 213.637 153.68 213.637C152.579 213.637 151.689 212.747 151.689 211.646V194.485C151.689 193.385 152.579 192.494 153.68 192.494C154.78 192.494 155.671 193.385 155.671 194.485V211.646ZM165.583 211.697C165.557 212.772 164.675 213.637 163.6 213.637H163.55C162.449 213.612 161.584 212.696 161.609 211.604L162.038 194.443C162.063 193.343 162.979 192.486 164.071 192.503C165.171 192.528 166.036 193.443 166.011 194.535L165.583 211.697ZM175.495 211.747C175.444 212.814 174.562 213.637 173.512 213.637C173.479 213.637 173.445 213.637 173.411 213.637C172.319 213.587 171.471 212.654 171.53 211.554L172.378 194.393C172.429 193.292 173.361 192.452 174.461 192.503C175.562 192.553 176.402 193.485 176.351 194.586L175.503 211.747H175.495Z" fill="#FC7160"/>
<path d="M179.409 188.647L179.249 191.545L127.421 189.554L127.371 188.647H179.409Z" fill="#DB473C"/>
<path d="M85.4792 202.927C85.4792 202.927 80.5988 229.219 95.3156 232.604C110.032 235.981 127.387 231.958 136.282 226.834C142.843 223.054 136.282 209.135 136.282 209.135C136.282 209.135 104.035 205.909 85.4792 202.927Z" fill="#FC7160"/>
<path d="M145.832 367.038L146.622 373.002H156.567L155.769 367.038H145.832Z" fill="#FFA785"/>
<path d="M130.092 287.204C130.092 287.204 128.11 309.75 133.376 328.667C136.946 341.502 140.861 355.681 143.003 363.476C143.137 363.955 143.263 364.417 143.381 364.846C144.17 367.718 144.641 369.424 144.641 369.424L146.531 369.331L147.547 369.281L156.577 368.827L156.149 364.846L155.998 363.476L147.824 286.86L147.371 282.643L147.346 282.383L147.312 282.072L147.295 281.929L147.186 281.131L147.144 280.787L140.357 229.463L140.222 228.446L138.668 216.703L129.79 219.442L128.815 219.744L114.199 224.255C115.342 252.554 123.17 264.583 130.084 287.213L130.092 287.204Z" fill="#FC7160"/>
<path d="M138.341 283.147C138.358 283.492 138.652 283.752 138.996 283.735C139.206 283.727 142.247 283.55 145.599 282.811C146.178 282.685 146.766 282.542 147.346 282.374L147.312 282.064L147.296 281.921L147.186 281.123C143.255 282.248 138.988 282.492 138.921 282.492C138.576 282.509 138.316 282.803 138.333 283.147H138.341Z" fill="#DB473C"/>
<path d="M156.15 364.846H143.382C143.264 364.417 143.138 363.955 143.004 363.476H155.999L156.15 364.846Z" fill="#DB473C"/>
<path d="M140.355 229.454C138.44 229.286 136.667 228.682 135.046 227.648C131.963 225.666 130.006 222.466 128.822 219.736C127.654 217.056 127.226 214.83 127.192 214.654C127.142 214.385 127.318 214.124 127.587 214.074C127.856 214.024 128.116 214.2 128.167 214.469C128.167 214.511 128.612 216.754 129.796 219.433C130.939 222.012 132.77 224.994 135.592 226.808C137.003 227.716 138.549 228.262 140.221 228.438L140.355 229.446V229.454Z" fill="#DB473C"/>
<path d="M146.388 364.846H145.364C145.254 364.409 145.137 363.955 145.011 363.476C142.676 354.446 138.484 338.176 135.737 326.92C131.898 311.203 132.965 286.524 133.066 284.483C119.576 257.695 117.576 231.118 117.56 230.849C117.543 230.58 117.744 230.336 118.022 230.32C118.29 230.303 118.534 230.504 118.551 230.782C118.568 231.042 120.558 257.51 134.007 284.155C134.049 284.231 134.066 284.315 134.057 284.407C134.04 284.668 132.747 310.506 136.695 326.684C139.467 338.041 143.7 354.505 146.027 363.476C146.153 363.955 146.271 364.409 146.38 364.846H146.388Z" fill="#DB473C"/>
<path d="M180.4 388.71H144.196C143.927 388.223 143.776 387.526 143.717 386.702C143.491 383.636 144.465 378.756 144.944 375.673C145.003 375.312 145.053 374.976 145.087 374.674C145.154 374.161 145.196 373.733 145.196 373.414C145.196 370.902 147.422 371.33 147.422 371.33C151.084 374.926 155.234 369.533 157.653 371.305C157.653 371.305 158.695 372.053 161.567 374.64C164.44 377.227 169.329 378.932 173.487 380.671C178.863 382.914 180.383 385.157 180.677 386.702C180.913 387.929 180.383 388.71 180.383 388.71H180.4Z" fill="#EB9525"/>
<path d="M180.402 388.71H144.198C143.929 388.223 143.778 387.526 143.719 386.703H180.696C180.931 387.929 180.402 388.71 180.402 388.71Z" fill="#CA6B25"/>
<path d="M158.207 372.834C158.207 372.834 158.854 371.255 160.29 371.759C161.727 372.263 161.584 374.632 161.584 374.632C161.584 374.632 160.719 376.791 158.207 372.834Z" fill="white"/>
<path d="M157.764 379.949C157.437 379.949 157.168 379.68 157.168 379.353C157.168 375.757 159.419 373.809 159.512 373.733C159.764 373.523 160.142 373.548 160.352 373.8C160.562 374.052 160.536 374.43 160.284 374.64C160.2 374.707 158.361 376.337 158.361 379.353C158.361 379.68 158.092 379.949 157.764 379.949Z" fill="white"/>
<path d="M165.29 375.262C165.147 375.262 165.004 375.211 164.895 375.11C164.139 374.438 161.913 374.313 160.686 374.388C160.359 374.405 160.073 374.161 160.056 373.834C160.031 373.506 160.283 373.22 160.611 373.204C160.989 373.178 164.315 373.002 165.684 374.22C165.928 374.438 165.953 374.816 165.735 375.06C165.617 375.194 165.449 375.262 165.29 375.262Z" fill="white"/>
<path d="M158.746 374.917C158.074 374.917 157.125 374.867 155.856 374.699C153.958 374.439 152.53 373.565 152.135 372.423C151.891 371.734 152.051 371.037 152.572 370.491C153.067 369.97 153.697 369.701 154.445 369.693C154.462 369.693 154.479 369.693 154.495 369.693C156.999 369.693 160.023 372.624 160.359 372.952L159.745 373.573H159.779L160.031 374.842C160.031 374.842 159.603 374.926 158.746 374.926V374.917ZM154.487 370.978C154.487 370.978 154.47 370.978 154.453 370.978C154.059 370.978 153.756 371.112 153.504 371.373C153.319 371.566 153.269 371.759 153.353 371.986C153.546 372.54 154.453 373.195 156.033 373.414C157.578 373.624 158.603 373.641 159.183 373.615C158.183 372.691 156.007 370.978 154.495 370.978H154.487Z" fill="white"/>
<path d="M161.015 374.262L160.46 373.094C161.653 372.532 162.787 371.045 162.712 370.154C162.695 369.936 162.602 369.667 162.04 369.508C161.653 369.399 161.46 369.491 161.334 369.592C160.712 370.07 160.511 371.708 160.536 372.624L159.242 372.658C159.242 372.347 159.2 369.608 160.536 368.567C160.897 368.29 161.502 368.012 162.392 368.264C163.694 368.634 163.955 369.541 163.997 370.045C164.123 371.633 162.527 373.54 161.006 374.262H161.015Z" fill="white"/>
<path d="M147.893 388.71H146.818C147.893 387.484 148.893 385.602 148.767 382.914C148.59 379.336 146.448 376.925 144.953 375.673C145.012 375.312 145.062 374.976 145.096 374.674C146.7 375.9 149.414 378.588 149.624 382.872C149.75 385.442 148.91 387.358 147.893 388.71Z" fill="#CA6B25"/>
<path d="M160.971 376.765C160.702 376.765 160.459 376.58 160.391 376.312C160.316 375.992 160.509 375.665 160.828 375.589L163.088 375.026C163.407 374.942 163.735 375.144 163.81 375.463C163.886 375.782 163.693 376.11 163.373 376.186L161.114 376.748C161.063 376.757 161.021 376.765 160.971 376.765Z" fill="white"/>
<path d="M163.229 378.084C162.96 378.084 162.716 377.899 162.649 377.63C162.574 377.311 162.767 376.984 163.086 376.908L165.346 376.345C165.665 376.261 165.992 376.463 166.068 376.782C166.144 377.101 165.95 377.429 165.631 377.504L163.372 378.067C163.321 378.076 163.279 378.084 163.229 378.084Z" fill="white"/>
<path d="M165.49 379.344C165.222 379.344 164.978 379.159 164.911 378.89C164.835 378.571 165.028 378.244 165.348 378.168L167.607 377.605C167.926 377.521 168.254 377.723 168.33 378.042C168.405 378.361 168.212 378.689 167.893 378.764L165.633 379.327C165.583 379.336 165.541 379.344 165.49 379.344Z" fill="white"/>
<path d="M167.959 380.512C167.69 380.512 167.447 380.327 167.38 380.058C167.304 379.739 167.497 379.411 167.816 379.336L170.076 378.773C170.395 378.697 170.723 378.89 170.798 379.21C170.874 379.529 170.681 379.856 170.362 379.932L168.102 380.495C168.052 380.503 168.001 380.512 167.959 380.512Z" fill="white"/>
<path d="M170.631 381.511C170.362 381.511 170.119 381.327 170.052 381.058C169.976 380.739 170.169 380.411 170.488 380.335L172.748 379.773C173.067 379.689 173.395 379.89 173.47 380.209C173.546 380.529 173.353 380.856 173.034 380.932L170.774 381.495C170.724 381.503 170.673 381.511 170.631 381.511Z" fill="white"/>
<path d="M89.1661 367.038L88.7461 373.002H98.6833L99.1033 367.038H89.1661Z" fill="#FFA785"/>
<path d="M86.813 285.13C86.8298 285.558 86.8382 285.995 86.855 286.423C86.855 286.448 86.855 286.465 86.855 286.49C86.8718 286.969 86.8802 287.456 86.9054 287.944C86.9306 288.649 86.9559 289.363 86.9811 290.077L88.1906 362.796L88.2158 364.165L88.2999 369.432H99.5223C99.5223 369.432 99.7239 367.458 100.093 364.165C100.144 363.728 100.194 363.275 100.245 362.796C101.454 351.96 104.016 330.187 106.662 315.336C110.064 296.184 107.259 287.692 107.259 287.692C107.259 287.692 112.475 240.576 112.861 228.346L94.9611 224.742L93.8354 224.515L84.9062 216.695C84.9062 216.695 85.5446 223.902 85.4606 227.438C85.4606 227.758 85.5614 229.118 85.5614 229.463C85.3598 238.921 85.9898 258.426 86.8214 285.138L86.813 285.13Z" fill="#FC7160"/>
<path d="M86.8131 285.13C86.8299 285.558 86.8383 285.995 86.8551 286.423C88.1823 286.776 89.6103 286.986 90.9795 287.12C94.3983 287.456 97.4307 287.255 97.6407 287.246C97.9767 287.221 98.2371 286.927 98.2119 286.583C98.1867 286.238 97.8927 285.978 97.5483 286.003C97.4727 286.003 91.3239 286.398 86.8047 285.121L86.8131 285.13Z" fill="#DB473C"/>
<path d="M100.238 362.796C100.179 363.275 100.128 363.728 100.086 364.165H88.2088L88.1836 362.796H100.238Z" fill="#DB473C"/>
<path d="M99.5878 214.654C99.5374 214.948 98.4622 220.508 94.951 224.75C94.0522 225.842 92.9854 226.85 91.7254 227.648C90.0958 228.69 87.475 229.303 85.543 229.463C85.543 229.118 85.543 228.799 85.543 228.48C87.2734 228.32 89.7262 227.749 91.1794 226.817C92.179 226.178 93.0526 225.389 93.817 224.524C97.4542 220.408 98.5882 214.544 98.605 214.477C98.6554 214.208 98.9158 214.032 99.1846 214.082C99.4534 214.133 99.6298 214.393 99.5794 214.662L99.5878 214.654Z" fill="#DB473C"/>
<path d="M98.5816 364.157C98.6404 363.72 98.6908 363.267 98.7496 362.788C100.572 348.306 104.428 317.386 105.327 308.406C106.461 297.075 105.276 287.944 105.159 287.079L111.518 232.848C111.551 232.579 111.358 232.327 111.081 232.294C110.812 232.269 110.56 232.462 110.526 232.731L104.168 287.02C104.168 287.062 104.168 287.104 104.168 287.146C104.184 287.238 105.52 296.57 104.344 308.297C103.445 317.293 99.5644 348.356 97.75 362.771C97.6912 363.241 97.6324 363.703 97.582 364.14H98.5816V364.157Z" fill="#DB473C"/>
<path d="M101.725 386.45C101.725 386.534 101.725 386.618 101.725 386.694C101.725 387.064 101.7 387.4 101.683 387.685C101.641 388.315 101.599 388.702 101.599 388.702H80.6744C80.6744 388.702 80.5736 387.895 80.6492 386.694C80.7836 384.552 81.4976 381.175 84.3872 378.949C88.3436 375.892 86.8148 376.53 87.6296 375.136C87.722 374.984 88.436 372.616 88.5116 372.448C89.192 371.003 89.822 370.314 93.5684 370.314C98.5412 370.314 98.978 372.725 99.5072 373.993C99.7256 374.522 100.028 375.631 100.33 376.95C100.456 377.479 100.582 378.042 100.708 378.622C101.011 380.066 101.305 381.57 101.498 382.771C101.708 384.056 101.75 385.384 101.733 386.45H101.725Z" fill="#EB9525"/>
<path d="M101.724 386.451C101.724 386.535 101.724 386.619 101.724 386.694C101.724 387.064 101.698 387.4 101.682 387.685C100.665 386.971 99.9344 386.022 99.506 384.871C98.2124 381.343 100.203 377.11 100.287 376.933L100.329 376.95C100.455 377.479 100.581 378.042 100.707 378.622C100.237 380.058 99.6908 382.486 100.447 384.527C100.724 385.275 101.152 385.913 101.732 386.451H101.724Z" fill="#CA6B25"/>
<path d="M101.725 386.694C101.7 387.887 101.599 388.702 101.599 388.702H80.6744C80.6744 388.702 80.5736 387.895 80.6492 386.694H101.716H101.725Z" fill="#CA6B25"/>
<path d="M91.361 373.38C91.277 373.38 91.193 373.363 91.1174 373.33C90.5882 373.086 85.9262 370.919 85.5566 368.659C85.481 368.206 85.5398 367.542 86.2202 366.912C86.867 366.316 87.497 366.324 87.917 366.433C90.0254 366.988 91.6298 371.666 91.9322 372.599C92.0078 372.826 91.9322 373.069 91.7642 373.229C91.655 373.33 91.5122 373.38 91.3694 373.38H91.361ZM87.4802 367.567C87.3626 367.567 87.2198 367.618 87.035 367.786C86.7242 368.071 86.7158 368.298 86.741 368.466C86.8922 369.424 88.673 370.684 90.2858 371.574C89.5466 369.751 88.4798 367.819 87.6146 367.584C87.5726 367.576 87.5306 367.567 87.4802 367.567Z" fill="white"/>
<path d="M92.3786 373.38C92.2358 373.38 92.093 373.33 91.9838 373.229C91.8074 373.069 91.7402 372.826 91.8158 372.599C92.1182 371.666 93.7142 366.988 95.831 366.433C96.251 366.324 96.881 366.316 97.5278 366.912C98.2082 367.534 98.267 368.206 98.1914 368.659C97.8302 370.927 93.1682 373.094 92.6306 373.33C92.555 373.363 92.471 373.38 92.387 373.38H92.3786ZM96.2594 367.567C96.209 367.567 96.167 367.576 96.125 367.584C95.2598 367.811 94.193 369.751 93.4538 371.574C95.075 370.684 96.8474 369.424 96.9986 368.466C97.0238 368.298 97.0154 368.071 96.7046 367.786C96.5198 367.618 96.377 367.567 96.2594 367.567Z" fill="white"/>
<path d="M91.8501 371.641C91.8501 371.641 90.8757 371.179 90.8001 372.515C90.7413 373.598 91.5057 373.834 91.8249 373.649C91.8249 373.649 92.4885 373.85 92.8161 373.321C93.1437 372.792 92.9253 371.112 91.8501 371.641Z" fill="white"/>
<path d="M87.5734 375.287C87.4474 375.287 87.3214 375.245 87.2206 375.169C86.9602 374.976 86.9014 374.598 87.0946 374.338C88.9762 371.809 91.8742 372.364 92.0002 372.389C92.3194 372.456 92.5294 372.767 92.4706 373.094C92.4034 373.414 92.0926 373.624 91.7734 373.565C91.6726 373.548 89.4802 373.153 88.0606 375.06C87.943 375.22 87.7666 375.304 87.5818 375.304L87.5734 375.287Z" fill="white"/>
<path d="M96.7108 375.892C96.484 375.892 96.2656 375.766 96.1648 375.539C95.1988 373.414 91.822 372.901 91.7884 372.893C91.4608 372.842 91.234 372.54 91.2844 372.212C91.3348 371.885 91.6372 371.658 91.9648 371.708C92.1328 371.734 96.022 372.33 97.2568 375.043C97.3912 375.346 97.2568 375.698 96.9628 375.833C96.8788 375.866 96.8032 375.883 96.7192 375.883L96.7108 375.892Z" fill="white"/>
<path d="M94.249 376.841C94.1986 376.841 94.1482 376.841 94.0978 376.824C91.435 376.135 89.2678 376.715 89.251 376.723C88.9318 376.807 88.6042 376.622 88.5202 376.303C88.4362 375.984 88.621 375.656 88.9402 375.572C89.041 375.547 91.4434 374.9 94.4086 375.665C94.7278 375.749 94.921 376.076 94.837 376.396C94.7698 376.664 94.5262 376.841 94.2574 376.841H94.249Z" fill="white"/>
<path d="M93.359 378.731C93.3086 378.731 93.2582 378.731 93.2078 378.714C90.5618 378.025 88.3778 378.605 88.3526 378.613C88.0334 378.697 87.7058 378.512 87.6218 378.193C87.5378 377.874 87.7226 377.546 88.0334 377.462C88.1342 377.437 90.5366 376.79 93.5018 377.555C93.821 377.639 94.0142 377.966 93.9302 378.286C93.863 378.554 93.6194 378.731 93.3506 378.731H93.359Z" fill="white"/>
<path d="M92.3083 380.881C92.2579 380.881 92.2075 380.881 92.1571 380.864C89.5111 380.176 87.3271 380.755 87.3019 380.764C86.9827 380.848 86.6551 380.663 86.5711 380.344C86.4871 380.024 86.6719 379.697 86.9827 379.613C87.0835 379.588 89.4859 378.941 92.4511 379.705C92.7703 379.789 92.9635 380.117 92.8795 380.436C92.8123 380.705 92.5687 380.881 92.2999 380.881H92.3083Z" fill="white"/>
<path d="M80.0711 153.468C80.8691 155.324 81.6335 157.256 82.3391 159.188C82.4399 159.449 82.5323 159.709 82.6247 159.97C85.0019 166.564 85.9763 166.958 86.6399 171.368C88.0091 180.508 86.3879 193.83 85.4807 202.927C85.4807 202.927 110.941 212.016 134.873 201.592C134.394 198.223 131.185 187.53 129.497 177.215C129.362 176.392 129.253 175.669 129.178 175.056C129.161 174.896 129.136 174.745 129.127 174.602C129.127 174.586 129.127 174.56 129.127 174.544C129.127 174.544 129.261 174.409 129.488 174.166C130.479 173.107 133.218 169.94 134.192 166.429C135.394 162.12 130.538 153.947 128.867 145.085C127.187 136.223 128.094 133.669 113.873 132.073L98.7947 129.352C98.7947 129.352 93.6371 130.67 88.1603 132.493C79.7855 135.282 76.5935 145.345 80.0711 153.451V153.468Z" fill="#536BCD"/>
<path d="M89.3872 199.71C89.3872 199.71 89.3452 199.71 89.3284 199.71C89.1184 199.676 88.9672 199.475 89.0008 199.265C89.0344 199.072 91.9828 180.029 89.8324 169.966C88.3204 162.893 86.2372 158.147 86.212 158.096C86.128 157.903 86.212 157.668 86.4136 157.584C86.6068 157.5 86.842 157.584 86.926 157.786C86.9512 157.836 89.068 162.649 90.5884 169.806C92.764 180.012 89.7904 199.198 89.7652 199.391C89.7316 199.584 89.572 199.718 89.3788 199.718L89.3872 199.71Z" fill="#143793"/>
<path d="M131.763 171.721C131.671 171.721 131.578 171.688 131.511 171.629C131.352 171.486 131.335 171.242 131.469 171.074C135.678 166.236 134.418 162.338 131.839 156.484C129.21 150.511 127.362 139.423 127.345 139.306C127.311 139.096 127.454 138.894 127.664 138.86C127.874 138.827 128.076 138.97 128.109 139.18C128.126 139.289 129.966 150.284 132.553 156.164C135.174 162.12 136.551 166.404 132.057 171.578C131.982 171.671 131.872 171.713 131.763 171.713V171.721Z" fill="#143793"/>
<path d="M109.143 143.094C109.626 143.094 110.017 142.703 110.017 142.22C110.017 141.738 109.626 141.347 109.143 141.347C108.661 141.347 108.27 141.738 108.27 142.22C108.27 142.703 108.661 143.094 109.143 143.094Z" fill="#143793"/>
<path d="M112.225 147.983C113.301 147.983 114.225 147.588 114.989 146.815C117.408 144.354 117.341 138.835 117.341 138.608C117.341 138.382 117.156 138.205 116.929 138.214C116.703 138.214 116.526 138.398 116.535 138.625C116.535 138.676 116.602 144.035 114.418 146.252C113.805 146.874 113.091 147.185 112.225 147.185C107.563 147.185 98.8694 140.053 98.7854 139.978C98.609 139.835 98.357 139.86 98.2142 140.028C98.0714 140.204 98.0966 140.456 98.2646 140.599C98.6342 140.902 107.269 147.991 112.225 147.991V147.983Z" fill="#143793"/>
<path d="M121.299 133.056C128.733 149.965 129.077 146.101 134.605 158.424C137.956 165.9 130.203 173.947 131.169 178.634C139.93 221.021 149.825 256.116 149.825 256.116C128.842 250.555 108.985 262.937 87.1866 260.308C86.0526 184.582 96.1326 166.883 96.1326 166.883C100.593 150.931 89.3118 132.317 89.1774 132.09C91.059 131.174 93.2178 130.931 93.2178 130.931C98.661 140.75 100.484 148.949 100.484 148.949C108.573 148.319 121.66 147.109 121.66 147.109L116.704 132.342C116.704 132.342 120.509 132.149 121.299 133.056Z" fill="#540BCB"/>
<path d="M120.164 152.704L121.348 156.887L129.832 155.795L128.656 151.754L120.164 152.704Z" fill="#EB9525"/>
<path d="M85.885 194.124C85.885 194.124 84.4738 196.972 85.7002 199.324L90.6814 200.197L91.0174 195.132L85.885 194.124Z" fill="#540BCB"/>
<path d="M142.846 237.846C142.796 237.846 142.737 237.838 142.686 237.812C137.403 235.393 134.244 235.637 129.456 236.015C125.601 236.317 120.796 236.695 113.11 235.864C107.112 235.217 103.374 232.47 101.291 230.286C99.0231 227.909 98.1915 225.708 98.1579 225.616C98.0823 225.414 98.1831 225.187 98.3847 225.112C98.5863 225.036 98.8131 225.137 98.8887 225.338C98.9223 225.431 102.207 233.898 113.194 235.082C120.804 235.906 125.567 235.536 129.389 235.234C134.295 234.847 137.537 234.595 143.006 237.098C143.199 237.191 143.291 237.418 143.199 237.619C143.132 237.762 142.989 237.846 142.846 237.846Z" fill="#30599E"/>
<path d="M128.59 196.644C120.93 196.644 114.546 192.973 110.262 189.563C104.726 185.153 101.425 180.222 101.4 180.172C101.282 179.995 101.332 179.752 101.509 179.634C101.685 179.516 101.929 179.567 102.046 179.743C102.08 179.794 105.322 184.632 110.766 188.966C115.764 192.94 123.702 197.282 133.143 195.409C133.353 195.367 133.563 195.502 133.605 195.72C133.647 195.93 133.513 196.14 133.294 196.182C131.682 196.501 130.111 196.644 128.59 196.644Z" fill="#30599E"/>
<path d="M111.907 125.278C111.907 125.278 116.166 128.78 119.282 124.454C119.282 124.454 125.238 124.774 124.717 119.171C124.717 119.171 129.009 117.365 125.809 109.964C125.809 109.964 130.11 107.797 127.044 101.27C127.044 101.27 129.681 97.0116 127.64 92.652C125.213 87.4692 119.937 88.6536 119.937 88.6536C119.937 88.6536 119.669 85.0836 114.301 83.8068C109.143 82.5804 108.665 85.9824 108.665 85.9824C108.665 85.9824 104.431 82.4376 100.407 84.0252C96.3837 85.6128 95.8293 88.4604 95.8293 88.4604C95.8293 88.4604 91.6461 87.3684 88.7061 90.9048C85.7661 94.4496 86.9757 98.2128 86.9757 98.2128C86.9757 98.2128 83.7837 99.162 83.9265 103.765C84.0693 108.368 85.8837 109.066 85.8837 109.066C85.8837 109.066 82.5153 114.845 88.2525 117.533C88.2525 117.533 92.3517 123.522 99.1305 122.237C105.909 120.952 111.924 125.269 111.924 125.269L111.907 125.278Z" fill="#540BCB"/>
<path d="M113.712 133.577C108.723 142.38 98.5924 130.973 98.332 128.478C100.356 122.514 99.55 116.609 99.55 116.609L113.948 122.01C113.906 122.43 113.864 122.858 113.822 123.278C113.628 125.244 113.435 127.252 113.452 129.377C113.452 130.385 113.595 132.493 113.721 133.568L113.712 133.577Z" fill="#FFA785"/>
<path d="M113.445 129.385C105.868 127.579 101.047 119.666 101.047 119.666L113.815 123.287C113.622 125.252 113.428 127.26 113.445 129.385Z" fill="#540BCB"/>
<path d="M117.281 111.317C117.281 111.317 118.44 107.772 121.33 108.604C124.22 109.444 124.236 119.087 118.726 118.734L117.281 111.317Z" fill="#E0774F"/>
<path d="M114.467 121.388C114.156 118.751 116.046 116.348 118.684 116.038C121.321 115.727 123.724 117.617 124.035 120.254C124.345 122.892 122.455 125.294 119.818 125.605C117.18 125.916 114.778 124.026 114.467 121.388ZM115.181 121.304C115.45 123.547 117.491 125.16 119.734 124.891C121.977 124.622 123.589 122.581 123.321 120.338C123.052 118.096 121.011 116.483 118.768 116.752C116.525 117.02 114.912 119.062 115.181 121.304Z" fill="white"/>
<path d="M99.3402 117.768C100.844 121.624 110.848 126.109 114.964 124.194C117.459 123.035 119.66 120.708 120.878 115.559C120.878 115.534 120.886 115.5 120.895 115.475C120.962 115.172 121.029 114.87 121.096 114.576C121.205 114.038 121.306 113.518 121.382 113.022C121.399 112.904 121.415 112.787 121.432 112.669C121.474 112.358 121.508 112.056 121.533 111.77C121.567 111.409 121.592 111.073 121.6 110.754C121.735 105.596 122.003 99.8088 117.283 96.6084C112.57 93.408 105.229 92.5596 101.029 97.1964C101.029 97.1964 97.9206 101.237 98.0802 108.679C98.2398 116.13 98.2482 114.988 99.3318 117.768H99.3402Z" fill="#FFA785"/>
<path d="M118.549 110.242C118.381 110.258 118.23 110.132 118.222 109.956C118.222 109.872 118.155 109.62 118.003 109.528C117.861 109.444 117.642 109.494 117.491 109.561C117.163 109.687 116.735 110.158 116.609 110.317C116.5 110.452 116.307 110.468 116.172 110.359C116.038 110.25 116.021 110.057 116.13 109.922C116.189 109.847 116.727 109.2 117.264 108.982C117.684 108.814 118.045 108.822 118.331 108.998C118.776 109.276 118.835 109.838 118.835 109.897C118.852 110.065 118.726 110.208 118.558 110.225L118.549 110.242Z" fill="#540BCB"/>
<path d="M110.925 109.066C110.866 109.788 110.48 110.351 110.068 110.309C109.656 110.275 109.371 109.662 109.43 108.94C109.488 108.217 109.875 107.663 110.286 107.697C110.698 107.73 110.984 108.343 110.925 109.066Z" fill="#540BCB"/>
<path d="M104.986 96.2641C104.986 96.2641 102.642 104.336 100.324 105.974C98.0055 107.612 95.9727 103.706 95.9727 103.706C95.9727 103.706 100.567 91.3333 104.986 96.2641Z" fill="#540BCB"/>
<path d="M115.005 96.3984C115.005 96.3984 110.544 103.093 104.74 101.623C98.9357 100.153 102.749 95.2896 102.749 95.2896C102.749 95.2896 113.434 90.7284 114.996 96.3984H115.005Z" fill="#540BCB"/>
<path d="M113.453 95.8693C113.453 95.8693 116.451 104.42 122.079 102.858C127.707 101.296 119.618 92.9293 115.847 93.3325C112.075 93.7357 113.453 95.8693 113.453 95.8693Z" fill="#540BCB"/>
<path d="M120.894 115.475C120.961 115.172 121.029 114.87 121.096 114.576C121.205 114.038 121.306 113.518 121.381 113.022C121.398 112.904 121.415 112.787 121.432 112.669C121.348 112.669 121.264 112.661 121.171 112.652C119.231 112.585 117.643 113.165 117.61 113.946C117.584 114.702 119.038 115.374 120.894 115.475Z" fill="#E0774F"/>
<path d="M102.625 112.358C102.6 113.14 104.146 113.828 106.086 113.896C108.027 113.963 109.614 113.383 109.648 112.61C109.673 111.829 108.127 111.14 106.187 111.073C104.247 111.006 102.659 111.586 102.625 112.358Z" fill="#E0774F"/>
<path d="M110.939 103.009C110.939 103.009 108.906 102.371 107.319 103.816C106.428 104.622 107.117 105.563 108.318 104.916C109.15 104.462 109.62 104.278 110.637 104.244C111.653 104.219 111.443 103.102 110.939 103.009Z" fill="#540BCB"/>
<path d="M116.76 103.984C116.76 103.984 118.785 103.337 120.381 104.765C121.271 105.563 120.591 106.512 119.39 105.874C118.55 105.428 118.079 105.244 117.063 105.218C116.046 105.193 116.256 104.084 116.752 103.984H116.76Z" fill="#540BCB"/>
<path d="M99.9603 107.764C99.9603 107.764 98.2803 104.74 95.2227 106.025C92.1651 107.31 93.3579 117.869 99.3471 116.785L99.9603 107.755V107.764Z" fill="#FFA785"/>
<path d="M101.541 103.522C101.541 103.522 103.171 112.82 101.037 111.98C98.912 111.14 98.2148 105.546 98.2148 105.546L101.541 103.53V103.522Z" fill="#540BCB"/>
<path d="M94.9893 114.828C95.1573 115.03 95.2581 115.231 95.4345 115.433C93.3597 115.979 91.9905 118.087 92.4777 120.296C92.8893 122.161 94.5777 123.505 96.4845 123.497C98.9709 123.48 100.827 121.313 100.542 118.919C100.365 117.398 99.3657 116.164 98.0385 115.618C97.1565 115.349 97.0221 114.988 96.9969 114.618C99.1725 114.853 100.987 116.575 101.256 118.835C101.566 121.472 99.6765 123.875 97.0389 124.186C94.4013 124.496 91.9989 122.606 91.6881 119.969C91.4193 117.676 92.8809 115.559 94.9809 114.836L94.9893 114.828Z" fill="white"/>
<path d="M98.625 112.669C98.6586 112.82 98.5662 112.98 98.415 113.014C98.3898 113.014 98.373 113.014 98.3562 113.022C98.2218 113.022 98.1042 112.938 98.0706 112.804C98.0706 112.787 97.8186 111.787 97.113 110.872C96.5166 111.384 96.0462 111.863 96.0378 111.871C95.9874 111.93 95.9118 111.955 95.8446 111.955C95.769 111.955 95.6934 111.93 95.6346 111.871C95.5254 111.762 95.5254 111.577 95.6346 111.468C95.6598 111.443 96.1302 110.972 96.7434 110.443C96.2982 109.99 95.7186 109.612 94.971 109.452C94.8198 109.418 94.719 109.267 94.7526 109.116C94.7862 108.956 94.9374 108.864 95.0886 108.898C97.827 109.477 98.5998 112.552 98.625 112.678V112.669Z" fill="#540BCB"/>
<path d="M108.648 114.148C108.648 114.148 109.161 118.171 112.176 119.339C115.612 120.666 117.191 116.357 117.191 116.357L108.648 114.148Z" fill="white"/>
<path d="M113.226 120.935C113.352 120.926 113.436 120.91 113.453 120.901C113.612 120.868 113.713 120.708 113.68 120.548C113.646 120.389 113.486 120.288 113.327 120.322C113.276 120.33 112.235 120.54 111.546 119.708C111.386 119.507 111.017 119.583 111 119.969C111.722 120.943 112.772 120.969 113.226 120.927V120.935Z" fill="#E0774F"/>
<path d="M113.997 113.576C113.771 113.602 113.527 113.602 113.267 113.576C113.25 113.576 113.233 113.568 113.225 113.551C112.931 113.207 113.183 112.854 113.485 112.879C114.266 112.946 114.821 112.568 115.106 112.316C113.955 110.804 113.275 106.999 113.241 106.823C113.208 106.63 113.334 106.445 113.535 106.403C113.737 106.369 113.913 106.495 113.955 106.697C114.165 107.881 114.913 111.157 115.845 112.064C115.98 112.19 115.988 112.392 115.879 112.543C115.845 112.585 115.182 113.442 114.006 113.585L113.997 113.576Z" fill="#540BCB"/>
<path d="M98.6082 129.116C98.6082 129.116 95.3658 128.47 93.543 130.822C96.693 135.265 99.9354 139.474 104.085 141.338L108.781 136.853C108.781 136.853 101.985 134.576 98.6082 129.108V129.116Z" fill="#143793"/>
<path d="M113.444 129.385C113.444 129.385 114.88 129.133 116.695 132.342C116.115 135.223 114.645 138.155 112.537 141.112L108.773 136.853C108.773 136.853 112.889 133.543 113.435 129.377L113.444 129.385Z" fill="#143793"/>
<path d="M92.9141 149.772L90.1841 154.854L87.4793 159.995C86.5889 161.717 85.6985 163.43 84.8165 165.152C83.9429 166.874 83.0777 168.596 82.2293 170.318C80.5409 173.762 78.8945 177.215 77.4329 180.634C76.7021 182.339 76.0133 184.036 75.4253 185.665C75.1397 186.48 74.8709 187.278 74.6609 188.017C74.4509 188.748 74.2829 189.437 74.2073 189.882L73.9217 186.866C74.3837 188.563 74.9129 190.176 75.5177 191.68C76.1225 193.183 76.8197 194.569 77.6681 195.896C78.0881 196.568 78.5501 197.224 79.0541 197.887C79.5581 198.551 80.0957 199.231 80.6837 199.912C81.8513 201.281 83.1785 202.7 84.5309 204.179C86.9249 206.808 86.7485 210.874 84.1277 213.268C81.6917 215.494 77.9789 215.477 75.5513 213.36C74.0393 212.041 72.4937 210.655 70.9145 209.118C70.1249 208.345 69.3269 207.53 68.5457 206.657C67.7645 205.783 67.0001 204.859 66.2693 203.885C64.8077 201.944 63.5225 199.819 62.4557 197.686C61.3805 195.544 60.5405 193.385 59.8013 191.26C59.4905 190.369 59.3897 189.454 59.4821 188.572L59.5157 188.236C59.6669 186.724 59.9189 185.48 60.1877 184.304C60.4649 183.137 60.7673 182.045 61.0949 180.978C61.7417 178.861 62.4473 176.87 63.1781 174.905C64.6649 171.007 66.2525 167.261 67.9325 163.565C68.7641 161.717 69.6125 159.894 70.4861 158.071C71.3513 156.257 72.2333 154.451 73.1321 152.653C74.0225 150.856 74.9381 149.075 75.8705 147.294L77.2733 144.631C77.5085 144.186 77.7437 143.741 77.9873 143.304L78.7265 141.952C80.8769 138.029 85.7909 136.592 89.7137 138.734C93.6197 140.868 95.0561 145.748 92.9561 149.663L92.9057 149.755L92.9141 149.772Z" fill="#FFA785"/>
<path d="M87.596 136.802C87.596 136.802 82.0352 134.593 77.3564 143.018C72.6776 151.435 68.9648 159.34 68.9648 159.34L84.3284 165.925C84.3284 165.925 93.6188 151.729 94.3664 149.436C95.114 147.143 94.8704 138.608 87.596 136.802Z" fill="#536BCD"/>
<path d="M85.0355 165.278C84.9767 165.278 84.9095 165.262 84.8507 165.236C84.6575 165.136 84.5903 164.9 84.6911 164.707L92.2931 150.419C92.3939 150.226 92.6291 150.158 92.8223 150.259C93.0155 150.36 93.0827 150.595 92.9819 150.788L85.3799 165.077C85.3127 165.211 85.1783 165.287 85.0355 165.287V165.278Z" fill="#143793"/>
<path d="M91.0142 154.031C90.8462 154.031 90.6866 153.922 90.6362 153.745C90.5774 153.535 90.695 153.325 90.905 153.266L94.2482 152.326C94.4582 152.267 94.6682 152.384 94.727 152.594C94.7858 152.804 94.6682 153.014 94.4582 153.073L91.115 154.014C91.115 154.014 91.0478 154.031 91.0058 154.031H91.0142Z" fill="#143793"/>
<path d="M74.2655 188.689C74.2655 188.689 74.1815 188.689 74.1395 188.672C72.8711 188.252 68.3771 187.958 68.3351 187.958C68.1167 187.942 67.9571 187.757 67.9739 187.547C67.9907 187.328 68.1671 187.169 68.3855 187.186C68.5703 187.194 73.0223 187.488 74.3915 187.942C74.5931 188.009 74.7107 188.227 74.6351 188.437C74.5847 188.605 74.4251 188.706 74.2655 188.706V188.689Z" fill="#E0774F"/>
<path d="M73.6606 188.538C73.5598 188.538 73.459 188.496 73.3834 188.42C72.6862 187.715 70.9054 186.203 70.8886 186.186C70.7206 186.043 70.7038 185.8 70.8466 185.64C70.9894 185.472 71.233 185.455 71.3926 185.598C71.4682 185.657 73.2154 187.144 73.9378 187.883C74.089 188.034 74.089 188.286 73.9378 188.437C73.8622 188.513 73.7614 188.546 73.6606 188.546V188.538Z" fill="#E0774F"/>
<path d="M99.3153 212.218C99.3321 212.864 98.2905 212.89 97.0809 212.797C96.5937 212.764 96.0729 212.705 95.5857 212.671C95.3757 212.654 95.1825 212.638 94.9893 212.638C93.2253 212.562 92.4189 212.276 90.9741 212.537C90.9741 212.537 92.7129 212.822 93.6285 213.377C93.7797 213.469 93.9644 213.57 94.1576 213.688C94.502 213.889 94.8969 214.116 95.2749 214.343C95.93 214.738 96.5601 215.149 96.8372 215.485C97.3665 216.115 95.552 216.821 93.8048 216.292C93.1833 216.098 92.6625 215.855 92.2005 215.628C91.7217 215.393 91.3017 215.183 90.9069 215.099C90.8565 215.09 90.8061 215.082 90.7641 215.074C90.5289 215.04 90.3021 215.057 90.0669 215.141C90.0669 215.141 90.5037 215.401 91.0245 215.746C91.0497 215.762 91.0833 215.788 91.1085 215.804C91.4361 216.023 91.7805 216.266 92.066 216.493C92.5533 216.888 93.2336 217.896 93.4688 218.711C93.6116 219.181 93.6032 219.584 93.3176 219.761C93.0152 219.954 92.3937 219.702 91.6629 219.332C90.5793 218.786 89.2521 217.972 88.3617 217.921C86.8665 217.846 84.1701 217.602 80.4153 216.98C77.3829 216.476 74.9721 213.587 74.3841 212.251C74.2413 211.932 74.0312 211.579 74.0312 211.579C75.9212 208.522 78.3405 206.018 81.3561 204.145C81.3561 204.145 82.0785 203.809 83.0109 203.456C83.9097 203.12 85.0101 202.768 85.8333 202.692C86.1777 202.658 86.4969 202.692 86.7909 202.751C87.1857 202.826 87.4965 203.104 87.8157 203.129C88.7985 203.204 88.8153 203.381 88.8153 203.381C89.0001 204.422 88.9748 204.968 89.0925 205.892L89.1429 206.304C89.1429 206.304 89.1428 206.388 89.1512 206.388C89.1764 206.38 89.0925 206.405 89.3361 206.338C89.9409 206.178 91.1589 205.918 92.5869 205.96C94.6533 206.018 96.4425 207.228 97.4757 207.614C98.5089 208.001 97.2405 209.32 95.5017 209.152C93.7629 208.984 92.3685 209.135 91.7049 209.286C91.7049 209.286 93.8217 209.345 95.1405 209.874C95.6949 210.101 96.518 210.37 97.2824 210.68C97.6521 210.832 98.0133 211 98.3241 211.168C98.8869 211.478 99.2901 211.831 99.2985 212.218H99.3153Z" fill="#FFA785"/>
</svg>
