<svg width="97" height="16" viewBox="0 0 97 16" fill="none" xmlns="http://www.w3.org/2000/svg">
<g clip-path="url(#clip0_17_2241)">
<path d="M8.22595 0.330078L10.3995 4.70694L15.2598 5.4088L11.7429 8.81569L12.5732 13.6264L8.22595 11.3551L3.87878 13.6264L4.70902 8.81569L1.19208 5.4088L6.05237 4.70694L8.22595 0.330078Z" fill="#FFBA19"/>
<path d="M28.5031 0.330078L30.6766 4.70694L35.5369 5.4088L32.02 8.81569L32.8503 13.6264L28.5031 11.3551L24.1558 13.6264L24.9861 8.81569L21.4692 5.4088L26.3295 4.70694L28.5031 0.330078Z" fill="#FFBA19"/>
<path d="M48.7802 0.330078L50.9537 4.70694L55.814 5.4088L52.2971 8.81569L53.1273 13.6264L48.7802 11.3551L44.4329 13.6264L45.2632 8.81569L41.7463 5.4088L46.6066 4.70694L48.7802 0.330078Z" fill="#FFBA19"/>
<path d="M69.0573 0.330078L71.2305 4.70694L76.0913 5.4088L72.5745 8.81569L73.4047 13.6264L69.0573 11.3551L64.71 13.6264L65.5403 8.81569L62.0234 5.4088L66.8836 4.70694L69.0573 0.330078Z" fill="#FFBA19"/>
<path d="M89.3346 0.330078L91.5081 4.70694L96.3682 5.4088L92.8514 8.81569L93.6816 13.6264L89.3346 11.3551L84.9869 13.6264L85.8171 8.81569L82.3003 5.4088L87.1611 4.70694L89.3346 0.330078Z" fill="#FFBA19"/>
</g>
<defs>
<clipPath id="clip0_17_2241">
<rect width="95.9" height="14.7" fill="white" transform="translate(0.830078 0.330078)"/>
</clipPath>
</defs>
</svg>
