<svg width="33" height="33" viewBox="0 0 33 33" fill="none" xmlns="http://www.w3.org/2000/svg">
<path d="M15.5515 11.5425C16.992 12.2984 17.8277 11.8791 15.1836 9.38049C13.2355 7.54076 16.9977 6.58239 20.0667 6.66796C22.4883 6.73641 21.4244 5.41295 18.9144 5.45003C18.0045 5.46429 16.7752 5.56412 15.2235 5.98341C15.2235 5.98341 15.928 5.0336 19.6474 4.36331C20.8882 4.14083 20.5117 3.3536 18.9686 3.45343C18.0416 3.51333 16.3587 3.58178 14.5789 4.73125C14.5789 4.73125 15.677 3.53615 18.5008 2.64053C19.3964 2.35815 18.9686 1.79054 17.7849 1.96453C17.0433 2.07292 14.9041 2.66334 13.2897 3.78715C13.2897 3.78715 14.6502 2.36671 16.6354 1.76202C17.5596 1.4825 17.2629 0.692413 15.4346 1.16589C13.3211 1.71353 9.37064 4.54015 3.02429 11.0034C3.02429 11.0034 7.33125 5.68677 10.4716 3.28514C12.2144 1.95883 13.7888 1.10029 15.3148 0.703822C15.9509 0.538389 16.4957 0.498457 16.8893 0.586878C17.551 0.735197 17.6195 1.18586 17.6252 1.31992V1.45112L17.6822 1.49961C18.0815 1.43971 18.4181 1.44542 18.6919 1.50532C19.3822 1.65934 19.4535 2.10715 19.4592 2.24121C19.4677 2.4266 19.405 2.74321 18.96 2.9771L19.9241 3.03985C20.814 3.23951 20.8739 3.77289 20.8682 3.92976C20.8625 4.14368 20.7456 4.65995 19.733 4.84249L19.0485 4.97655C19.5191 4.97655 19.964 5.02504 20.3691 5.11631C21.4016 5.34735 21.9749 5.81227 21.9064 6.36562C21.838 6.92466 21.2133 7.18993 20.0553 7.15855C17.4797 7.08725 15.4061 7.7176 15.1522 8.33084C15.061 8.54762 15.3005 8.83855 15.5173 9.04106C17.4854 10.8979 17.5253 11.5739 17.3029 11.9875C17.2002 12.1814 16.9235 12.4838 16.2304 12.3298C15.9651 12.2699 15.6628 12.1529 15.3291 11.9761C14.4249 11.4997 13.5977 11.1746 12.879 11.0148C11.8236 10.781 10.9879 10.8893 10.3975 11.34C9.45906 12.0559 9.38775 13.4792 9.37634 13.4536C9.10537 12.769 9.47332 8.35937 15.5515 11.5482" fill="#683998"/>
<path d="M15.5515 11.5425C16.992 12.2984 17.8277 11.8791 15.1836 9.38049C13.2355 7.54076 16.9977 6.58239 20.0667 6.66796C22.4883 6.73641 21.4244 5.41295 18.9144 5.45003C18.0045 5.46429 16.7752 5.56412 15.2235 5.98341C15.2235 5.98341 15.928 5.0336 19.6474 4.36331C20.8882 4.14083 20.5117 3.3536 18.9686 3.45343C18.0416 3.51333 16.3587 3.58178 14.5789 4.73125C14.5789 4.73125 15.677 3.53615 18.5008 2.64053C19.3964 2.35815 18.9686 1.79054 17.7849 1.96453C17.0433 2.07292 14.9041 2.66334 13.2897 3.78715C13.2897 3.78715 14.6502 2.36671 16.6354 1.76202C17.5596 1.4825 17.2629 0.692413 15.4346 1.16589C13.3211 1.71353 9.37064 4.54015 3.02429 11.0034C3.02429 11.0034 7.33125 5.68677 10.4716 3.28514C12.2144 1.95883 13.7888 1.10029 15.3148 0.703822C15.9509 0.538389 16.4957 0.498457 16.8893 0.586878C17.551 0.735197 17.6195 1.18586 17.6252 1.31992V1.45112L17.6822 1.49961C18.0815 1.43971 18.4181 1.44542 18.6919 1.50532C19.3822 1.65934 19.4535 2.10715 19.4592 2.24121C19.4677 2.4266 19.405 2.74321 18.96 2.9771L19.9241 3.03985C20.814 3.23951 20.8739 3.77289 20.8682 3.92976C20.8625 4.14368 20.7456 4.65995 19.733 4.84249L19.0485 4.97655C19.5191 4.97655 19.964 5.02504 20.3691 5.11631C21.4016 5.34735 21.9749 5.81227 21.9064 6.36562C21.838 6.92467 21.2133 7.18993 20.0553 7.15855C17.4797 7.08725 15.4061 7.7176 15.1522 8.33084C15.061 8.54762 15.3005 8.83855 15.5173 9.04106C17.4854 10.8979 17.5253 11.5739 17.3029 11.9875C17.2002 12.1814 16.9235 12.4838 16.2304 12.3298C15.9651 12.2699 15.6628 12.1529 15.3291 11.9761C14.4249 11.4997 13.5977 11.1746 12.879 11.0148C11.8236 10.781 10.9879 10.8893 10.3975 11.34C9.45906 12.0559 9.38775 13.4792 9.37634 13.4536C9.10537 12.769 9.47332 8.35937 15.5515 11.5482" stroke="#683998" stroke-width="0.5"/>
<path d="M18.6349 21.5339C17.1945 20.7781 16.3588 21.1974 19.0028 23.696C20.951 25.5357 17.1888 26.4941 14.1197 26.4085C11.6981 26.34 12.762 27.6635 15.272 27.6264C16.1819 27.6122 17.4113 27.5123 18.9629 27.093C18.9629 27.093 18.2584 28.0428 14.539 28.7131C13.2983 28.9356 13.6748 29.7228 15.2179 29.623C16.1448 29.5631 17.8277 29.4947 19.6075 28.3452C19.6075 28.3452 18.5094 29.5403 15.6856 30.4359C14.79 30.7183 15.2179 31.2859 16.4016 31.1119C17.1431 31.0035 19.2824 30.4131 20.8968 29.2893C20.8968 29.2893 19.5362 30.7097 17.551 31.3144C16.6269 31.5939 16.9235 32.384 18.7518 31.9106C20.8654 31.3629 24.8158 28.5363 31.1622 22.073C31.1622 22.073 26.8552 27.3897 23.7148 29.7913C21.9721 31.1233 20.3976 31.9819 18.8716 32.3783C18.2356 32.5438 17.6908 32.5837 17.2972 32.4953C16.6354 32.347 16.567 31.8963 16.5613 31.7622V31.631L16.5042 31.5825C16.1049 31.6424 15.7683 31.6367 15.4945 31.5768C14.8043 31.4228 14.733 30.975 14.7273 30.8409C14.7187 30.6555 14.7815 30.3389 15.2264 30.1051L14.2652 30.0423C13.3753 29.8426 13.3154 29.3093 13.3211 29.1524C13.3268 28.9385 13.4437 28.4222 14.4563 28.2397L15.1408 28.1056C14.6702 28.1027 14.2253 28.0571 13.8202 27.9658C12.7877 27.7348 12.2144 27.2699 12.2828 26.7165C12.3513 26.1575 12.976 25.8922 14.134 25.9236C16.7096 25.9949 18.7832 25.3645 19.0371 24.7542C19.1283 24.5374 18.8888 24.2465 18.672 24.0439C16.7039 22.1871 16.664 21.5111 16.8864 21.0975C16.9891 20.9036 17.2658 20.6012 17.9589 20.7552C18.2242 20.8151 18.5265 20.9321 18.8602 21.1089C19.7644 21.5853 20.5916 21.9104 21.3103 22.0702C22.3657 22.304 23.2014 22.1957 23.7918 21.745C24.7302 21.0291 24.8015 19.6058 24.8101 19.6314C25.0811 20.316 24.7131 24.7256 18.6349 21.5368" fill="#F6AC0D"/>
<path d="M18.6349 21.5339C17.1945 20.7781 16.3588 21.1974 19.0028 23.696C20.951 25.5357 17.1888 26.4941 14.1197 26.4085C11.6981 26.34 12.762 27.6635 15.272 27.6264C16.1819 27.6122 17.4113 27.5123 18.9629 27.093C18.9629 27.093 18.2584 28.0428 14.539 28.7131C13.2983 28.9356 13.6748 29.7228 15.2179 29.623C16.1448 29.5631 17.8277 29.4947 19.6075 28.3452C19.6075 28.3452 18.5094 29.5403 15.6856 30.4359C14.79 30.7183 15.2179 31.2859 16.4016 31.1119C17.1431 31.0035 19.2824 30.4131 20.8968 29.2893C20.8968 29.2893 19.5362 30.7097 17.551 31.3144C16.6269 31.5939 16.9235 32.384 18.7518 31.9106C20.8654 31.3629 24.8158 28.5363 31.1622 22.073C31.1622 22.073 26.8552 27.3897 23.7148 29.7913C21.9721 31.1233 20.3976 31.9819 18.8716 32.3783C18.2356 32.5438 17.6908 32.5837 17.2972 32.4953C16.6354 32.347 16.567 31.8963 16.5613 31.7622V31.631L16.5042 31.5825C16.1049 31.6424 15.7683 31.6367 15.4945 31.5768C14.8043 31.4228 14.733 30.975 14.7273 30.8409C14.7187 30.6555 14.7815 30.3389 15.2264 30.1051L14.2652 30.0423C13.3753 29.8426 13.3154 29.3093 13.3211 29.1524C13.3268 28.9385 13.4437 28.4222 14.4563 28.2397L15.1408 28.1056C14.6702 28.1027 14.2253 28.0571 13.8202 27.9658C12.7877 27.7348 12.2144 27.2699 12.2828 26.7165C12.3513 26.1575 12.976 25.8922 14.134 25.9236C16.7096 25.9949 18.7832 25.3645 19.0371 24.7542C19.1283 24.5374 18.8888 24.2465 18.672 24.0439C16.7039 22.1871 16.664 21.5111 16.8864 21.0975C16.9891 20.9036 17.2658 20.6012 17.9589 20.7552C18.2242 20.8151 18.5265 20.9321 18.8602 21.1089C19.7644 21.5853 20.5916 21.9104 21.3103 22.0702C22.3657 22.304 23.2014 22.1957 23.7918 21.745C24.7302 21.0291 24.8015 19.6058 24.8101 19.6314C25.0811 20.316 24.7131 24.7256 18.6349 21.5368" stroke="#F6AC0D" stroke-width="0.5"/>
<path d="M12.0974 18.0798C12.8533 16.6394 12.4311 15.8037 9.93539 18.4478C8.09566 20.3959 7.13729 16.6337 7.22286 13.5675C7.29131 11.1459 5.96785 12.2098 6.00493 14.7198C6.01634 15.6297 6.11902 16.859 6.53831 18.4078C6.53831 18.4078 5.5885 17.7033 4.91821 13.9868C4.69573 12.746 3.9085 13.1225 4.00833 14.6656C4.06823 15.5898 4.13668 17.2755 5.28615 19.0524C5.28615 19.0524 4.09104 17.9543 3.19543 15.1334C2.91305 14.2378 2.34544 14.6656 2.51943 15.8493C2.62782 16.5909 3.21824 18.7301 4.34205 20.3417C4.34205 20.3417 2.92161 18.9811 2.31692 16.9959C2.03454 16.0718 1.24731 16.3684 1.72079 18.1968C2.26843 20.3103 5.0979 24.2607 11.5583 30.6042C11.5583 30.6042 6.23882 26.3001 3.84004 23.1569C2.50802 21.4141 1.64948 19.8397 1.25302 18.3166C1.08758 17.6805 1.04765 17.1357 1.13607 16.7421C1.28439 16.0804 1.73505 16.0119 1.86911 16.0062H2.00032L2.0488 15.9492C1.98891 15.5498 1.99461 15.2133 2.05451 14.9394C2.20853 14.2492 2.65634 14.1779 2.7904 14.1722C2.9758 14.1636 3.2924 14.2264 3.52629 14.6713L3.58904 13.7073C3.7887 12.8173 4.32208 12.7574 4.47896 12.7631C4.69288 12.7688 5.20914 12.8858 5.39169 13.8984L5.52575 14.5829C5.5286 14.1123 5.57423 13.6673 5.66551 13.2623C5.89654 12.2298 6.36147 11.6565 6.91481 11.7249C7.47386 11.7934 7.73912 12.418 7.70775 13.576C7.63644 16.1517 8.2668 18.2224 8.88004 18.4763C9.09681 18.5676 9.38775 18.328 9.59026 18.1112C11.4471 16.1431 12.1231 16.1032 12.5367 16.3257C12.7306 16.4283 13.033 16.705 12.8789 17.3981C12.819 17.6634 12.7021 17.9657 12.5253 18.2994C12.0489 19.2036 11.7238 20.0308 11.564 20.7496C11.3302 21.8049 11.4385 22.6406 11.8892 23.231C12.6051 24.1695 14.0284 24.2408 14.0027 24.2493C13.3182 24.5203 8.90571 24.1523 12.0974 18.0741" fill="#36AB9C"/>
<path d="M12.0974 18.0798C12.8533 16.6394 12.4311 15.8037 9.93539 18.4478C8.09566 20.3959 7.13729 16.6337 7.22286 13.5675C7.29131 11.1459 5.96785 12.2098 6.00493 14.7198C6.01634 15.6297 6.11902 16.859 6.53831 18.4078C6.53831 18.4078 5.5885 17.7033 4.91821 13.9868C4.69573 12.746 3.9085 13.1225 4.00833 14.6656C4.06823 15.5898 4.13668 17.2755 5.28615 19.0524C5.28615 19.0524 4.09104 17.9543 3.19543 15.1334C2.91305 14.2378 2.34544 14.6656 2.51943 15.8493C2.62782 16.5909 3.21824 18.7301 4.34205 20.3417C4.34205 20.3417 2.92161 18.9811 2.31692 16.9959C2.03454 16.0718 1.24731 16.3684 1.72079 18.1968C2.26843 20.3103 5.0979 24.2607 11.5583 30.6042C11.5583 30.6042 6.23882 26.3001 3.84004 23.1569C2.50802 21.4141 1.64948 19.8397 1.25302 18.3166C1.08758 17.6805 1.04765 17.1357 1.13607 16.7421C1.28439 16.0804 1.73505 16.0119 1.86911 16.0062H2.00032L2.0488 15.9492C1.98891 15.5498 1.99461 15.2133 2.05451 14.9394C2.20853 14.2492 2.65634 14.1779 2.7904 14.1722C2.9758 14.1636 3.2924 14.2264 3.52629 14.6713L3.58904 13.7073C3.7887 12.8173 4.32208 12.7574 4.47896 12.7631C4.69288 12.7688 5.20914 12.8858 5.39169 13.8984L5.52575 14.5829C5.5286 14.1123 5.57424 13.6673 5.66551 13.2623C5.89654 12.2298 6.36147 11.6565 6.91481 11.7249C7.47386 11.7934 7.73912 12.418 7.70775 13.576C7.63644 16.1517 8.2668 18.2224 8.88004 18.4763C9.09681 18.5676 9.38775 18.328 9.59026 18.1112C11.4471 16.1431 12.1231 16.1032 12.5367 16.3257C12.7306 16.4283 13.033 16.705 12.8789 17.3981C12.819 17.6634 12.7021 17.9657 12.5253 18.2994C12.0489 19.2036 11.7238 20.0308 11.564 20.7496C11.3302 21.8049 11.4385 22.6406 11.8892 23.231C12.6051 24.1695 14.0284 24.2408 14.0027 24.2493C13.3182 24.5203 8.90571 24.1523 12.0974 18.0741" stroke="#36AB9C" stroke-width="0.5"/>
<path d="M21.5358 14.2092C20.7799 15.6497 21.1992 16.4854 23.6978 13.8413C25.5376 11.8932 26.4959 15.6554 26.4104 18.7216C26.3419 21.1432 27.6654 20.0793 27.6283 17.5692C27.614 16.6594 27.5142 15.43 27.0949 13.8812C27.0949 13.8812 28.0447 14.5857 28.715 18.3023C28.9375 19.543 29.7247 19.1665 29.6249 17.6234C29.565 16.6964 29.4965 15.0136 28.3471 13.2366C28.3471 13.2366 29.5422 14.3347 30.4378 17.1557C30.7202 18.0513 31.2878 17.6234 31.1138 16.4397C31.0054 15.6981 30.415 13.5589 29.2912 11.9474C29.2912 11.9474 30.7116 13.3079 31.3163 15.2903C31.5958 16.2144 32.3859 15.9178 31.9124 14.0895C31.3648 11.9759 28.5353 8.02548 22.0749 1.68199C22.0749 1.68199 27.3944 5.9861 29.7932 9.12932C31.1252 10.8721 31.9837 12.4465 32.3802 13.9697C32.5456 14.6057 32.5856 15.1505 32.4971 15.5441C32.3488 16.2058 31.8982 16.2743 31.7641 16.28H31.6329L31.5844 16.3371C31.6443 16.7364 31.6386 17.0729 31.5787 17.3468C31.4247 18.037 30.9769 18.1083 30.8428 18.114C30.6574 18.1226 30.3408 18.0598 30.1069 17.6149L30.0442 18.579C29.8445 19.4689 29.3111 19.5288 29.1543 19.5231C28.9403 19.5174 28.4241 19.4004 28.2415 18.3878L28.1075 17.7033C28.1046 18.1739 28.059 18.6189 27.9677 19.0239C27.7367 20.0564 27.2718 20.6298 26.7184 20.5613C26.1594 20.4928 25.8941 19.8682 25.9255 18.7102C25.9968 16.1345 25.3664 14.0638 24.7532 13.8099C24.5364 13.7187 24.2455 13.9582 24.043 14.175C22.1861 16.1431 21.5101 16.183 21.0965 15.9606C20.9026 15.8579 20.6002 15.5812 20.7543 14.8881C20.8142 14.6228 20.9311 14.3205 21.108 13.9868C21.5843 13.0826 21.9094 12.2554 22.0692 11.5367C22.3031 10.4813 22.1947 9.64558 21.744 9.05516C21.0281 8.11676 19.6048 8.04545 19.6305 8.03689C20.315 7.76592 24.7275 8.13387 21.5358 14.2121" fill="#ED0E64"/>
<path d="M21.5358 14.2092C20.7799 15.6497 21.1992 16.4854 23.6978 13.8413C25.5376 11.8932 26.4959 15.6554 26.4104 18.7216C26.3419 21.1432 27.6654 20.0793 27.6283 17.5692C27.614 16.6594 27.5142 15.43 27.0949 13.8812C27.0949 13.8812 28.0447 14.5857 28.715 18.3023C28.9375 19.543 29.7247 19.1665 29.6249 17.6234C29.565 16.6964 29.4965 15.0136 28.3471 13.2366C28.3471 13.2366 29.5422 14.3347 30.4378 17.1557C30.7202 18.0513 31.2878 17.6234 31.1138 16.4397C31.0054 15.6981 30.415 13.5589 29.2912 11.9474C29.2912 11.9474 30.7116 13.3079 31.3163 15.2903C31.5958 16.2144 32.3859 15.9178 31.9124 14.0895C31.3648 11.9759 28.5353 8.02548 22.0749 1.68199C22.0749 1.68199 27.3944 5.9861 29.7932 9.12932C31.1252 10.8721 31.9837 12.4465 32.3802 13.9697C32.5456 14.6057 32.5856 15.1505 32.4971 15.5441C32.3488 16.2058 31.8982 16.2743 31.7641 16.28H31.6329L31.5844 16.3371C31.6443 16.7364 31.6386 17.0729 31.5787 17.3468C31.4247 18.037 30.9769 18.1083 30.8428 18.114C30.6574 18.1226 30.3408 18.0598 30.1069 17.6149L30.0442 18.579C29.8445 19.4689 29.3111 19.5288 29.1543 19.5231C28.9403 19.5174 28.4241 19.4004 28.2415 18.3878L28.1075 17.7033C28.1046 18.1739 28.059 18.6189 27.9677 19.0239C27.7367 20.0564 27.2718 20.6298 26.7184 20.5613C26.1594 20.4928 25.8941 19.8682 25.9255 18.7102C25.9968 16.1345 25.3664 14.0638 24.7532 13.8099C24.5364 13.7187 24.2455 13.9582 24.043 14.175C22.1861 16.1431 21.5101 16.183 21.0965 15.9606C20.9026 15.8579 20.6002 15.5812 20.7543 14.8881C20.8142 14.6228 20.9311 14.3205 21.108 13.9868C21.5843 13.0826 21.9094 12.2554 22.0692 11.5367C22.3031 10.4813 22.1947 9.64558 21.744 9.05516C21.0281 8.11676 19.6048 8.04545 19.6305 8.03689C20.315 7.76592 24.7275 8.13387 21.5358 14.2121" stroke="#ED0E64" stroke-width="0.5"/>
</svg>
