<svg width="65" height="80" viewBox="0 0 65 80" fill="none" xmlns="http://www.w3.org/2000/svg">
<path d="M62.9663 43.1963C62.9548 43.0955 62.9229 42.9981 62.8727 42.91C62.8224 42.8219 62.7548 42.7449 62.674 42.6837C62.5931 42.6225 62.5007 42.5783 62.4022 42.5538C62.3038 42.5293 62.2015 42.525 62.1013 42.5413C56.6788 43.4163 51.8101 46.9488 48.7351 52.2288C48.6363 52.0688 48.5313 51.9025 48.4126 51.7188C47.8717 50.8688 47.2732 50.0569 46.6213 49.2888C46.1019 48.6809 45.549 48.1025 44.9651 47.5563C49.6226 45.5625 52.1701 42.895 52.1701 39.97C52.1701 35.6413 46.4601 31.985 38.0026 30.2638C41.8538 29.6925 45.5313 28.6525 48.7526 27.2C53.5251 25.045 56.3776 22.3575 56.3776 20.0113C56.3676 13.9775 45.2726 9.25 31.1063 9.25C16.9401 9.25 5.84384 13.9775 5.84384 20.0113C5.84384 24.2788 11.3938 27.8863 19.6526 29.6363C9.13134 30.935 1.65259 35.0113 1.65259 39.9638C1.65259 45.2213 10.0776 49.4863 21.6163 50.4963C13.7213 52.3038 8.47009 55.8363 8.47009 59.9875C8.47009 66.0225 19.5663 70.75 33.7313 70.75C39.2313 70.75 44.2101 69.6538 47.4163 68.7338C47.5906 68.6833 47.7407 68.5714 47.8388 68.4188C51.3526 67.5438 54.5513 65.5638 57.1588 62.64C60.9651 58.3825 63.1476 52.4225 63.1476 46.2875C63.1466 45.2545 63.0861 44.2223 62.9663 43.1963ZM47.1476 52.5275C47.4576 53.01 47.6638 53.3475 47.8976 53.7875C47.2481 55.1235 46.7205 56.5154 46.3213 57.9463L38.0501 48.2238C37.9872 48.146 37.9094 48.0815 37.8212 48.0343C37.733 47.987 37.6362 47.9579 37.5366 47.9485C37.437 47.9392 37.3366 47.95 37.2411 47.9801C37.1457 48.0102 37.0573 48.0591 36.9811 48.1239C36.9049 48.1887 36.8424 48.2681 36.7973 48.3574C36.7522 48.4467 36.7255 48.5441 36.7186 48.6439C36.7118 48.7438 36.725 48.8439 36.7574 48.9386C36.7899 49.0332 36.8409 49.1204 36.9076 49.195L45.8901 59.75C45.653 60.9129 45.496 62.0906 45.4201 63.275C40.3938 61.21 36.5038 56.6075 34.6613 50.4925L34.2101 48.7713C33.8706 47.2443 33.6764 45.6886 33.6301 44.125C36.7838 44.2825 39.8363 45.4188 42.5051 47.4338L43.7151 48.4338C44.3437 49.0026 44.9345 49.6118 45.4838 50.2575C46.0895 50.9754 46.6454 51.7338 47.1476 52.5275ZM7.34384 20.0113C7.34384 14.9913 18.2251 10.75 31.1063 10.75C43.9876 10.75 54.8676 14.9913 54.8676 20.0113C54.8676 23.1825 44.8326 29.2738 31.1063 29.2738C18.2251 29.2738 7.34384 25.0313 7.34384 20.0113ZM3.14759 39.97C3.14759 34.95 14.0288 30.7075 26.9088 30.7075C39.7888 30.7075 50.6701 34.95 50.6701 39.97C50.6701 42.3525 48.1288 44.7063 43.6801 46.4638L43.4438 46.2675L43.4188 46.2475C40.2751 43.865 36.6263 42.6063 32.8688 42.6063C32.6699 42.6063 32.4792 42.6853 32.3385 42.8259C32.1979 42.9666 32.1188 43.1573 32.1188 43.3563C32.1177 45.2619 32.3227 47.1621 32.7301 49.0238C30.7051 49.205 28.5863 49.2313 26.9088 49.2313C20.4563 49.2313 14.4088 48.2088 9.86009 46.3563C5.59384 44.6125 3.14759 42.285 3.14759 39.97ZM9.97009 59.9875C9.97009 55.04 20.5388 50.8488 33.1726 50.7288L33.2138 50.8863L33.2213 50.9113C35.2551 57.6788 39.6638 62.7325 45.3651 64.865C45.362 65.8106 45.4088 66.7556 45.5051 67.6963C42.4426 68.4775 38.2726 69.25 33.7313 69.25C20.8513 69.25 9.97009 65.0088 9.97009 59.9875ZM56.0401 61.6413C53.6651 64.3025 50.7713 66.1125 47.6001 66.9325L59.7376 49.175C59.8498 49.0107 59.8922 48.8086 59.8554 48.6131C59.8186 48.4176 59.7056 48.2447 59.5413 48.1325C59.3771 48.0203 59.1749 47.9779 58.9794 48.0147C58.7839 48.0515 58.6111 48.1645 58.4988 48.3288L46.8738 65.3438C46.8738 65.0163 46.8738 64.6875 46.8738 64.3625V64.3525C46.9502 60.8577 47.788 57.4215 49.3288 54.2838C49.5388 53.8625 49.7651 53.4438 50.0013 53.0338C52.6988 48.3713 56.8763 45.1763 61.5601 44.1663C61.6201 44.8763 61.6501 45.5863 61.6501 46.2838C61.6476 52.0588 59.6038 57.6538 56.0401 61.6413Z" fill="#282828"/>
<path d="M22.0014 63.4313C19.4526 63.8863 16.9176 63.4163 15.2189 62.1713C14.1014 61.3513 13.4251 60.2676 13.2664 59.0363C13.2547 58.9378 13.2237 58.8425 13.175 58.7561C13.1263 58.6697 13.061 58.5937 12.9827 58.5327C12.9045 58.4717 12.815 58.4268 12.7193 58.4007C12.6236 58.3745 12.5236 58.3676 12.4253 58.3803C12.3269 58.3931 12.232 58.4252 12.1461 58.4749C12.0602 58.5245 11.985 58.5907 11.9249 58.6696C11.8648 58.7485 11.8209 58.8386 11.7959 58.9346C11.7708 59.0306 11.765 59.1306 11.7789 59.2288C11.9914 60.8763 12.8751 62.3126 14.3326 63.3813C15.8739 64.5063 17.8889 65.1063 20.0626 65.1063C20.8037 65.1052 21.5432 65.0386 22.2726 64.9076C22.3707 64.8914 22.4646 64.8559 22.5488 64.8031C22.633 64.7504 22.7059 64.6814 22.7633 64.6002C22.8206 64.519 22.8612 64.4273 22.8828 64.3302C22.9044 64.2332 22.9064 64.1328 22.8889 64.035C22.8713 63.9372 22.8345 63.8438 22.7805 63.7604C22.7266 63.6769 22.6565 63.605 22.5745 63.5488C22.4925 63.4926 22.4002 63.4533 22.3029 63.4331C22.2055 63.413 22.1052 63.4123 22.0076 63.4313H22.0014Z" fill="#282828"/>
<path d="M16.1539 43.4075C13.6051 43.8638 11.0701 43.3925 9.37137 42.1475C8.24637 41.3275 7.57762 40.2438 7.41762 39.0125C7.39007 38.817 7.28653 38.6403 7.12948 38.5206C6.97242 38.4009 6.77451 38.3481 6.5787 38.3734C6.38289 38.3987 6.20497 38.5003 6.08355 38.656C5.96213 38.8117 5.907 39.0089 5.93012 39.205C6.14762 40.8538 7.02262 42.29 8.48512 43.3575C10.0264 44.4825 12.0414 45.0825 14.2139 45.0825C14.9533 45.0817 15.6912 45.0152 16.4189 44.8838C16.6123 44.8462 16.7832 44.734 16.8945 44.5714C17.0059 44.4089 17.0488 44.209 17.014 44.015C16.9792 43.8211 16.8694 43.6486 16.7085 43.5349C16.5475 43.4213 16.3483 43.3755 16.1539 43.4075Z" fill="#282828"/>
<path d="M20.9426 23.3837C18.3976 23.84 15.8588 23.375 14.1601 22.125C13.0413 21.305 12.3663 20.22 12.2063 18.9887C12.1806 18.7915 12.0776 18.6125 11.92 18.4912C11.7624 18.3699 11.563 18.3162 11.3657 18.3419C11.1685 18.3675 10.9895 18.4705 10.8682 18.6282C10.7469 18.7858 10.6931 18.9852 10.7188 19.1825C10.9326 20.83 11.8163 22.2662 13.2738 23.3337C14.8151 24.4587 16.8301 25.06 19.0026 25.06C19.7416 25.0586 20.479 24.9921 21.2063 24.8612C21.3034 24.8439 21.396 24.8077 21.479 24.7545C21.562 24.7014 21.6337 24.6325 21.6901 24.5516C21.7464 24.4708 21.7863 24.3796 21.8074 24.2834C21.8286 24.1871 21.8305 24.0876 21.8132 23.9906C21.7959 23.8936 21.7596 23.8009 21.7065 23.7179C21.6534 23.6349 21.5844 23.5632 21.5036 23.5069C21.4227 23.4505 21.3316 23.4106 21.2353 23.3895C21.1391 23.3684 21.0396 23.3664 20.9426 23.3837Z" fill="#282828"/>
</svg>
