<svg width="36" height="80" viewBox="0 0 36 80" fill="none" xmlns="http://www.w3.org/2000/svg">
<g clip-path="url(#clip0_15_1191)">
<path d="M30.612 6.40002H5.588C4.91984 6.40002 4.25821 6.53163 3.64091 6.78733C3.0236 7.04303 2.46271 7.41781 1.99025 7.89027C1.51778 8.36274 1.143 8.92363 0.887305 9.54093C0.631609 10.1582 0.5 10.8199 0.5 11.488V65.312C0.5 66.6614 1.03606 67.9556 1.99025 68.9098C2.94443 69.864 4.23858 70.4 5.588 70.4H30.612C31.9614 70.4 33.2556 69.864 34.2098 68.9098C35.1639 67.9556 35.7 66.6614 35.7 65.312V11.488C35.7 10.8199 35.5684 10.1582 35.3127 9.54093C35.057 8.92363 34.6822 8.36274 34.2098 7.89027C33.7373 7.41781 33.1764 7.04303 32.5591 6.78733C31.9418 6.53163 31.2802 6.40002 30.612 6.40002ZM34.1 65.312C34.1 66.2371 33.7325 67.1243 33.0784 67.7784C32.4243 68.4325 31.5371 68.8 30.612 68.8H5.588C4.66293 68.8 3.77573 68.4325 3.12161 67.7784C2.46748 67.1243 2.1 66.2371 2.1 65.312V11.488C2.1 10.5629 2.46748 9.67576 3.12161 9.02163C3.77573 8.3675 4.66293 8.00002 5.588 8.00002H30.612C31.5371 8.00002 32.4243 8.3675 33.0784 9.02163C33.7325 9.67576 34.1 10.5629 34.1 11.488V65.312Z" fill="#282828"/>
<path d="M3.89221 60.6082H32.3082V12.9922H3.89221V60.6082ZM5.1082 14.2082H31.0922V59.3922H5.1082V14.2082Z" fill="#282828"/>
<path d="M25.3003 11.6475C25.5041 11.6538 25.7051 11.5992 25.8777 11.4907C26.0502 11.3821 26.1864 11.2245 26.2689 11.038C26.3513 10.8516 26.3762 10.6447 26.3404 10.444C26.3046 10.2433 26.2097 10.0579 26.0678 9.91149C25.9259 9.76506 25.7436 9.6643 25.5442 9.62213C25.3447 9.57996 25.1372 9.59827 24.9482 9.67474C24.7592 9.75122 24.5974 9.88237 24.4834 10.0514C24.3694 10.2204 24.3084 10.4196 24.3083 10.6235C24.304 10.7564 24.3265 10.8889 24.3744 11.0129C24.4224 11.137 24.4948 11.2502 24.5873 11.3457C24.6799 11.4412 24.7907 11.5172 24.9132 11.569C25.0357 11.6209 25.1673 11.6475 25.3003 11.6475ZM25.3003 10.0475C25.4219 10.0476 25.5406 10.0843 25.6412 10.1526C25.7417 10.2209 25.8195 10.3178 25.8644 10.4308C25.9094 10.5438 25.9194 10.6676 25.8932 10.7864C25.8671 10.9051 25.8059 11.0132 25.7176 11.0968C25.6294 11.1805 25.5181 11.2357 25.3981 11.2554C25.2781 11.2751 25.155 11.2584 25.0446 11.2075C24.9342 11.1565 24.8417 11.0736 24.7789 10.9695C24.7161 10.8654 24.6859 10.7449 24.6923 10.6235C24.7005 10.4678 24.7682 10.3213 24.8813 10.2141C24.9945 10.1069 25.1445 10.0473 25.3003 10.0475Z" fill="#282828"/>
<path d="M14.516 11.2318H21.716C21.7944 11.2319 21.872 11.216 21.9441 11.1851C22.0161 11.1541 22.0811 11.1088 22.135 11.0519C22.189 10.995 22.2307 10.9276 22.2577 10.854C22.2847 10.7804 22.2964 10.7021 22.292 10.6238C22.292 10.471 22.2313 10.3245 22.1233 10.2165C22.0153 10.1085 21.8688 10.0478 21.716 10.0478H14.516C14.4377 10.0434 14.3593 10.0551 14.2857 10.0821C14.2121 10.1091 14.1448 10.1508 14.0878 10.2047C14.0309 10.2586 13.9856 10.3236 13.9547 10.3957C13.9238 10.4677 13.9079 10.5454 13.908 10.6238C13.9033 10.7048 13.9159 10.7859 13.9448 10.8618C13.9737 10.9377 14.0183 11.0066 14.0758 11.064C14.1332 11.1214 14.2021 11.166 14.2779 11.195C14.3538 11.2239 14.4349 11.2364 14.516 11.2318ZM14.516 10.4318H21.716C21.7669 10.4318 21.8158 10.452 21.8518 10.488C21.8878 10.524 21.908 10.5728 21.908 10.6238C21.9085 10.678 21.8894 10.7306 21.8541 10.7718C21.8188 10.813 21.7697 10.84 21.716 10.8478H14.516C14.4566 10.8478 14.3996 10.8242 14.3576 10.7822C14.3156 10.7402 14.292 10.6832 14.292 10.6238C14.2997 10.5701 14.3267 10.521 14.3679 10.4857C14.4091 10.4504 14.4617 10.4312 14.516 10.4318Z" fill="#282828"/>
<path d="M18.1004 67.6164C17.5434 67.6164 16.999 67.4512 16.5359 67.1418C16.0728 66.8324 15.7119 66.3926 15.4987 65.878C15.2856 65.3635 15.2298 64.7972 15.3385 64.251C15.4471 63.7047 15.7153 63.203 16.1092 62.8092C16.503 62.4153 17.0047 62.1471 17.551 62.0385C18.0972 61.9298 18.6634 61.9856 19.178 62.1987C19.6926 62.4119 20.1324 62.7728 20.4418 63.2359C20.7512 63.699 20.9164 64.2434 20.9164 64.8004C20.9164 65.1702 20.8435 65.5364 20.702 65.878C20.5605 66.2197 20.3531 66.5301 20.0916 66.7916C19.8301 67.0531 19.5197 67.2605 19.178 67.402C18.8363 67.5435 18.4702 67.6164 18.1004 67.6164ZM18.1004 62.8164C17.5742 62.8164 17.0695 63.0254 16.6975 63.3975C16.3254 63.7695 16.1164 64.2742 16.1164 64.8004C16.1163 65.3296 16.3243 65.8375 16.6955 66.2147C17.0667 66.5919 17.5713 66.808 18.1004 66.8164C18.6325 66.8081 19.1405 66.5931 19.5168 66.2168C19.8931 65.8405 20.1081 65.3325 20.1164 64.8004C20.108 64.2713 19.8919 63.7667 19.5147 63.3955C19.1375 63.0243 18.6295 62.8163 18.1004 62.8164Z" fill="#282828"/>
</g>
<defs>
<clipPath id="clip0_15_1191">
<rect width="35.2" height="80" fill="white" transform="translate(0.5)"/>
</clipPath>
</defs>
</svg>
