<svg width="111" height="59" viewBox="0 0 111 59" fill="none" xmlns="http://www.w3.org/2000/svg">
<rect x="0.878418" width="109.861" height="58.0164" rx="19.7503" fill="#1877F2"/>
<path fill-rule="evenodd" clip-rule="evenodd" d="M70.6128 28.2563C70.5956 25.4722 69.787 22.7512 68.2824 20.4145C66.7778 18.0778 64.6401 16.2231 62.1217 15.0694C59.6032 13.9157 56.8093 13.5111 54.0697 13.9034C51.3301 14.2957 48.7592 15.4686 46.6608 17.2835C44.5623 19.0984 43.0238 21.4796 42.227 24.1458C41.4301 26.812 41.4082 29.652 42.1638 32.3304C42.9194 35.0088 44.421 37.4137 46.4912 39.2612C48.5614 41.1086 51.1138 42.3215 53.847 42.7566V32.5005H50.164V28.2563H53.847V25.0224C53.847 21.3448 56.0123 19.3084 59.3244 19.3084C60.4122 19.3237 61.4974 19.4196 62.5712 19.5953V23.2073H60.7406C60.4279 23.1666 60.1102 23.1971 59.8108 23.2967C59.5115 23.3962 59.2382 23.5622 59.0113 23.7824C58.7843 24.0026 58.6095 24.2713 58.4997 24.5686C58.3899 24.866 58.348 25.1844 58.3771 25.5002V28.2539H62.396L61.7544 32.4981H58.371V42.7578C61.7927 42.2015 64.9051 40.4357 67.1489 37.7777C69.3927 35.1197 70.6209 31.7437 70.6128 28.2563Z" fill="white"/>
</svg>
