<svg width="64" height="80" viewBox="0 0 64 80" fill="none" xmlns="http://www.w3.org/2000/svg">
<path d="M36.2584 44.03C36.3611 44.0311 36.4615 44.0005 36.5462 43.9424C36.6309 43.8844 36.6956 43.8017 36.7317 43.7056C36.7677 43.6095 36.7733 43.5046 36.7477 43.4052C36.722 43.3058 36.6664 43.2167 36.5884 43.15C34.7884 41.6 31.0284 38.81 25.1084 34.61C24.9997 34.5331 24.8648 34.5025 24.7336 34.525C24.6023 34.5475 24.4853 34.6213 24.4084 34.73C24.3315 34.8388 24.3009 34.9736 24.3234 35.1049C24.3459 35.2361 24.4197 35.3531 24.5284 35.43C30.6684 39.66 34.0184 42.54 36.2584 44.03Z" fill="#282828"/>
<path d="M40.7284 47.6C40.8611 47.6239 40.9977 47.5941 41.1084 47.5172C41.219 47.4403 41.2946 47.3226 41.3184 47.19C41.3423 47.0574 41.3125 46.9207 41.2356 46.8101C41.1587 46.6994 41.0411 46.6239 40.9084 46.6C34.8366 44.1532 29.2031 40.7352 24.2284 36.48C23.7284 36.06 23.0884 36.85 23.5884 37.26C28.6778 41.6486 34.4729 45.1446 40.7284 47.6Z" fill="#282828"/>
<path d="M33.4684 30.04C33.4103 30.1135 33.374 30.2019 33.3637 30.2951C33.3534 30.3882 33.3696 30.4824 33.4102 30.5669C33.4509 30.6513 33.5145 30.7226 33.5937 30.7727C33.673 30.8228 33.7647 30.8495 33.8584 30.85C33.9326 30.8501 34.0059 30.8341 34.0733 30.803C34.1407 30.7719 34.2004 30.7265 34.2484 30.67C36.4259 27.7905 39.3927 25.6054 42.7884 24.38C42.921 24.3375 43.0314 24.2441 43.0951 24.1204C43.1589 23.9966 43.1709 23.8526 43.1284 23.72C43.086 23.5873 42.9926 23.477 42.8688 23.4133C42.7451 23.3495 42.601 23.3375 42.4684 23.38C38.8874 24.6828 35.7611 26.9962 33.4684 30.04Z" fill="#282828"/>
<path d="M42.5484 25.85C40.4819 26.2096 38.5331 27.0639 36.8684 28.34C36.7844 28.4029 36.7224 28.4907 36.6911 28.5909C36.6598 28.6911 36.6609 28.7985 36.6941 28.8981C36.7272 28.9976 36.7909 29.0842 36.876 29.1456C36.9612 29.207 37.0635 29.24 37.1684 29.24C38.9784 28.18 40.7484 27.06 42.6784 26.83C42.7932 26.7966 42.8922 26.7232 42.9575 26.623C43.0228 26.5229 43.0501 26.4026 43.0344 26.2841C43.0187 26.1656 42.961 26.0567 42.8718 25.977C42.7827 25.8974 42.6679 25.8523 42.5484 25.85Z" fill="#282828"/>
<path d="M33.0584 58.26C32.9258 58.2733 32.8039 58.3387 32.7195 58.4418C32.6351 58.545 32.5952 58.6774 32.6085 58.81C32.6217 58.9427 32.6871 59.0646 32.7903 59.149C32.8934 59.2333 33.0258 59.2733 33.1585 59.26C38.8685 58.18 42.6985 56.79 44.4585 55.26C44.9585 54.84 44.2685 54.08 43.7985 54.52C42.1685 55.91 38.5584 57.18 33.0584 58.26Z" fill="#282828"/>
<path d="M36.1984 46.32C32.225 44.2502 28.529 41.6865 25.1984 38.69C24.7284 38.24 24.0384 39 24.5184 39.43C27.9555 42.5512 31.8048 45.1858 35.9584 47.26C36.0699 47.2606 36.1784 47.2238 36.2667 47.1557C36.3549 47.0875 36.4178 46.9917 36.4454 46.8837C36.473 46.7757 36.4637 46.6615 36.4189 46.5594C36.3742 46.4572 36.2965 46.373 36.1984 46.32Z" fill="#282828"/>
<path d="M26.1384 33.76C31.8184 37.32 35.9684 41.29 40.3384 45.19C40.4371 45.1906 40.5338 45.1619 40.6163 45.1076C40.6987 45.0534 40.7633 44.9759 40.8018 44.885C40.8403 44.7941 40.851 44.6938 40.8326 44.5968C40.8142 44.4999 40.7675 44.4105 40.6984 44.34C36.4677 40.0281 31.7724 36.198 26.6984 32.92C26.587 32.8457 26.4507 32.8188 26.3194 32.845C26.1881 32.8713 26.0727 32.9486 25.9984 33.06C25.9242 33.1714 25.8972 33.3077 25.9234 33.439C25.9497 33.5703 26.027 33.6857 26.1384 33.76Z" fill="#282828"/>
<path d="M43.8084 64.17C37.9384 65.86 30.7384 66.07 22.4384 64.8C22.3058 64.7788 22.1702 64.8111 22.0614 64.8899C21.9527 64.9686 21.8796 65.0874 21.8584 65.22C21.8372 65.3526 21.8695 65.4882 21.9483 65.597C22.0271 65.7058 22.1458 65.7788 22.2784 65.8C25.6586 66.3405 29.0753 66.6213 32.4984 66.64C36.4123 66.6858 40.3134 66.1843 44.0884 65.15C44.2184 65.1129 44.3283 65.0256 44.3939 64.9075C44.4595 64.7893 44.4755 64.65 44.4384 64.52C44.4013 64.39 44.314 64.2802 44.1959 64.2145C44.0778 64.1489 43.9384 64.1329 43.8084 64.17Z" fill="#282828"/>
<path d="M44.4084 59.8C38.4584 63.54 29.9384 64.2 19.0784 61.8C19.0128 61.7856 18.9449 61.7842 18.8787 61.796C18.8125 61.8078 18.7493 61.8325 18.6927 61.8687C18.636 61.9049 18.5871 61.9519 18.5486 62.0071C18.5101 62.0622 18.4829 62.1244 18.4684 62.19C18.454 62.2557 18.4526 62.3236 18.4644 62.3897C18.4762 62.4559 18.5009 62.5192 18.5371 62.5758C18.5733 62.6324 18.6203 62.6814 18.6755 62.7199C18.7306 62.7584 18.7928 62.7856 18.8584 62.8C27.7684 64.8 37.8584 65.24 44.9484 60.71C45.0691 60.6384 45.1564 60.5218 45.1911 60.3858C45.2258 60.2499 45.205 60.1057 45.1334 59.985C45.0618 59.8644 44.9452 59.7771 44.8093 59.7424C44.6733 59.7077 44.5291 59.7284 44.4084 59.8Z" fill="#282828"/>
<path d="M19.5585 57.92C26.4585 58.71 32.1585 57.61 40.3585 55.19C40.4241 55.1703 40.4852 55.1378 40.5384 55.0945C40.5915 55.0512 40.6356 54.9978 40.6681 54.9375C40.7006 54.8771 40.7209 54.8109 40.7278 54.7427C40.7347 54.6745 40.7282 54.6056 40.7085 54.54C40.6888 54.4743 40.6563 54.4132 40.613 54.3601C40.5697 54.3069 40.5163 54.2629 40.4559 54.2304C40.3956 54.1979 40.3294 54.1776 40.2612 54.1706C40.193 54.1637 40.1241 54.1703 40.0585 54.19C31.8685 56.74 25.0585 57.64 19.6985 56.88C19.5605 56.8614 19.4209 56.8984 19.3103 56.9828C19.1996 57.0672 19.127 57.1921 19.1085 57.33C19.0899 57.4679 19.1269 57.6075 19.2113 57.7182C19.2957 57.8288 19.4205 57.9014 19.5585 57.92Z" fill="#282828"/>
<path d="M44.1784 56.87C34.9184 60.79 26.4684 61.54 19.0784 59.1C18.9587 59.0745 18.8339 59.0938 18.7275 59.1543C18.6211 59.2147 18.5405 59.3121 18.5011 59.4279C18.4617 59.5437 18.4661 59.67 18.5135 59.7828C18.5609 59.8956 18.6481 59.9871 18.7584 60.04C27.4284 62.78 35.5484 61.48 44.5684 57.79C44.6854 57.7349 44.7765 57.6368 44.8226 57.516C44.8688 57.3953 44.8664 57.2614 44.8159 57.1424C44.7655 57.0234 44.6709 56.9285 44.5521 56.8777C44.4332 56.827 44.2993 56.8242 44.1784 56.87Z" fill="#282828"/>
<path d="M22.8684 51.1099C26.4592 51.6229 30.1213 51.0555 33.3884 49.4799C33.5034 49.4146 33.5886 49.3072 33.6259 49.1804C33.6632 49.0535 33.6498 48.9171 33.5885 48.7999C33.5268 48.6839 33.4219 48.5969 33.2965 48.5576C33.1711 48.5183 33.0353 48.5299 32.9184 48.5899C29.8334 50.0962 26.3645 50.6331 22.9684 50.1299C22.8511 50.1383 22.7404 50.1878 22.6559 50.2698C22.5714 50.3517 22.5186 50.4608 22.5066 50.5779C22.4947 50.695 22.5244 50.8125 22.5906 50.9099C22.6568 51.0072 22.7552 51.078 22.8684 51.1099Z" fill="#282828"/>
<path d="M21.7685 53.17C24.2641 53.7776 26.8573 53.8702 29.3899 53.4421C31.9225 53.014 34.3412 52.0741 36.4985 50.68C36.6112 50.6084 36.6908 50.4949 36.7199 50.3646C36.749 50.2342 36.7251 50.0977 36.6535 49.985C36.5818 49.8723 36.4684 49.7926 36.3381 49.7635C36.2077 49.7345 36.0712 49.7584 35.9585 49.83C33.9104 51.1601 31.6116 52.0567 29.2038 52.4643C26.796 52.8719 24.3302 52.782 21.9585 52.2C21.8391 52.1951 21.7219 52.233 21.6281 52.3071C21.5343 52.3811 21.4702 52.4862 21.4472 52.6034C21.4242 52.7207 21.444 52.8423 21.5029 52.9462C21.5619 53.0501 21.6561 53.1295 21.7685 53.17Z" fill="#282828"/>
<path d="M22.9384 55.28C29.1686 55.1554 35.3432 54.0796 41.2484 52.09C41.381 52.0502 41.4924 51.9594 41.558 51.8375C41.6237 51.7156 41.6382 51.5726 41.5984 51.44C41.5586 51.3074 41.4678 51.196 41.3459 51.1304C41.224 51.0648 41.081 51.0502 40.9484 51.09C34.7753 53.2037 28.2934 54.275 21.7684 54.26C21.638 54.2646 21.5138 54.3171 21.4197 54.4075C21.3256 54.4979 21.2682 54.6199 21.2584 54.75C21.3184 55.55 22.3884 55.19 22.9384 55.28Z" fill="#282828"/>
<path d="M24.4484 49.7C26.6991 49.5518 28.8902 48.9136 30.8684 47.83C30.9324 47.8049 30.9904 47.7669 31.039 47.7184C31.0876 47.6699 31.1257 47.6118 31.1508 47.548C31.176 47.4841 31.1878 47.4157 31.1854 47.3471C31.1829 47.2784 31.1664 47.211 31.1368 47.1491C31.1072 47.0871 31.0652 47.0319 31.0133 46.9869C30.9614 46.9419 30.9008 46.9081 30.8353 46.8875C30.7698 46.867 30.7007 46.8602 30.6325 46.8675C30.5642 46.8748 30.4981 46.8961 30.4384 46.93C27.2984 48.48 24.8684 49 23.1284 48.53C22.9999 48.496 22.8631 48.5135 22.7473 48.5789C22.6314 48.6443 22.5457 48.7524 22.5084 48.88C22.3984 49.8 23.7984 49.61 24.4484 49.7Z" fill="#282828"/>
<path d="M50.4684 22.76C50.4684 17.92 49.3184 15.2 47.0784 14.44C45.1023 14.1756 43.1793 13.6054 41.3784 12.75C40.8607 12.4679 40.3264 12.2175 39.7784 12C34.7784 12 29.7784 12 24.7784 12C24.2184 12.11 23.6884 12.33 23.1284 12.48L22.6784 12.61C20.6784 13.1833 18.5051 13.74 16.1584 14.28C14.2484 15.05 13.1584 17.44 12.8584 21.66C13.2284 25.92 13.0284 33.11 12.2584 43.08C12.2584 47.9 11.5384 55.35 10.0084 65.22C9.99536 65.2898 9.99762 65.3616 10.0151 65.4304C10.0325 65.4992 10.0647 65.5635 10.1094 65.6186C10.1541 65.6738 10.2102 65.7186 10.2739 65.7499C10.3377 65.7812 10.4074 65.7983 10.4784 65.8C12.1986 65.8296 13.9111 66.0374 15.5884 66.42C15.6577 66.4376 15.73 66.4401 15.8004 66.4274C15.8708 66.4147 15.9376 66.387 15.9964 66.3462C16.0551 66.3055 16.1045 66.2526 16.1411 66.1911C16.1776 66.1297 16.2006 66.0611 16.2084 65.99C17.1484 56.99 17.9884 49.38 18.6884 43.33C19.4029 39.9631 19.6752 36.5174 19.4984 33.08C20.1484 35.25 20.4984 37.27 20.8484 39.17C21.3684 43.17 21.2484 46.69 20.1984 49.09C17.8684 53.28 16.6984 58.54 16.8684 64.67C16.7584 66.86 20.4984 68.11 28.9784 68.72C34.9784 69.41 44.7184 69.05 46.8384 65.03C46.9642 64.2365 47.0144 63.4329 46.9884 62.63C47.0984 63.79 47.2084 64.93 47.2884 66C47.2977 66.1097 47.3429 66.2132 47.417 66.2946C47.4912 66.376 47.5901 66.4306 47.6984 66.45C49.6984 66.84 52.1084 66.74 53.4884 65.55C52.1884 53.04 50.2284 37.05 50.4684 22.76ZM44.6684 30.98C44.663 31.0131 44.663 31.0469 44.6684 31.08C43.6192 34.3839 42.8269 37.764 42.2984 41.19C40.368 39.841 38.5908 38.2851 36.9984 36.55C38.6131 36.2701 40.1706 35.7262 41.6084 34.94C41.7251 34.8763 41.8117 34.7689 41.8493 34.6414C41.8868 34.5139 41.8721 34.3767 41.8084 34.26C41.7448 34.1433 41.6374 34.0567 41.5098 34.0192C41.3823 33.9817 41.2451 33.9963 41.1284 34.06C39.6007 34.8995 37.928 35.4424 36.1984 35.66C34.7133 33.9586 33.3372 32.165 32.0784 30.29C35.7039 27.3152 39.0025 23.963 41.9184 20.29C43.9284 24.23 44.8684 27.8 44.6684 30.98ZM21.8684 39.07C21.42 36.2487 20.7512 33.4669 19.8684 30.75C19.9784 30.1 20.1184 29.43 20.2784 28.75C20.7484 30.04 21.0484 30.66 21.4484 30.89C22.0084 31.21 22.5284 30.34 21.9584 30.03C21.4495 29.0771 21.047 28.071 20.7584 27.03C20.9384 26.45 21.1384 25.88 21.3584 25.33C24.5884 28.33 27.9484 31.92 31.7584 34.74C31.8587 34.736 31.9555 34.7024 32.0367 34.6437C32.118 34.5849 32.1802 34.5034 32.2154 34.4095C32.2506 34.3156 32.2574 34.2133 32.2348 34.1156C32.2122 34.0179 32.1613 33.929 32.0884 33.86C28.4184 30.7 24.9584 27.5 21.7784 24.35C21.9223 24.0319 22.0825 23.7215 22.2584 23.42C25.1826 25.4654 27.6737 28.0686 29.5884 31.08C29.6211 31.1427 29.6667 31.1977 29.7221 31.2414C29.7776 31.2852 29.8417 31.3167 29.9103 31.3339C29.9788 31.351 30.0502 31.3535 30.1197 31.3411C30.1893 31.3286 30.2554 31.3016 30.3138 31.2618C30.3721 31.2219 30.4214 31.1701 30.4582 31.1099C30.4951 31.0496 30.5188 30.9822 30.5278 30.9121C30.5367 30.8421 30.5307 30.7709 30.5101 30.7033C30.4896 30.6357 30.4549 30.5732 30.4084 30.52C28.4236 27.3854 25.8288 24.6819 22.7784 22.57C23.0262 22.208 23.311 21.8728 23.6284 21.57C23.9271 21.9362 24.2622 22.2713 24.6284 22.57C26.8904 25.0866 29.0104 27.7274 30.9784 30.48C34.5384 35.68 38.1284 39.81 42.1784 42.26C41.9383 43.8427 42.0371 45.4584 42.4684 47C42.7951 48.0067 43.1051 48.9767 43.3984 49.91C31.7284 46.32 24.4784 42.67 21.8684 39.07ZM24.8684 13C29.7584 13 34.7284 13 39.6184 13C40.0184 13.18 40.3784 13.43 40.7684 13.58C41.9484 15.75 42.2084 17.58 41.5584 19.19C38.5904 22.9733 35.2207 26.4235 31.5084 29.48C29.585 26.8473 27.529 24.314 25.3484 21.89C23.1784 20.12 22.5184 17.36 23.2984 13.48L24.8684 13ZM18.5284 27.25C17.9438 25.3514 17.6077 23.385 17.5284 21.4C17.5284 21.2674 17.4757 21.1402 17.382 21.0464C17.2882 20.9527 17.161 20.9 17.0284 20.9C16.8958 20.9 16.7686 20.9527 16.6749 21.0464C16.5811 21.1402 16.5284 21.2674 16.5284 21.4C16.5985 23.4744 16.9346 25.5312 17.5284 27.52C18.8484 31.87 18.9084 37.11 17.6984 43.14C17.0084 49.14 16.1884 56.56 15.2684 65.29C13.887 65.0139 12.486 64.8467 11.0784 64.79C12.5684 55.14 13.2984 47.79 13.2584 43.09C14.0284 33.09 14.2584 25.86 13.8584 21.63C14.1284 17.95 15.0284 15.78 16.4584 15.2C18.4584 14.74 20.3784 14.26 22.1684 13.76C21.6037 16.1208 21.9091 18.6061 23.0284 20.76C21.1984 22.48 19.8684 26.02 19.1984 29.1C18.9439 28.4951 18.7203 27.8776 18.5284 27.25ZM45.8684 64.74C43.5984 67.51 37.9384 68.51 29.0484 67.74C18.8684 67 17.8684 65.38 17.8684 64.67C17.6684 58.67 18.7484 53.67 21.0984 49.53C22.117 46.7536 22.4397 43.77 22.0384 40.84C25.4384 44.32 32.5584 47.68 43.7184 51.06C45.6184 57.29 46.3384 61.9 45.8684 64.74ZM44.6384 50.48C44.2684 49.27 43.8684 48 43.4084 46.63C42.6884 44.72 43.1284 40.55 44.6084 34.92C44.4629 37.6581 44.4629 40.4019 44.6084 43.14C45.4384 48.82 46.1084 53.98 46.6084 58.55C46.1152 55.8227 45.4574 53.1278 44.6384 50.48ZM48.2884 65.48C47.7884 59.37 46.8784 51.81 45.5884 43.02C45.2884 39.02 45.7484 34.61 45.6584 31.1C46.4465 27.7094 46.9351 24.2561 47.1184 20.78C47.129 20.6474 47.0865 20.516 47.0003 20.4147C46.914 20.3135 46.791 20.2506 46.6584 20.24C46.5258 20.2294 46.3944 20.2719 46.2932 20.3582C46.1919 20.4444 46.129 20.5674 46.1184 20.7C45.9184 23.28 45.6884 25.43 45.4284 27.19C44.885 24.4592 43.9166 21.8306 42.5584 19.4C43.1379 17.69 43.0156 15.82 42.2184 14.2C43.6919 14.7914 45.2341 15.1946 46.8084 15.4C48.5384 16.03 49.4284 18.51 49.4684 22.76C49.4843 36.8797 50.5506 50.9786 52.6584 64.94C51.3263 65.6747 49.7677 65.8851 48.2884 65.53V65.48Z" fill="#282828"/>
</svg>
