<svg width="65" height="80" viewBox="0 0 65 80" fill="none" xmlns="http://www.w3.org/2000/svg">
<path d="M55.8013 28.4638C55.3204 28.3268 55.0414 27.8259 55.1785 27.3447L58.2589 16.5289C58.9263 14.1776 57.5267 11.8008 55.2677 11.1568C52.9577 10.499 50.5543 11.8364 49.897 14.1475L47.8694 21.2658C47.7325 21.7469 47.2311 22.0254 46.7503 21.8886C46.2693 21.7516 45.9904 21.2506 46.1274 20.7695L48.1549 13.6516C49.0855 10.3787 52.4897 8.48269 55.7639 9.41467C58.9731 10.3299 60.9434 13.7041 60.001 17.0244L56.9204 27.841C56.7831 28.3235 56.2801 28.6007 55.8013 28.4638Z" fill="#282828"/>
<path d="M56.7235 25.2252L53.3556 24.2662C52.8745 24.1293 52.5955 23.6283 52.7326 23.1472C52.8695 22.666 53.3715 22.387 53.8516 22.5242L57.2196 23.4832C57.7007 23.6202 57.9796 24.1212 57.8426 24.6023C57.7047 25.0865 57.2007 25.3617 56.7235 25.2252Z" fill="#282828"/>
<path d="M57.9223 21.0154L54.5543 20.0564C54.0732 19.9194 53.7943 19.4184 53.9313 18.9373C54.0684 18.4561 54.5699 18.1772 55.0504 18.3144L58.4183 19.2734C58.8994 19.4103 59.1783 19.9113 59.0413 20.3924C58.9035 20.8767 58.3996 21.1519 57.9223 21.0154Z" fill="#282828"/>
<path d="M59.0744 15.9168L55.7535 14.9712C55.2725 14.8343 54.9935 14.3333 55.1305 13.8522C55.2675 13.3711 55.7681 13.0915 56.2496 13.2292L59.5704 14.1747C60.0514 14.3117 60.3305 14.8127 60.1934 15.2938C60.0558 15.7774 59.5523 16.0534 59.0744 15.9168Z" fill="#282828"/>
<path d="M8.61594 28.1789L7.12413 26.4222C4.9846 23.9021 5.83749 20.0383 8.84356 18.6551L15.161 15.7509C17.3604 14.7392 19.9619 15.4472 21.3461 17.4347C21.632 17.845 21.531 18.4095 21.1206 18.6954C20.7102 18.9814 20.1458 18.8801 19.8599 18.4698C18.9777 17.2033 17.3198 16.7517 15.9177 17.3965L9.60057 20.3007C7.68697 21.1812 7.14068 23.6428 8.50508 25.2498L9.99677 27.0064C10.3206 27.3876 10.2739 27.9593 9.89268 28.2829C9.51206 28.6061 8.9404 28.5611 8.61594 28.1789Z" fill="#282828"/>
<path d="M11.5578 18.4047L9.39782 13.7069C9.18892 13.2525 9.38792 12.7146 9.84244 12.5057C10.297 12.2968 10.8348 12.4958 11.0436 12.9504L13.2036 17.6481C13.4126 18.1025 13.2135 18.6403 12.759 18.8492C12.3026 19.0592 11.7657 18.8571 11.5578 18.4047Z" fill="#282828"/>
<path d="M11.931 18.8125L6.41542 15.6575C5.98119 15.4091 5.83061 14.856 6.079 14.4218C6.32715 13.9875 6.88045 13.8365 7.31468 14.0854L12.8303 17.2404C13.2645 17.4888 13.4151 18.0419 13.1667 18.4761C12.9178 18.9115 12.3636 19.0601 11.931 18.8125Z" fill="#282828"/>
<path d="M12.2103 18.9159C11.7191 18.8218 11.3972 18.3472 11.4912 17.856L12.6868 11.6153C12.7809 11.124 13.2556 10.8022 13.7467 10.8962C14.2379 10.9902 14.5598 11.4648 14.4658 11.956L13.2702 18.1968C13.1762 18.6872 12.7029 19.0097 12.2103 18.9159Z" fill="#282828"/>
<path d="M21.0788 28.1007C18.5969 24.435 18.263 18.9181 20.9091 15.6139C22.8756 13.1581 25.9258 12.7573 28.5415 14.3536C31.6248 12.4344 35.1585 13.3778 36.9504 16.6762C37.1892 17.1157 37.0264 17.6655 36.5868 17.9044C36.147 18.1432 35.5975 17.9802 35.3586 17.5408C33.9633 14.9718 31.3677 14.472 29.0876 16.1723C28.7686 16.4101 28.3317 16.4118 28.0108 16.1766C26.0888 14.7681 23.8349 14.8576 22.3229 16.746C20.3623 19.194 20.3585 23.8063 22.5784 27.085C22.8588 27.4992 22.7505 28.0623 22.3363 28.3426C21.9226 28.6233 21.3591 28.5148 21.0788 28.1007Z" fill="#282828"/>
<path d="M28.3972 16.3391C27.9038 16.257 27.5703 15.7907 27.6524 15.2971C27.9257 13.6539 27.5698 12.5661 26.463 11.6601C26.0759 11.3433 26.0189 10.7727 26.3357 10.3857C26.6525 9.99841 27.2234 9.94178 27.6102 10.2584C29.2189 11.5751 29.8172 13.3205 29.4391 15.5943C29.357 16.0886 28.8897 16.421 28.3972 16.3391Z" fill="#282828"/>
<path d="M53.9366 70.7631H10.4649C7.96796 70.7631 5.93663 68.7318 5.93663 66.2348V37.2537C5.93663 36.7534 6.342 36.348 6.84229 36.348H57.5593C58.0596 36.348 58.4649 36.7534 58.4649 37.2537V66.2348C58.4649 68.7317 56.4335 70.7631 53.9366 70.7631ZM7.74795 38.1593V66.2348C7.74795 67.7329 8.96685 68.9518 10.4649 68.9518H53.9366C55.4347 68.9518 56.6536 67.7329 56.6536 66.2348V38.1593H7.74795Z" fill="#282828"/>
<path d="M62.0876 38.1593H2.31399C1.67894 38.1593 1.23939 37.5204 1.46943 36.9268L5.09207 27.568C5.22707 27.2192 5.56253 26.9893 5.93663 26.9893H58.4649C58.839 26.9893 59.1745 27.2192 59.3095 27.568L62.9321 36.9268C63.1612 37.518 62.7249 38.1593 62.0876 38.1593ZM3.63565 36.348H60.7658L57.8444 28.8006H6.55707L3.63565 36.348Z" fill="#282828"/>
<path d="M36.6239 28.0293C34.1044 23.4499 34.4025 18.0455 36.4664 13.2453C37.0417 11.9081 38.3022 11.0233 39.756 10.9361C41.2138 10.8481 42.57 11.5777 43.3016 12.8379L51.5953 27.1384C51.8462 27.571 51.6988 28.1253 51.2661 28.3762C50.8335 28.6272 50.2793 28.4797 50.0283 28.0471L41.7348 13.7469C40.9002 12.3093 38.7872 12.4336 38.1302 13.9609C36.0993 18.6842 36.1278 23.3703 38.2107 27.156C38.4518 27.5942 38.292 28.1449 37.8538 28.3861C37.4168 28.6269 36.8655 28.4682 36.6239 28.0293Z" fill="#282828"/>
<path d="M44.3557 24.6017C44.1048 24.169 44.2522 23.6149 44.6849 23.3638L47.4193 21.7781C47.852 21.527 48.4062 21.6744 48.6571 22.1071C48.908 22.5398 48.7606 23.094 48.3279 23.345L45.5936 24.9308C45.1591 25.1829 44.6054 25.0324 44.3557 24.6017Z" fill="#282828"/>
<path d="M42.2481 20.9612C41.9971 20.5285 42.1444 19.9744 42.5771 19.7235L45.3116 18.1375C45.744 17.8864 46.2985 18.0337 46.5493 18.4665C46.8003 18.8992 46.6529 19.4533 46.2203 19.7043L43.4858 21.2902C43.0529 21.5417 42.4984 21.3931 42.2481 20.9612Z" fill="#282828"/>
<path d="M40.1718 17.3539C39.9209 16.9212 40.0683 16.3669 40.501 16.116L43.2355 14.5301C43.6684 14.2796 44.2224 14.4266 44.4733 14.8593C44.7242 15.292 44.5768 15.8462 44.1441 16.0972L41.4097 17.683C40.9788 17.9326 40.424 17.7885 40.1718 17.3539Z" fill="#282828"/>
<path d="M15.8989 65.3291C13.9014 65.3291 12.2763 63.704 12.2763 61.7065V47.2159C12.2763 45.2184 13.9014 43.5933 15.8989 43.5933C17.8964 43.5933 19.5215 45.2184 19.5215 47.2159V61.7065C19.5215 63.704 17.8964 65.3291 15.8989 65.3291ZM15.8989 45.4046C14.9001 45.4046 14.0876 46.2171 14.0876 47.2159V61.7065C14.0876 62.7052 14.9001 63.5178 15.8989 63.5178C16.8977 63.5178 17.7102 62.7052 17.7102 61.7065V47.2159C17.7102 46.217 16.8977 45.4046 15.8989 45.4046Z" fill="#282828"/>
<path d="M26.7668 65.3291C24.7693 65.3291 23.1442 63.704 23.1442 61.7065V47.2159C23.1442 45.2184 24.7693 43.5933 26.7668 43.5933C28.7643 43.5933 30.3895 45.2184 30.3895 47.2159V61.7065C30.3895 63.704 28.7643 65.3291 26.7668 65.3291ZM26.7668 45.4046C25.7681 45.4046 24.9555 46.2171 24.9555 47.2159V61.7065C24.9555 62.7052 25.7681 63.5178 26.7668 63.5178C27.7656 63.5178 28.5781 62.7052 28.5781 61.7065V47.2159C28.5781 46.217 27.7656 45.4046 26.7668 45.4046Z" fill="#282828"/>
<path d="M37.6347 65.3291C35.6372 65.3291 34.0121 63.704 34.0121 61.7065V47.2159C34.0121 45.2184 35.6372 43.5933 37.6347 43.5933C39.6323 43.5933 41.2574 45.2184 41.2574 47.2159V61.7065C41.2574 63.704 39.6323 65.3291 37.6347 65.3291ZM37.6347 45.4046C36.636 45.4046 35.8234 46.2171 35.8234 47.2159V61.7065C35.8234 62.7052 36.636 63.5178 37.6347 63.5178C38.6335 63.5178 39.4461 62.7052 39.4461 61.7065V47.2159C39.4461 46.217 38.6335 45.4046 37.6347 45.4046Z" fill="#282828"/>
<path d="M48.5027 65.3291C46.5051 65.3291 44.88 63.704 44.88 61.7065V47.2159C44.88 45.2184 46.5051 43.5933 48.5027 43.5933C50.5002 43.5933 52.1253 45.2184 52.1253 47.2159V61.7065C52.1253 63.704 50.5002 65.3291 48.5027 65.3291ZM48.5027 45.4046C47.5039 45.4046 46.6913 46.2171 46.6913 47.2159V61.7065C46.6913 62.7052 47.5039 63.5178 48.5027 63.5178C49.5014 63.5178 50.314 62.7052 50.314 61.7065V47.2159C50.314 46.217 49.5014 45.4046 48.5027 45.4046Z" fill="#282828"/>
</svg>
