<svg width="65" height="80" viewBox="0 0 65 80" fill="none" xmlns="http://www.w3.org/2000/svg">
<path d="M56.205 64.64V24.5487H56.9819C57.3357 24.5487 57.6219 24.2625 57.6219 23.9087V18.2543C57.6219 17.9006 57.3357 17.6143 56.9819 17.6143H51.1494V16.3256C51.1494 15.0875 50.1419 14.08 48.9038 14.08H47.3363C46.9825 14.08 46.6963 14.3662 46.6963 14.72C46.6963 15.0737 46.9825 15.36 47.3363 15.36H48.9038C49.4363 15.36 49.8694 15.7931 49.8694 16.3256V17.6143H45.0832V15.3756C45.0832 15.0218 44.7969 14.7356 44.4432 14.7356C44.0894 14.7356 43.8032 15.0218 43.8032 15.3756V17.6143H39.0163V16.3256C39.0163 15.7931 39.4494 15.36 39.9819 15.36H41.55C41.9038 15.36 42.19 15.0737 42.19 14.72C42.19 14.3662 41.9038 14.08 41.55 14.08H39.9819C38.7438 14.08 37.7363 15.0875 37.7363 16.3256V17.6143H26.8219V16.3256C26.8219 15.0875 25.8144 14.08 24.5763 14.08H23.0088C22.655 14.08 22.3688 14.3662 22.3688 14.72C22.3688 15.0737 22.655 15.36 23.0088 15.36H24.5763C25.1088 15.36 25.5419 15.7931 25.5419 16.3256V17.6143H20.7557V15.3756C20.7557 15.0218 20.4694 14.7356 20.1157 14.7356C19.7619 14.7356 19.4757 15.0218 19.4757 15.3756V17.6143H14.6888V16.3256C14.6888 15.7931 15.1219 15.36 15.6544 15.36H17.2225C17.5763 15.36 17.8625 15.0737 17.8625 14.72C17.8625 14.3662 17.5763 14.08 17.2225 14.08H15.6544C14.4163 14.08 13.4088 15.0875 13.4088 16.3256V17.6143H7.14253C6.78878 17.6143 6.50253 17.9006 6.50253 18.2543V23.9087C6.50253 24.2625 6.78878 24.5487 7.14253 24.5487H7.92003V64.64C7.92003 64.9937 8.20628 65.28 8.56003 65.28H55.565C55.9188 65.28 56.205 64.9937 56.205 64.64ZM7.78253 18.8943H56.3419V23.2687H7.78253V18.8943ZM54.925 24.5487V35.0087H9.20003V24.5487H54.925ZM9.20003 64V36.2887H54.925V64H9.20003Z" fill="#282828"/>
<path d="M47.9488 32.6624C49.63 32.6624 50.9975 31.2949 50.9975 29.6137C50.9975 27.9324 49.63 26.5649 47.9488 26.5649C46.2675 26.5649 44.9 27.9324 44.9 29.6137C44.9 31.2949 46.2675 32.6624 47.9488 32.6624ZM47.9488 27.8449C48.9238 27.8449 49.7175 28.6387 49.7175 29.6137C49.7175 30.5887 48.9238 31.3824 47.9488 31.3824C46.9738 31.3824 46.18 30.5887 46.18 29.6137C46.18 28.6387 46.9738 27.8449 47.9488 27.8449Z" fill="#282828"/>
<path d="M37.3575 32.6624C39.0388 32.6624 40.4063 31.2949 40.4063 29.6137C40.4063 27.9324 39.0388 26.5649 37.3575 26.5649C35.6763 26.5649 34.3088 27.9324 34.3088 29.6137C34.3088 31.2949 35.6763 32.6624 37.3575 32.6624ZM37.3575 27.8449C38.3325 27.8449 39.1263 28.6387 39.1263 29.6137C39.1263 30.5887 38.3325 31.3824 37.3575 31.3824C36.3825 31.3824 35.5888 30.5887 35.5888 29.6137C35.5888 28.6387 36.3825 27.8449 37.3575 27.8449Z" fill="#282828"/>
<path d="M26.7669 32.6624C28.4482 32.6624 29.8157 31.2949 29.8157 29.6137C29.8157 27.9324 28.4482 26.5649 26.7669 26.5649C25.0857 26.5649 23.7182 27.9324 23.7182 29.6137C23.7182 31.2949 25.0857 32.6624 26.7669 32.6624ZM26.7669 27.8449C27.7419 27.8449 28.5357 28.6387 28.5357 29.6137C28.5357 30.5887 27.7419 31.3824 26.7669 31.3824C25.7919 31.3824 24.9982 30.5887 24.9982 29.6137C24.9982 28.6387 25.7919 27.8449 26.7669 27.8449Z" fill="#282828"/>
<path d="M16.1763 32.6624C17.8569 32.6624 19.2244 31.2949 19.2244 29.6137C19.2244 27.9324 17.8569 26.5649 16.1763 26.5649C14.495 26.5649 13.1269 27.9324 13.1269 29.6137C13.1269 31.2949 14.495 32.6624 16.1763 32.6624ZM16.1763 27.8449C17.1513 27.8449 17.9444 28.6387 17.9444 29.6137C17.9444 30.5887 17.1513 31.3824 16.1763 31.3824C15.2007 31.3824 14.4069 30.5887 14.4069 29.6137C14.4069 28.6387 15.2007 27.8449 16.1763 27.8449Z" fill="#282828"/>
</svg>
