<svg width="32" height="34" viewBox="0 0 32 34" fill="none" xmlns="http://www.w3.org/2000/svg">
<path d="M14.735 12.0014C16.1754 12.7573 17.0111 12.338 14.367 9.83941C12.4189 7.99968 16.1811 7.04131 19.2501 7.12688C21.6717 7.19534 20.6078 5.87187 18.0978 5.90895C17.1879 5.92322 15.9586 6.02305 14.4069 6.44233C14.4069 6.44233 15.1115 5.49252 18.8308 4.82223C20.0716 4.59975 19.6951 3.81252 18.152 3.91235C17.225 3.97225 15.5422 4.04071 13.7623 5.19018C13.7623 5.19018 14.8605 3.99507 17.6842 3.09945C18.5798 2.81707 18.152 2.24947 16.9683 2.42346C16.2267 2.53184 14.0875 3.12227 12.4731 4.24607C12.4731 4.24607 13.8336 2.82563 15.8188 2.22094C16.743 1.94142 16.4463 1.15134 14.618 1.62482C12.5045 2.17246 8.55405 4.99907 2.2077 11.4624C2.2077 11.4624 6.51466 6.14569 9.65503 3.74407C11.3978 2.41775 12.9722 1.55921 14.4982 1.16275C15.1343 0.997312 15.6791 0.95738 16.0727 1.0458C16.7344 1.19412 16.8029 1.64478 16.8086 1.77884V1.91005L16.8656 1.95853C17.2649 1.89864 17.6015 1.90434 17.8753 1.96424C18.5656 2.11826 18.6369 2.56607 18.6426 2.70013C18.6511 2.88553 18.5884 3.20213 18.1434 3.43602L19.1075 3.49877C19.9974 3.69843 20.0573 4.23181 20.0516 4.38868C20.0459 4.60261 19.929 5.11887 18.9164 5.30142L18.2319 5.43547C18.7025 5.43547 19.1474 5.48396 19.5525 5.57524C20.585 5.80627 21.1583 6.2712 21.0899 6.82454C21.0214 7.38359 20.3968 7.64885 19.2387 7.61748C16.6631 7.54617 14.5895 8.17652 14.3356 8.78977C14.2444 9.00654 14.484 9.29747 14.7007 9.49999C16.6688 11.3568 16.7087 12.0328 16.4863 12.4464C16.3836 12.6404 16.1069 12.9427 15.4138 12.7887C15.1485 12.7288 14.8462 12.6118 14.5125 12.435C13.6083 11.9587 12.7811 11.6335 12.0624 11.4738C11.007 11.2399 10.1713 11.3483 9.58087 11.7989C8.64247 12.5149 8.57116 13.9381 8.55975 13.9125C8.28878 13.2279 8.65673 8.81829 14.735 12.0071" fill="white"/>
<path d="M14.735 12.0014C16.1754 12.7573 17.0111 12.338 14.367 9.83941C12.4189 7.99968 16.1811 7.04131 19.2501 7.12688C21.6717 7.19534 20.6078 5.87187 18.0978 5.90895C17.1879 5.92322 15.9586 6.02305 14.4069 6.44233C14.4069 6.44233 15.1115 5.49252 18.8308 4.82223C20.0716 4.59975 19.6951 3.81252 18.152 3.91235C17.225 3.97225 15.5422 4.04071 13.7623 5.19018C13.7623 5.19018 14.8605 3.99507 17.6842 3.09945C18.5798 2.81707 18.152 2.24947 16.9683 2.42346C16.2267 2.53184 14.0875 3.12227 12.4731 4.24607C12.4731 4.24607 13.8336 2.82563 15.8188 2.22094C16.743 1.94142 16.4463 1.15134 14.618 1.62482C12.5045 2.17246 8.55405 4.99907 2.2077 11.4624C2.2077 11.4624 6.51466 6.14569 9.65503 3.74407C11.3978 2.41775 12.9722 1.55921 14.4982 1.16275C15.1343 0.997312 15.6791 0.95738 16.0727 1.0458C16.7344 1.19412 16.8029 1.64478 16.8086 1.77884V1.91005L16.8656 1.95853C17.2649 1.89864 17.6015 1.90434 17.8753 1.96424C18.5656 2.11826 18.6369 2.56607 18.6426 2.70013C18.6511 2.88553 18.5884 3.20213 18.1434 3.43602L19.1075 3.49877C19.9974 3.69843 20.0573 4.23181 20.0516 4.38868C20.0459 4.60261 19.929 5.11887 18.9164 5.30142L18.2319 5.43547C18.7025 5.43547 19.1474 5.48396 19.5525 5.57524C20.585 5.80627 21.1583 6.2712 21.0899 6.82454C21.0214 7.38359 20.3968 7.64885 19.2387 7.61748C16.6631 7.54617 14.5895 8.17652 14.3356 8.78977C14.2444 9.00654 14.484 9.29747 14.7007 9.49999C16.6688 11.3568 16.7087 12.0328 16.4863 12.4464C16.3836 12.6404 16.1069 12.9427 15.4138 12.7887C15.1485 12.7288 14.8462 12.6118 14.5125 12.435C13.6083 11.9587 12.7811 11.6335 12.0624 11.4738C11.007 11.2399 10.1713 11.3483 9.58087 11.7989C8.64247 12.5149 8.57116 13.9381 8.55975 13.9125C8.28878 13.2279 8.65673 8.81829 14.735 12.0071" stroke="white" stroke-width="0.5"/>
<path d="M17.8183 21.9927C16.3779 21.2368 15.5422 21.6561 18.1863 24.1547C20.1344 25.9944 16.3722 26.9528 13.3031 26.8672C10.8815 26.7988 11.9454 28.1222 14.4555 28.0852C15.3653 28.0709 16.5947 27.9711 18.1463 27.5518C18.1463 27.5518 17.4418 28.5016 13.7224 29.1719C12.4817 29.3944 12.8582 30.1816 14.4013 30.0818C15.3283 30.0219 17.0111 29.9534 18.7909 28.8039C18.7909 28.8039 17.6928 29.999 14.869 30.8947C13.9734 31.177 14.4013 31.7446 15.585 31.5707C16.3266 31.4623 18.4658 30.8718 20.0802 29.748C20.0802 29.748 18.7196 31.1685 16.7344 31.7732C15.8103 32.0527 16.1069 32.8428 17.9353 32.3693C20.0488 31.8217 23.9992 28.995 30.3456 22.5317C30.3456 22.5317 26.0386 27.8484 22.8982 30.25C21.1555 31.5821 19.581 32.4406 18.055 32.8371C17.419 33.0025 16.8742 33.0424 16.4806 32.954C15.8189 32.8057 15.7504 32.355 15.7447 32.221V32.0898L15.6876 32.0413C15.2883 32.1012 14.9518 32.0955 14.6779 32.0356C13.9877 31.8815 13.9164 31.4337 13.9107 31.2997C13.9021 31.1143 13.9649 30.7977 14.4098 30.5638L13.4486 30.501C12.5587 30.3014 12.4988 29.768 12.5045 29.6111C12.5102 29.3972 12.6271 28.8809 13.6397 28.6984L14.3243 28.5643C13.8536 28.5615 13.4087 28.5159 13.0036 28.4246C11.9711 28.1935 11.3978 27.7286 11.4663 27.1753C11.5347 26.6162 12.1594 26.351 13.3174 26.3823C15.893 26.4536 17.9666 25.8233 18.2205 25.2129C18.3118 24.9961 18.0722 24.7052 17.8554 24.5027C15.8873 22.6458 15.8474 21.9698 16.0699 21.5563C16.1725 21.3623 16.4492 21.06 17.1423 21.214C17.4076 21.2739 17.7099 21.3908 18.0436 21.5677C18.9478 22.044 19.775 22.3692 20.4938 22.5289C21.5491 22.7628 22.3848 22.6544 22.9752 22.2037C23.9137 21.4878 23.985 20.0645 23.9935 20.0902C24.2645 20.7747 23.8965 25.1844 17.8183 21.9955" fill="white"/>
<path d="M17.8183 21.9927C16.3779 21.2368 15.5422 21.6561 18.1863 24.1547C20.1344 25.9944 16.3722 26.9528 13.3031 26.8672C10.8815 26.7988 11.9454 28.1222 14.4555 28.0852C15.3653 28.0709 16.5947 27.9711 18.1463 27.5518C18.1463 27.5518 17.4418 28.5016 13.7224 29.1719C12.4817 29.3944 12.8582 30.1816 14.4013 30.0818C15.3283 30.0219 17.0111 29.9534 18.7909 28.8039C18.7909 28.8039 17.6928 29.999 14.869 30.8947C13.9734 31.177 14.4013 31.7446 15.585 31.5707C16.3266 31.4623 18.4658 30.8718 20.0802 29.748C20.0802 29.748 18.7196 31.1685 16.7344 31.7732C15.8103 32.0527 16.1069 32.8428 17.9353 32.3693C20.0488 31.8217 23.9992 28.995 30.3456 22.5317C30.3456 22.5317 26.0386 27.8484 22.8982 30.25C21.1555 31.5821 19.581 32.4406 18.055 32.8371C17.419 33.0025 16.8742 33.0424 16.4806 32.954C15.8189 32.8057 15.7504 32.355 15.7447 32.221V32.0898L15.6876 32.0413C15.2883 32.1012 14.9518 32.0955 14.6779 32.0356C13.9877 31.8815 13.9164 31.4337 13.9107 31.2997C13.9021 31.1143 13.9649 30.7977 14.4098 30.5638L13.4486 30.501C12.5587 30.3014 12.4988 29.768 12.5045 29.6111C12.5102 29.3972 12.6271 28.8809 13.6397 28.6984L14.3243 28.5643C13.8536 28.5615 13.4087 28.5158 13.0036 28.4246C11.9711 28.1935 11.3978 27.7286 11.4663 27.1753C11.5347 26.6162 12.1594 26.351 13.3174 26.3823C15.893 26.4536 17.9666 25.8233 18.2205 25.2129C18.3118 24.9961 18.0722 24.7052 17.8554 24.5027C15.8873 22.6458 15.8474 21.9698 16.0699 21.5563C16.1725 21.3623 16.4492 21.06 17.1423 21.214C17.4076 21.2739 17.7099 21.3908 18.0436 21.5677C18.9478 22.044 19.775 22.3692 20.4938 22.5289C21.5491 22.7628 22.3848 22.6544 22.9752 22.2037C23.9137 21.4878 23.985 20.0645 23.9935 20.0902C24.2645 20.7747 23.8965 25.1844 17.8183 21.9955" stroke="white" stroke-width="0.5"/>
<path d="M11.2808 18.5386C12.0367 17.0982 11.6145 16.2625 9.1188 18.9066C7.27907 20.8547 6.3207 17.0925 6.40627 14.0263C6.47472 11.6047 5.15126 12.6686 5.18834 15.1786C5.19975 16.0885 5.30243 17.3178 5.72172 18.8666C5.72172 18.8666 4.77191 18.1621 4.10162 14.4456C3.87914 13.2048 3.09191 13.5813 3.19174 15.1244C3.25164 16.0486 3.32009 17.7343 4.46956 19.5113C4.46956 19.5113 3.27445 18.4131 2.37884 15.5922C2.09646 14.6966 1.52885 15.1244 1.70284 16.3081C1.81123 17.0497 2.40165 19.1889 3.52546 20.8005C3.52546 20.8005 2.10502 19.44 1.50033 17.4548C1.21795 16.5306 0.430722 16.8273 0.904202 18.6556C1.45184 20.7691 4.28131 24.7195 10.7417 31.063C10.7417 31.063 5.42223 26.7589 3.02345 23.6157C1.69143 21.873 0.832895 20.2985 0.436427 18.7754C0.270994 18.1393 0.231062 17.5945 0.319483 17.2009C0.467802 16.5392 0.918464 16.4707 1.05252 16.465H1.18373L1.23222 16.408C1.17232 16.0086 1.17802 15.6721 1.23792 15.3983C1.39194 14.708 1.83975 14.6367 1.97381 14.631C2.15921 14.6224 2.47581 14.6852 2.7097 15.1301L2.77245 14.1661C2.97211 13.2762 3.50549 13.2163 3.66237 13.222C3.87629 13.2277 4.39255 13.3446 4.5751 14.3572L4.70916 15.0417C4.71201 14.5711 4.75765 14.1261 4.84892 13.7211C5.07995 12.6886 5.54488 12.1153 6.09822 12.1837C6.65727 12.2522 6.92253 12.8768 6.89116 14.0349C6.81985 16.6105 7.45021 18.6812 8.06345 18.9351C8.28022 19.0264 8.57116 18.7868 8.77367 18.57C10.6305 16.6019 11.3065 16.562 11.7201 16.7845C11.914 16.8872 12.2164 17.1638 12.0624 17.8569C12.0025 18.1222 11.8855 18.4245 11.7087 18.7583C11.2323 19.6624 10.9072 20.4896 10.7475 21.2084C10.5136 22.2637 10.622 23.0994 11.0726 23.6899C11.7885 24.6283 13.2118 24.6996 13.1862 24.7081C12.5016 24.9791 8.08912 24.6112 11.2808 18.5329" fill="white"/>
<path d="M11.2808 18.5386C12.0367 17.0982 11.6145 16.2625 9.1188 18.9066C7.27907 20.8547 6.3207 17.0925 6.40627 14.0263C6.47472 11.6047 5.15126 12.6686 5.18834 15.1786C5.19975 16.0885 5.30243 17.3178 5.72172 18.8666C5.72172 18.8666 4.77191 18.1621 4.10162 14.4456C3.87914 13.2048 3.09191 13.5813 3.19174 15.1244C3.25164 16.0486 3.32009 17.7343 4.46956 19.5113C4.46956 19.5113 3.27445 18.4131 2.37884 15.5922C2.09646 14.6966 1.52885 15.1244 1.70284 16.3081C1.81123 17.0497 2.40165 19.1889 3.52546 20.8005C3.52546 20.8005 2.10502 19.44 1.50033 17.4548C1.21795 16.5306 0.430722 16.8273 0.904202 18.6556C1.45184 20.7691 4.28131 24.7195 10.7417 31.063C10.7417 31.063 5.42223 26.7589 3.02345 23.6157C1.69143 21.873 0.832895 20.2985 0.436427 18.7754C0.270994 18.1393 0.231062 17.5945 0.319483 17.2009C0.467802 16.5392 0.918464 16.4707 1.05252 16.465H1.18373L1.23222 16.408C1.17232 16.0086 1.17802 15.6721 1.23792 15.3983C1.39194 14.708 1.83975 14.6367 1.97381 14.631C2.15921 14.6224 2.47581 14.6852 2.7097 15.1301L2.77245 14.1661C2.97211 13.2762 3.50549 13.2163 3.66237 13.222C3.87629 13.2277 4.39255 13.3446 4.5751 14.3572L4.70916 15.0417C4.71201 14.5711 4.75765 14.1261 4.84892 13.7211C5.07995 12.6886 5.54488 12.1153 6.09822 12.1837C6.65727 12.2522 6.92253 12.8768 6.89116 14.0349C6.81985 16.6105 7.45021 18.6812 8.06345 18.9351C8.28022 19.0264 8.57116 18.7868 8.77367 18.57C10.6305 16.6019 11.3065 16.562 11.7201 16.7845C11.914 16.8872 12.2164 17.1638 12.0624 17.8569C12.0025 18.1222 11.8855 18.4245 11.7087 18.7583C11.2323 19.6624 10.9072 20.4896 10.7475 21.2084C10.5136 22.2637 10.622 23.0994 11.0726 23.6899C11.7885 24.6283 13.2118 24.6996 13.1862 24.7081C12.5016 24.9791 8.08912 24.6112 11.2808 18.5329" stroke="white" stroke-width="0.5"/>
<path d="M20.7192 14.6684C19.9634 16.1088 20.3826 16.9445 22.8812 14.3004C24.721 12.3523 25.6793 16.1145 25.5938 19.1807C25.5253 21.6023 26.8488 20.5384 26.8117 18.0284C26.7974 17.1185 26.6976 15.8891 26.2783 14.3404C26.2783 14.3404 27.2281 15.0449 27.8984 18.7614C28.1209 20.0021 28.9081 19.6256 28.8083 18.0826C28.7484 17.1556 28.6799 15.4727 27.5305 13.6957C27.5305 13.6957 28.7256 14.7939 29.6212 17.6148C29.9036 18.5104 30.4712 18.0826 30.2972 16.8989C30.1888 16.1573 29.5984 14.018 28.4746 12.4065C28.4746 12.4065 29.895 13.767 30.4997 15.7494C30.7792 16.6735 31.5693 16.3769 31.0958 14.5486C30.5482 12.435 27.7187 8.4846 21.2583 2.14111C21.2583 2.14111 26.5778 6.44522 28.9766 9.58844C30.3086 11.3312 31.1671 12.9057 31.5636 14.4288C31.729 15.0648 31.769 15.6096 31.6806 16.0032C31.5322 16.665 31.0816 16.7334 30.9475 16.7391H30.8163L30.7678 16.7962C30.8277 17.1955 30.822 17.5321 30.7621 17.8059C30.6081 18.4961 30.1603 18.5674 30.0262 18.5732C29.8408 18.5817 29.5242 18.519 29.2903 18.074L29.2276 19.0381C29.0279 19.928 28.4945 19.9879 28.3377 19.9822C28.1238 19.9765 27.6075 19.8595 27.4249 18.847L27.2909 18.1624C27.288 18.633 27.2424 19.078 27.1511 19.483C26.9201 20.5156 26.4552 21.0889 25.9018 21.0204C25.3428 20.952 25.0775 20.3273 25.1089 19.1693C25.1802 16.5937 24.5498 14.5229 23.9366 14.269C23.7198 14.1778 23.4289 14.4174 23.2264 14.6341C21.3695 16.6022 20.6935 16.6422 20.28 16.4197C20.086 16.317 19.7837 16.0403 19.9377 15.3472C19.9976 15.082 20.1145 14.7796 20.2914 14.4459C20.7677 13.5417 21.0929 12.7146 21.2526 11.9958C21.4865 10.9404 21.3781 10.1047 20.9274 9.51428C20.2115 8.57588 18.7882 8.50457 18.8139 8.49601C19.4984 8.22505 23.9109 8.59299 20.7192 14.6712" fill="white"/>
<path d="M20.7192 14.6684C19.9634 16.1088 20.3826 16.9445 22.8812 14.3004C24.721 12.3523 25.6793 16.1145 25.5938 19.1807C25.5253 21.6023 26.8488 20.5384 26.8117 18.0284C26.7974 17.1185 26.6976 15.8891 26.2783 14.3404C26.2783 14.3404 27.2281 15.0449 27.8984 18.7614C28.1209 20.0021 28.9081 19.6256 28.8083 18.0826C28.7484 17.1556 28.6799 15.4727 27.5305 13.6957C27.5305 13.6957 28.7256 14.7939 29.6212 17.6148C29.9036 18.5104 30.4712 18.0826 30.2972 16.8989C30.1888 16.1573 29.5984 14.018 28.4746 12.4065C28.4746 12.4065 29.895 13.767 30.4997 15.7494C30.7792 16.6735 31.5693 16.3769 31.0958 14.5486C30.5482 12.435 27.7187 8.4846 21.2583 2.14111C21.2583 2.14111 26.5778 6.44522 28.9766 9.58844C30.3086 11.3312 31.1671 12.9057 31.5636 14.4288C31.729 15.0648 31.769 15.6096 31.6806 16.0032C31.5322 16.665 31.0816 16.7334 30.9475 16.7391H30.8163L30.7678 16.7962C30.8277 17.1955 30.822 17.5321 30.7621 17.8059C30.6081 18.4961 30.1603 18.5674 30.0262 18.5732C29.8408 18.5817 29.5242 18.519 29.2903 18.074L29.2276 19.0381C29.0279 19.928 28.4945 19.9879 28.3377 19.9822C28.1238 19.9765 27.6075 19.8595 27.4249 18.847L27.2909 18.1624C27.288 18.633 27.2424 19.078 27.1511 19.483C26.9201 20.5156 26.4552 21.0889 25.9018 21.0204C25.3428 20.952 25.0775 20.3273 25.1089 19.1693C25.1802 16.5937 24.5498 14.5229 23.9366 14.269C23.7198 14.1778 23.4289 14.4174 23.2264 14.6341C21.3695 16.6022 20.6935 16.6422 20.28 16.4197C20.086 16.317 19.7837 16.0403 19.9377 15.3472C19.9976 15.0819 20.1145 14.7796 20.2914 14.4459C20.7677 13.5417 21.0929 12.7146 21.2526 11.9958C21.4865 10.9404 21.3781 10.1047 20.9274 9.51428C20.2115 8.57588 18.7882 8.50457 18.8139 8.49601C19.4984 8.22505 23.9109 8.59299 20.7192 14.6712" stroke="white" stroke-width="0.5"/>
</svg>
