<svg width="20" height="19" viewBox="0 0 20 19" fill="none" xmlns="http://www.w3.org/2000/svg">
<path d="M11.0001 18.2401C10.9039 18.2542 10.8063 18.2542 10.7101 18.2401C10.5725 18.1824 10.4552 18.085 10.3733 17.9603C10.2913 17.8356 10.2484 17.6893 10.2501 17.5401V14.2001H1.0001C0.81198 14.1957 0.632171 14.1217 0.495471 13.9924C0.358772 13.8631 0.274904 13.6877 0.260099 13.5001V5.50008C0.25472 5.39862 0.269738 5.29712 0.304266 5.20156C0.338793 5.10601 0.392128 5.01835 0.461118 4.94377C0.530107 4.86919 0.613351 4.80919 0.705927 4.76734C0.798503 4.72548 0.898532 4.70261 1.0001 4.70008H10.2501V1.51008C10.2499 1.36112 10.2946 1.21558 10.3785 1.09247C10.4624 0.969361 10.5814 0.874425 10.7201 0.820078C10.8552 0.760448 11.0054 0.743817 11.1503 0.772438C11.2952 0.801059 11.4278 0.873549 11.5301 0.980078L19.5301 8.98008C19.6705 9.1207 19.7494 9.31133 19.7494 9.51008C19.7494 9.70883 19.6705 9.89945 19.5301 10.0401L11.5301 18.0401C11.4602 18.108 11.3771 18.1608 11.2859 18.1952C11.1947 18.2296 11.0974 18.2449 11.0001 18.2401ZM1.7601 12.7001H11.0001C11.1982 12.7027 11.3875 12.7825 11.5276 12.9226C11.6677 13.0627 11.7475 13.252 11.7501 13.4501V15.6801L17.9301 9.50008L11.7501 3.33008V5.50008C11.7478 5.69849 11.669 5.88836 11.5301 6.03008C11.3818 6.15263 11.192 6.21349 11.0001 6.20008H1.7601V12.7001Z" fill="#FEFEFE"/>
</svg>
