<svg width="73" height="72" viewBox="0 0 73 72" fill="none" xmlns="http://www.w3.org/2000/svg">
<path d="M27.6603 37.1319C27.4785 37.1322 27.2984 37.0965 27.1304 37.0268C26.9624 36.9571 26.8099 36.8549 26.6816 36.726L15.6773 25.7217C15.4286 25.46 15.292 25.1114 15.2966 24.7503C15.3012 24.3893 15.4467 24.0443 15.7021 23.789C15.9574 23.5336 16.3023 23.3882 16.6634 23.3835C17.0245 23.3789 17.373 23.5155 17.6348 23.7642L28.6391 34.7685C28.8326 34.9621 28.9644 35.2088 29.0178 35.4773C29.0711 35.7458 29.0437 36.0241 28.939 36.277C28.8342 36.53 28.6568 36.7462 28.4293 36.8983C28.2017 37.0505 27.9341 37.1318 27.6603 37.1319Z" fill="#282828"/>
<path d="M48.1779 57.6492C47.9963 57.6493 47.8165 57.6135 47.6488 57.5438C47.4812 57.4742 47.3289 57.3721 47.2008 57.2434L36.3575 46.4C36.2235 46.2727 36.1164 46.1199 36.0424 45.9506C35.9684 45.7812 35.9291 45.5987 35.9267 45.4139C35.9243 45.2291 35.959 45.0457 36.0286 44.8745C36.0982 44.7034 36.2014 44.5478 36.3321 44.4171C36.4628 44.2865 36.6183 44.1833 36.7895 44.1136C36.9607 44.044 37.1441 44.0093 37.3289 44.0117C37.5137 44.0141 37.6962 44.0534 37.8655 44.1274C38.0349 44.2014 38.1877 44.3085 38.315 44.4425L49.1583 55.2858C49.3519 55.4795 49.4836 55.7261 49.537 55.9947C49.5904 56.2632 49.5629 56.5415 49.4582 56.7944C49.3535 57.0473 49.1761 57.2635 48.9485 57.4157C48.7209 57.5678 48.4533 57.6491 48.1796 57.6492H48.1779Z" fill="#282828"/>
<path d="M38.669 30.1612C38.4871 30.1615 38.307 30.1258 38.139 30.0561C37.971 29.9864 37.8185 29.8842 37.6902 29.7553L24.6488 16.7139C24.5119 16.5874 24.4019 16.4346 24.3255 16.2646C24.249 16.0946 24.2077 15.9109 24.2039 15.7245C24.2002 15.5382 24.2341 15.353 24.3037 15.18C24.3733 15.0071 24.477 14.85 24.6088 14.7181C24.7405 14.5862 24.8975 14.4823 25.0704 14.4126C25.2433 14.3429 25.4285 14.3088 25.6148 14.3124C25.8012 14.316 25.9849 14.3571 26.155 14.4334C26.3251 14.5097 26.478 14.6196 26.6046 14.7564L39.646 27.7978C39.8395 27.9914 39.9713 28.2381 40.0247 28.5066C40.078 28.7751 40.0506 29.0534 39.9459 29.3063C39.8411 29.5593 39.6637 29.7755 39.4362 29.9276C39.2086 30.0798 38.941 30.161 38.6672 30.1612H38.669Z" fill="#282828"/>
<path d="M57.1528 48.6415C56.9709 48.6418 56.7908 48.6061 56.6228 48.5365C56.4548 48.4668 56.3023 48.3646 56.174 48.2356L42.9682 35.0333C42.7195 34.7715 42.5829 34.4229 42.5875 34.0618C42.5922 33.7008 42.7376 33.3558 42.993 33.1005C43.2483 32.8452 43.5933 32.6997 43.9543 32.6951C44.3154 32.6904 44.6639 32.827 44.9257 33.0757L58.1281 46.2781C58.3214 46.4715 58.4531 46.7179 58.5066 46.9861C58.5601 47.2543 58.5329 47.5323 58.4286 47.7851C58.3243 48.0378 58.1475 48.2541 57.9204 48.4065C57.6934 48.5589 57.4263 48.6407 57.1528 48.6415Z" fill="#282828"/>
<path d="M14.0928 26.401C12.0249 26.4025 9.98568 25.9175 8.13986 24.9853C6.29405 24.053 4.69342 22.6996 3.46731 21.0345C2.2412 19.3693 1.424 17.4391 1.08174 15.3997C0.739472 13.3604 0.881746 11.2691 1.49706 9.29487C1.56779 9.06721 1.6961 8.86167 1.86956 8.69815C2.04303 8.53462 2.25578 8.41866 2.48721 8.36147C2.71864 8.30429 2.96091 8.30783 3.19058 8.37174C3.42024 8.43566 3.62951 8.55779 3.79813 8.72631L9.82123 14.7494L15.6237 8.94612L9.60143 2.92301C9.43291 2.7544 9.31078 2.54513 9.24686 2.31546C9.18294 2.0858 9.17941 1.84352 9.23659 1.61209C9.29377 1.38066 9.40974 1.16791 9.57326 0.994447C9.73679 0.820981 9.94233 0.692673 10.17 0.621945C12.4666 -0.0953942 14.9158 -0.169669 17.2516 0.407191C19.5874 0.98405 21.7205 2.18998 23.4191 3.89398C28.5612 9.03612 28.5612 17.4044 23.4191 22.5466C22.195 23.7716 20.7409 24.7427 19.1404 25.4041C17.54 26.0656 15.8246 26.4044 14.0928 26.401ZM3.69082 12.5358C3.55261 14.6502 4.06229 16.7566 5.1519 18.574C6.24151 20.3914 7.85927 21.8335 9.78946 22.7079C11.7196 23.5823 13.8705 23.8475 15.9553 23.4681C18.0401 23.0887 19.9597 22.0828 21.4581 20.5845C22.9565 19.0862 23.9626 17.1668 24.3421 15.082C24.7217 12.9973 24.4567 10.8464 23.5824 8.91611C22.7082 6.98585 21.2663 5.36796 19.449 4.27819C17.6317 3.18842 15.5254 2.67855 13.4109 2.81657L18.5617 7.96736C18.8211 8.22701 18.9669 8.57905 18.9669 8.94612C18.9669 9.31319 18.8211 9.66523 18.5617 9.92487L10.8 17.6865C10.6714 17.8152 10.5188 17.9172 10.3507 17.9868C10.1827 18.0564 10.0027 18.0922 9.8208 18.0922C9.63894 18.0922 9.45887 18.0564 9.29086 17.9868C9.12285 17.9172 8.97019 17.8152 8.84161 17.6865L3.69082 12.5358Z" fill="#282828"/>
<path d="M59.7031 71.9767C57.9718 71.9764 56.2576 71.6343 54.6589 70.97C53.0601 70.3058 51.6082 69.3324 50.3863 68.1058C45.2442 62.9637 45.2442 54.5954 50.3863 49.4532C55.5285 44.3111 63.8968 44.3102 69.0398 49.4532C70.7433 51.1521 71.9486 53.2854 72.5249 55.6212C73.1011 57.957 73.0262 60.4061 72.3084 62.7023C72.2376 62.93 72.1093 63.1355 71.9359 63.2991C71.7624 63.4626 71.5497 63.5786 71.3182 63.6357C71.0868 63.6929 70.8445 63.6894 70.6148 63.6255C70.3852 63.5615 70.1759 63.4394 70.0073 63.2709L63.9842 57.2478L58.1818 63.0511L64.204 69.0742C64.3725 69.2428 64.4947 69.4521 64.5586 69.6817C64.6225 69.9114 64.626 70.1537 64.5688 70.3851C64.5117 70.6166 64.3957 70.8293 64.2322 71.0028C64.0686 71.1762 63.8631 71.3045 63.6354 71.3753C62.3624 71.7725 61.0367 71.9753 59.7031 71.9767ZM59.7126 48.3663C58.3166 48.3678 56.935 48.6498 55.6501 49.1956C54.3651 49.7414 53.2029 50.5399 52.2326 51.5436C51.2622 52.5473 50.5035 53.7358 50.0014 55.0384C49.4993 56.3411 49.2642 57.7314 49.3099 59.1267C49.3556 60.522 49.6812 61.894 50.2675 63.161C50.8537 64.428 51.6886 65.5643 52.7226 66.5023C53.7566 67.4404 54.9685 68.1611 56.2864 68.6216C57.6044 69.0822 59.0014 69.2731 60.3946 69.1832L55.2438 64.0324C54.9843 63.7728 54.8385 63.4208 54.8385 63.0537C54.8385 62.6866 54.9843 62.3346 55.2438 62.0749L63.0054 54.3133C63.134 54.1847 63.2867 54.0826 63.4547 54.013C63.6227 53.9434 63.8028 53.9076 63.9846 53.9076C64.1665 53.9076 64.3466 53.9434 64.5146 54.013C64.6826 54.0826 64.8352 54.1847 64.9638 54.3133L70.1146 59.4641C70.2075 58.0412 70.0073 56.6145 69.5265 55.2722C69.0457 53.9299 68.2945 52.7005 67.3194 51.6602C66.3444 50.6199 65.1661 49.7908 63.8577 49.2242C62.5493 48.6577 61.1385 48.3657 59.7126 48.3663Z" fill="#282828"/>
<path d="M36.547 42.8364C36.2733 42.8362 36.0057 42.755 35.7781 42.6028C35.5505 42.4507 35.3732 42.2345 35.2684 41.9815C35.1637 41.7286 35.1363 41.4503 35.1896 41.1818C35.243 40.9133 35.3748 40.6666 35.5683 40.473L57.2108 18.8296C57.3557 18.6852 57.5308 18.5746 57.7235 18.506C57.9163 18.4373 58.1218 18.4122 58.3254 18.4324L59.9125 18.5891L69.5183 5.54505L67.1818 3.2085L54.1335 12.8074L54.2901 14.3945C54.3101 14.5982 54.2847 14.8039 54.2158 14.9966C54.1468 15.1893 54.0359 15.3644 53.8912 15.5091L32.2478 37.1551C31.9869 37.4086 31.6368 37.5492 31.2731 37.5466C30.9094 37.544 30.5613 37.3985 30.304 37.1413C30.0468 36.8842 29.9011 36.5362 29.8983 36.1725C29.8956 35.8087 30.0361 35.4586 30.2894 35.1976L51.4698 14.0189L51.2967 12.3003C51.2733 12.0614 51.3123 11.8206 51.41 11.6013C51.5077 11.3821 51.6607 11.192 51.854 11.0498L66.4938 0.269643C66.7605 0.0732743 67.0888 -0.020998 67.419 0.00392946C67.7493 0.0288569 68.0596 0.171333 68.2938 0.405509L72.3179 4.42957C72.5521 4.66376 72.6945 4.97414 72.7195 5.30439C72.7444 5.63463 72.6501 5.96288 72.4537 6.22957L61.6753 20.8659C61.5331 21.0592 61.343 21.2122 61.1238 21.3099C60.9046 21.4076 60.6637 21.4467 60.4248 21.4232L58.7062 21.2501L37.5258 42.434C37.2657 42.6924 36.9137 42.8371 36.547 42.8364Z" fill="#282828"/>
<path d="M11.1609 72.0001C9.8096 71.9994 8.47227 71.7271 7.22828 71.1995C5.9843 70.6718 4.85904 69.8996 3.91935 68.9286C2.97966 67.9576 2.24469 66.8076 1.75812 65.547C1.27154 64.2864 1.04327 62.9408 1.08687 61.5903C1.13291 60.2041 1.46153 58.8419 2.05259 57.5871C2.64365 56.3324 3.48469 55.2116 4.52419 54.2933L28.4349 33.2194C28.699 32.9866 29.042 32.8633 29.3939 32.8743C29.7458 32.8854 30.0802 33.0302 30.3292 33.2791L39.8026 42.7499C40.0516 42.9989 40.1963 43.3334 40.2074 43.6853C40.2185 44.0372 40.0951 44.3801 39.8623 44.6443L18.7884 68.5575C17.8701 69.597 16.7493 70.438 15.4945 71.029C14.2398 71.6201 12.8776 71.9487 11.4914 71.9949C11.3807 72.0001 11.2708 72.0001 11.1609 72.0001ZM29.2873 36.1565L6.35449 56.3703C5.59839 57.0321 4.98625 57.8422 4.556 58.7503C4.12575 59.6583 3.88655 60.6451 3.85323 61.6494C3.81991 62.6537 3.99317 63.6541 4.36228 64.5887C4.73139 65.5233 5.28849 66.3722 5.99906 67.0827C6.70963 67.7932 7.55852 68.3502 8.49316 68.7193C9.42779 69.0883 10.4283 69.2615 11.4325 69.2281C12.4368 69.1947 13.4236 68.9554 14.3316 68.5251C15.2397 68.0947 16.0497 67.4825 16.7115 66.7264L36.9252 43.7884L29.2873 36.1565Z" fill="#282828"/>
</svg>
