<svg width="74" height="74" viewBox="0 0 74 74" fill="none" xmlns="http://www.w3.org/2000/svg">
<path d="M18.4065 64.4234C19.4968 65.1999 20.8112 65.5985 22.1492 65.5585C23.4455 65.572 24.7127 65.1747 25.7692 64.4234L36.0156 57.0607C36.2831 56.8662 36.6053 56.7614 36.936 56.7614C37.2667 56.7614 37.5889 56.8662 37.8563 57.0607L47.98 64.4234C49.0308 65.1913 50.2986 65.6051 51.6 65.6051C52.9015 65.6051 54.1692 65.1913 55.22 64.4234C56.2635 63.6424 57.0312 62.5494 57.4118 61.3028C57.7924 60.0562 57.7662 58.7208 57.3368 57.4902L53.4714 45.5565C53.3701 45.2485 53.3689 44.9163 53.4681 44.6077C53.5674 44.299 53.7618 44.0297 54.0236 43.8385L64.178 36.4451C65.243 35.688 66.0386 34.6107 66.4487 33.37C66.8588 32.1294 66.8622 30.7901 66.4582 29.5475C66.0542 28.3048 65.2641 27.2235 64.2028 26.4611C63.1416 25.6988 61.8646 25.2951 60.558 25.309H48.0107C47.6827 25.311 47.3627 25.2078 47.0977 25.0145C46.8327 24.8213 46.6366 24.5482 46.5382 24.2353L42.6728 12.2709C42.2648 11.0415 41.4781 9.97276 40.4256 9.21779C39.373 8.46282 38.1086 8.06033 36.8133 8.06798C35.518 8.06033 34.2535 8.46282 33.2009 9.21779C32.1484 9.97276 31.3618 11.0415 30.9538 12.2709L27.0883 24.2353C26.99 24.5482 26.7938 24.8213 26.5288 25.0145C26.2638 25.2078 25.9438 25.311 25.6158 25.309H13.0685C11.7343 25.247 10.4163 25.622 9.31467 26.3771C8.21299 27.1322 7.38781 28.2262 6.9644 29.4929C6.541 30.7597 6.54251 32.13 6.96869 33.3958C7.39488 34.6616 8.22247 35.7538 9.3258 36.5065L19.4802 43.8692C19.7409 44.0684 19.9339 44.3433 20.0327 44.6562C20.1315 44.9691 20.1314 45.3049 20.0324 45.6178L16.167 57.5515C15.7649 58.7866 15.7651 60.1173 16.1675 61.3522C16.57 62.5871 17.3539 63.6625 18.4065 64.4234Z" fill="#F5BC41"/>
</svg>
