<svg width="20" height="21" viewBox="0 0 20 21" fill="none" xmlns="http://www.w3.org/2000/svg">
<path d="M7.7165 15.77C6.23314 15.77 4.78309 15.3301 3.54972 14.506C2.31635 13.6819 1.35506 12.5106 0.787399 11.1401C0.219741 9.76967 0.0712163 8.26167 0.360605 6.80682C0.649995 5.35196 1.3643 4.01559 2.41319 2.96669C3.46209 1.9178 4.79846 1.20349 6.25332 0.914103C7.70817 0.624714 9.21617 0.773239 10.5866 1.3409C11.9571 1.90855 13.1284 2.86985 13.9525 4.10322C14.7766 5.33658 15.2165 6.78663 15.2165 8.26999C15.2165 10.2591 14.4263 12.1668 13.0198 13.5733C11.6133 14.9798 9.70562 15.77 7.7165 15.77ZM7.7165 2.26999C6.52981 2.26999 5.36977 2.62189 4.38307 3.28117C3.39638 3.94046 2.62734 4.87753 2.17322 5.97389C1.71909 7.07025 1.60027 8.27665 1.83178 9.44053C2.06329 10.6044 2.63474 11.6735 3.47385 12.5126C4.31297 13.3517 5.38207 13.9232 6.54595 14.1547C7.70984 14.3862 8.91624 14.2674 10.0126 13.8133C11.109 13.3591 12.046 12.5901 12.7053 11.6034C13.3646 10.6167 13.7165 9.45668 13.7165 8.26999C13.7165 6.67869 13.0844 5.15257 11.9591 4.02735C10.8339 2.90213 9.30779 2.26999 7.7165 2.26999Z" fill="#101010"/>
<path d="M18.9665 20.27C18.868 20.2705 18.7703 20.2512 18.6793 20.2135C18.5883 20.1757 18.5057 20.1201 18.4365 20.05L11.9665 13.57C11.8923 13.502 11.8326 13.4197 11.7908 13.3282C11.7491 13.2366 11.7262 13.1376 11.7236 13.037C11.7209 12.9364 11.7385 12.8362 11.7754 12.7426C11.8122 12.6489 11.8675 12.5637 11.938 12.4918C12.0085 12.42 12.0927 12.3631 12.1856 12.3245C12.2786 12.2859 12.3783 12.2664 12.479 12.2672C12.5796 12.2679 12.6791 12.2889 12.7714 12.3289C12.8638 12.3689 12.9471 12.4271 13.0165 12.5L19.4965 18.98C19.6369 19.1206 19.7158 19.3112 19.7158 19.51C19.7158 19.7087 19.6369 19.8994 19.4965 20.04C19.4281 20.1119 19.3459 20.1693 19.2549 20.2089C19.1638 20.2484 19.0657 20.2692 18.9665 20.27Z" fill="#101010"/>
</svg>
