<svg width="24" height="25" viewBox="0 0 24 25" fill="none" xmlns="http://www.w3.org/2000/svg">
<path d="M6.00001 21.7399C6.35542 21.993 6.78387 22.123 7.22001 22.1099C7.64255 22.1143 8.05564 21.9848 8.40001 21.7399L11.74 19.3399C11.8272 19.2765 11.9322 19.2423 12.04 19.2423C12.1478 19.2423 12.2528 19.2765 12.34 19.3399L15.64 21.7399C15.9825 21.9902 16.3958 22.1251 16.82 22.1251C17.2442 22.1251 17.6575 21.9902 18 21.7399C18.3402 21.4853 18.5904 21.1291 18.7145 20.7227C18.8385 20.3164 18.83 19.8811 18.69 19.4799L17.43 15.5899C17.397 15.4895 17.3966 15.3813 17.4289 15.2806C17.4613 15.18 17.5247 15.0922 17.61 15.0299L20.92 12.6199C21.2672 12.3731 21.5265 12.022 21.6602 11.6175C21.7939 11.2131 21.795 10.7766 21.6633 10.3715C21.5316 9.96643 21.274 9.61397 20.9281 9.36546C20.5822 9.11696 20.1659 8.98538 19.74 8.98991H15.65C15.5431 8.99056 15.4388 8.95691 15.3524 8.89392C15.266 8.83093 15.2021 8.7419 15.17 8.63991L13.91 4.73991C13.777 4.33917 13.5206 3.9908 13.1775 3.74471C12.8344 3.49861 12.4222 3.36742 12 3.36991C11.5778 3.36742 11.1656 3.49861 10.8225 3.74471C10.4794 3.9908 10.223 4.33917 10.09 4.73991L8.83001 8.63991C8.79793 8.7419 8.73401 8.83093 8.64762 8.89392C8.56123 8.95691 8.45692 8.99056 8.35001 8.98991H4.26001C3.82511 8.96969 3.39549 9.09193 3.03638 9.33807C2.67727 9.58422 2.40828 9.94082 2.27027 10.3537C2.13225 10.7667 2.13274 11.2133 2.27167 11.6259C2.41059 12.0385 2.68036 12.3946 3.04001 12.6399L6.35001 15.0399C6.43499 15.1049 6.49788 15.1945 6.53009 15.2965C6.5623 15.3985 6.56227 15.5079 6.53001 15.6099L5.27001 19.4999C5.13893 19.9025 5.13899 20.3363 5.27018 20.7388C5.40136 21.1413 5.6569 21.4919 6.00001 21.7399Z" fill="#F5BC41"/>
</svg>
