<svg width="18" height="18" viewBox="0 0 18 18" fill="none" xmlns="http://www.w3.org/2000/svg">
<path d="M17.3946 4.84714C17.3521 4.74435 17.28 4.65648 17.1875 4.59466C17.095 4.53283 16.9863 4.49982 16.875 4.4998H14.7354C14.4362 3.99086 14.0105 3.56798 13.4996 3.27228C12.9886 2.97658 12.4098 2.81812 11.8195 2.8123C11.3797 2.80653 10.9432 2.88878 10.5357 3.05421C10.1282 3.21964 9.75783 3.4649 9.44648 3.77558C9.12605 4.09003 8.87172 4.46538 8.69844 4.87954C8.52517 5.29371 8.43645 5.73834 8.4375 6.1873V6.6155C5.60672 5.86878 3.29133 3.56605 3.26672 3.54144C3.19125 3.4653 3.0956 3.41232 2.99104 3.38872C2.88647 3.36513 2.77733 3.3719 2.67649 3.40825C2.57564 3.4446 2.48728 3.50901 2.42181 3.59389C2.35634 3.67878 2.31649 3.7806 2.30695 3.88737C2.00391 7.24761 2.97984 9.4962 3.85383 10.7907C4.27998 11.4306 4.79839 12.004 5.39227 12.4922C4.32141 13.7248 2.63531 14.3724 2.61703 14.3794C2.53766 14.4091 2.46603 14.4564 2.4075 14.5177C2.34896 14.579 2.30504 14.6528 2.27901 14.7334C2.25298 14.8141 2.24551 14.8996 2.25717 14.9835C2.26883 15.0675 2.29931 15.1477 2.34633 15.2182C2.39906 15.297 2.61 15.5733 3.12539 15.8314C3.76242 16.1506 4.60406 16.3123 5.625 16.3123C10.594 16.3123 14.7459 12.4859 15.1699 7.56261L17.273 5.46026C17.3516 5.38155 17.4051 5.28129 17.4268 5.17215C17.4484 5.06302 17.4372 4.94991 17.3946 4.84714ZM14.2305 6.91503C14.1341 7.0117 14.0761 7.14016 14.0674 7.27644C13.7813 11.7125 10.0744 15.1873 5.625 15.1873C4.8825 15.1873 4.35937 15.0889 3.99234 14.9707C4.80164 14.5313 5.93016 13.7754 6.65578 12.687C6.69837 12.623 6.72739 12.5509 6.74104 12.4753C6.7547 12.3996 6.7527 12.322 6.73517 12.2471C6.71764 12.1723 6.68496 12.1018 6.63914 12.0401C6.59331 11.9784 6.53533 11.9267 6.46875 11.8882C6.4357 11.8692 3.38133 10.0362 3.375 5.13823C4.5 6.0523 6.55664 7.4705 8.90648 7.86565C8.98702 7.87923 9.06954 7.87511 9.14833 7.85357C9.22711 7.83204 9.30025 7.79361 9.36268 7.74095C9.42511 7.68829 9.47532 7.62267 9.50983 7.54864C9.54434 7.47462 9.56231 7.39397 9.5625 7.3123V6.1873C9.56187 5.88724 9.62126 5.59008 9.73718 5.31332C9.8531 5.03656 10.0232 4.78577 10.2375 4.57573C10.4429 4.36993 10.6875 4.20739 10.9568 4.09773C11.2261 3.98807 11.5147 3.93352 11.8055 3.9373C12.6956 3.94855 13.5274 4.49136 13.8755 5.288C13.9193 5.38816 13.9915 5.47335 14.083 5.53317C14.1745 5.59299 14.2815 5.62483 14.3909 5.6248H15.5159L14.2305 6.91503Z" fill="white"/>
</svg>
