<svg width="36" height="30" viewBox="0 0 36 30" fill="none" xmlns="http://www.w3.org/2000/svg">
<path d="M30.6 6.66667H28.8V5C28.8 3.67392 28.2311 2.40215 27.2184 1.46447C26.2057 0.526784 24.8322 0 23.4 0H5.4C3.96783 0 2.59432 0.526784 1.58162 1.46447C0.568927 2.40215 0 3.67392 0 5V25C0 26.3261 0.568927 27.5979 1.58162 28.5355C2.59432 29.4732 3.96783 30 5.4 30H30.6C32.0322 30 33.4057 29.4732 34.4184 28.5355C35.4311 27.5979 36 26.3261 36 25V11.6667C36 10.3406 35.4311 9.06881 34.4184 8.13113C33.4057 7.19345 32.0322 6.66667 30.6 6.66667ZM5.4 3.33333H23.4C23.8774 3.33333 24.3352 3.50893 24.6728 3.82149C25.0104 4.13405 25.2 4.55797 25.2 5V6.66667H5.4C4.92261 6.66667 4.46477 6.49107 4.12721 6.17851C3.78964 5.86595 3.6 5.44203 3.6 5C3.6 4.55797 3.78964 4.13405 4.12721 3.82149C4.46477 3.50893 4.92261 3.33333 5.4 3.33333ZM32.4 20H30.6C30.1226 20 29.6648 19.8244 29.3272 19.5118C28.9896 19.1993 28.8 18.7754 28.8 18.3333C28.8 17.8913 28.9896 17.4674 29.3272 17.1548C29.6648 16.8423 30.1226 16.6667 30.6 16.6667H32.4V20ZM32.4 13.3333H30.6C29.1678 13.3333 27.7943 13.8601 26.7816 14.7978C25.7689 15.7355 25.2 17.0072 25.2 18.3333C25.2 19.6594 25.7689 20.9312 26.7816 21.8689C27.7943 22.8065 29.1678 23.3333 30.6 23.3333H32.4V25C32.4 25.442 32.2104 25.866 31.8728 26.1785C31.5352 26.4911 31.0774 26.6667 30.6 26.6667H5.4C4.92261 26.6667 4.46477 26.4911 4.12721 26.1785C3.78964 25.866 3.6 25.442 3.6 25V9.71667C4.17828 9.90503 4.78698 10.0008 5.4 10H30.6C31.0774 10 31.5352 10.1756 31.8728 10.4882C32.2104 10.8007 32.4 11.2246 32.4 11.6667V13.3333Z" fill="#373F71"/>
</svg>
