<svg width="18" height="18" viewBox="0 0 18 18" fill="none" xmlns="http://www.w3.org/2000/svg">
<path d="M9 1.6875C7.55373 1.6875 6.13993 2.11637 4.9374 2.91988C3.73486 3.72339 2.7976 4.86544 2.24413 6.20163C1.69067 7.53781 1.54586 9.00811 1.82801 10.4266C2.11017 11.8451 2.80661 13.148 3.82928 14.1707C4.85196 15.1934 6.15492 15.8898 7.57341 16.172C8.99189 16.4541 10.4622 16.3093 11.7984 15.7559C13.1346 15.2024 14.2766 14.2651 15.0801 13.0626C15.8836 11.8601 16.3125 10.4463 16.3125 9C16.3105 7.06123 15.5394 5.20246 14.1685 3.83154C12.7975 2.46063 10.9388 1.68955 9 1.6875ZM15.1629 8.45016C14.9838 8.44172 14.8045 8.4375 14.625 8.4375C13.5816 8.43779 12.5428 8.57586 11.5355 8.84812C11.2899 8.11939 10.9731 7.41662 10.5898 6.75C11.5896 6.14708 12.4947 5.39953 13.2757 4.53164C14.3594 5.56556 15.0301 6.95827 15.1629 8.45016ZM12.3947 3.82922C11.6921 4.60124 10.88 5.26598 9.98438 5.80219C9.23427 4.74639 8.31681 3.82014 7.26821 3.06C8.12843 2.80888 9.03293 2.74761 9.91916 2.88042C10.8054 3.01323 11.6522 3.33696 12.401 3.82922H12.3947ZM6.02227 3.5775C7.17159 4.30129 8.17359 5.23602 8.97539 6.33234C7.57212 6.97911 6.04516 7.31353 4.5 7.3125C4.02312 7.31225 3.54677 7.28055 3.07407 7.21758C3.54443 5.66614 4.60239 4.3599 6.02227 3.5775ZM2.8125 9C2.81247 8.77355 2.82491 8.54727 2.84977 8.32219C3.3965 8.39895 3.94791 8.43748 4.5 8.4375C6.26452 8.43916 8.00696 8.04512 9.59907 7.28437C9.94983 7.89011 10.2398 8.52909 10.4646 9.19195C9.86709 9.41641 9.28885 9.68919 8.73563 10.0076C7.19232 10.8992 5.86903 12.1261 4.86352 13.5977C4.21781 13.0185 3.70143 12.3096 3.34804 11.5174C2.99464 10.7252 2.81216 9.86745 2.8125 9ZM5.76563 14.2734C6.67854 12.9232 7.88648 11.7982 9.29813 10.9835C9.77009 10.7111 10.2626 10.4761 10.7712 10.2804C10.9452 11.0528 11.0332 11.842 11.0334 12.6337C11.0338 13.4035 10.9515 14.171 10.788 14.9231C9.95247 15.1755 9.07292 15.2482 8.20726 15.1362C7.3416 15.0242 6.50947 14.7302 5.76563 14.2734ZM12.0277 14.3951C12.1145 13.8132 12.1582 13.2256 12.1584 12.6373C12.1583 11.7266 12.0533 10.819 11.8456 9.93234C12.7518 9.68778 13.6863 9.56344 14.625 9.5625C14.8031 9.5625 14.9815 9.56695 15.1601 9.57586C15.0659 10.5723 14.7318 11.5311 14.1863 12.3702C13.6408 13.2094 12.9001 13.9039 12.0277 14.3944V14.3951Z" fill="white"/>
</svg>
